<?xml version="1.0" standalone="no"?>
<!DOCTYPE svg PUBLIC "-//W3C//DTD SVG 1.1//EN" "http://www.w3.org/Graphics/SVG/1.1/DTD/svg11.dtd" >
<svg xmlns="http://www.w3.org/2000/svg" xmlns:xlink="http://www.w3.org/1999/xlink" version="1.1">
<metadata>
Created by FontForge 20190801 at Mon Jul  6 22:44:48 2015
 By Jimmy Wärting
Copyright (c) 2015 by Wei Huang. All rights reserved.
</metadata>
<defs>
<font id="WorkSans-Medium" horiz-adv-x="604" >
  <font-face 
    font-family="Work Sans Medium"
    font-weight="500"
    font-stretch="normal"
    units-per-em="1000"
    panose-1="0 0 6 0 0 0 0 0 0 0"
    ascent="760"
    descent="-240"
    x-height="500"
    cap-height="660"
    bbox="-332 -338 1240 927"
    underline-thickness="50"
    underline-position="-100"
    stemh="87"
    stemv="104"
    unicode-range="U+0020-FB02"
  />
<missing-glyph horiz-adv-x="500" 
d="M50 0v660h400v-660h-400zM130 80h240v500h-240v-500z" />
    <glyph glyph-name="fi" unicode="fi" horiz-adv-x="673" 
d="M313 645c-56 0 -88 -24 -88 -81v-64h162v-84h-159v-416h-107v416h-94v84h94v72c0 101 64 160 175 160c40 0 75 -9 94 -24l-20 -78c-15 10 -33 15 -57 15zM537 717c46 0 71 -24 71 -66s-25 -67 -71 -67s-72 25 -72 67s26 66 72 66zM483 0v500h107v-500h-107z" />
    <glyph glyph-name="fl" unicode="fl" horiz-adv-x="712" 
d="M313 645c-56 0 -88 -24 -88 -81v-64h162v-84h-159v-416h-107v416h-94v84h94v72c0 101 64 160 175 160c40 0 75 -9 94 -24l-20 -78c-15 10 -33 15 -57 15zM639 80c25 0 40 3 66 13l-12 -86c-22 -11 -54 -17 -83 -17c-89 0 -130 44 -130 141v594h107v-579
c0 -49 12 -66 52 -66z" />
    <glyph glyph-name="f_t.liga" unicode="ft" horiz-adv-x="771" 
d="M729 111l25 -78c-32 -27 -79 -43 -133 -43c-86 0 -152 39 -153 142v284h-240v-416h-107v416h-94v84h94v72c0 101 64 160 172 160c39 0 72 -9 91 -24l-18 -77c-16 10 -32 14 -55 14c-54 0 -86 -24 -86 -81v-64h243v117l107 30v-147h175v-84h-175v-266c0 -49 29 -71 73 -71
c34 0 59 12 81 32z" />
    <glyph glyph-name="g_j.liga" unicode="gj" horiz-adv-x="838" 
d="M701 717c44 0 72 -26 72 -66s-28 -67 -72 -67c-43 0 -71 27 -71 67s28 66 71 66zM540 522c-60 3 -99 -17 -108 -56c38 -30 59 -72 59 -125c0 -105 -81 -169 -217 -169c-29 0 -56 3 -80 9c-40 -8 -57 -27 -57 -52c0 -32 26 -51 88 -51h133c105 0 166 -48 166 -128
c0 -104 -106 -165 -253 -165c-165 0 -241 54 -241 128c0 47 28 85 81 102c-35 20 -61 50 -61 93c0 48 32 83 79 99c-47 29 -74 75 -74 134c0 104 84 169 219 169c40 0 75 -6 105 -16c12 67 66 113 143 111zM648 -38v538h107v-546c0 -132 -73 -169 -149 -169
c-30 0 -52 5 -72 13l18 90c14 -8 27 -11 48 -11c34 0 48 22 48 85zM273 248c71 0 112 35 112 93s-41 93 -112 93c-70 0 -112 -35 -112 -93s42 -93 112 -93zM341 -11h-125c-63 0 -96 -21 -96 -56c0 -43 51 -68 159 -68c103 0 154 34 154 73c0 32 -23 51 -92 51z" />
    <glyph glyph-name="j_j.liga" unicode="jj" horiz-adv-x="546" 
d="M137 717c43 0 71 -26 71 -66s-28 -67 -71 -67c-44 0 -72 27 -72 67s28 66 72 66zM410 717c44 0 72 -26 72 -66s-28 -67 -72 -67s-72 27 -72 67s28 66 72 66zM190 500v-544c0 -128 -80 -171 -164 -171c-45 0 -83 13 -110 33l19 86c18 -15 45 -28 77 -28c43 0 71 23 71 90
v534h107zM463 500v-546c0 -132 -89 -169 -165 -169c-40 0 -73 12 -98 30l19 89c17 -15 42 -27 73 -27c38 0 64 22 64 85v538h107z" />
    <glyph glyph-name="t_t.liga" unicode="tt" horiz-adv-x="786" 
d="M744 111l25 -78c-32 -27 -79 -43 -133 -43c-86 0 -151 39 -152 142v284h-256v-266c0 -49 27 -71 70 -71c34 0 58 12 79 33l26 -79c-31 -27 -78 -43 -131 -43c-85 0 -150 39 -151 142v284h-95v84h95v117l107 30v-147h256v117l107 30v-147h174v-84h-174v-266
c0 -49 29 -71 72 -71c35 0 59 12 81 32z" />
    <glyph glyph-name=".notdef" horiz-adv-x="500" 
d="M50 0v660h400v-660h-400zM130 80h240v500h-240v-500z" />
    <glyph glyph-name="space" unicode=" " horiz-adv-x="325" 
 />
    <glyph glyph-name="A" unicode="A" horiz-adv-x="665" 
d="M533 0l-62 173h-278l-63 -173h-110l249 660h128l249 -660h-113zM224 260h215l-76 212l-30 95h-3l-28 -93z" />
    <glyph glyph-name="Aacute" unicode="&#xc1;" horiz-adv-x="665" 
d="M452 888l-88 -151h-82l56 151h114zM533 0l-62 173h-278l-63 -173h-110l249 660h128l249 -660h-113zM224 260h215l-76 212l-30 95h-3l-28 -93z" />
    <glyph glyph-name="Abreve" unicode="&#x102;" horiz-adv-x="665" 
d="M333 730c-93 0 -154 61 -154 153h79c0 -45 31 -82 75 -82s75 37 75 82h79c0 -92 -61 -153 -154 -153zM533 0l-62 173h-278l-63 -173h-110l249 660h128l249 -660h-113zM224 260h215l-76 212l-30 95h-3l-28 -93z" />
    <glyph glyph-name="Acircumflex" unicode="&#xc2;" horiz-adv-x="665" 
d="M333 838l-80 -107h-89l113 167h112l113 -167h-89zM533 0l-62 173h-278l-63 -173h-110l249 660h128l249 -660h-113zM224 260h215l-76 212l-30 95h-3l-28 -93z" />
    <glyph glyph-name="Adieresis" unicode="&#xc4;" horiz-adv-x="665" 
d="M231 734c-39 0 -65 25 -65 63c0 39 26 63 65 63c40 0 66 -24 66 -63c0 -38 -26 -63 -66 -63zM433 734c-40 0 -65 25 -65 63c0 39 25 63 65 63s66 -24 66 -63c0 -38 -26 -63 -66 -63zM533 0l-62 173h-278l-63 -173h-110l249 660h128l249 -660h-113zM224 260h215l-76 212
l-30 95h-3l-28 -93z" />
    <glyph glyph-name="Agrave" unicode="&#xc0;" horiz-adv-x="665" 
d="M372 737h-82l-88 151h114zM533 0l-62 173h-278l-63 -173h-110l249 660h128l249 -660h-113zM224 260h215l-76 212l-30 95h-3l-28 -93z" />
    <glyph glyph-name="Amacron" unicode="&#x100;" horiz-adv-x="665" 
d="M511 826v-78h-356v78h356zM533 0l-62 173h-278l-63 -173h-110l249 660h128l249 -660h-113zM224 260h215l-76 212l-30 95h-3l-28 -93z" />
    <glyph glyph-name="Aogonek" unicode="&#x104;" horiz-adv-x="665" 
d="M638 -134l18 -61c-22 -14 -56 -20 -89 -20c-74 0 -125 37 -125 107c0 52 29 91 88 118l-59 163h-278l-63 -173h-110l249 660h128l249 -660h-1c-98 -28 -122 -60 -122 -97c0 -31 24 -49 62 -49c16 0 38 2 53 12zM224 260h215l-76 212l-30 95h-3l-28 -93z" />
    <glyph glyph-name="Aring" unicode="&#xc5;" horiz-adv-x="665" 
d="M533 0l-62 173h-278l-63 -173h-110l239 630c-37 20 -59 56 -59 103c0 72 53 122 134 122c80 0 132 -50 132 -122c0 -47 -22 -83 -59 -103l239 -630h-113zM333 797c-40 0 -68 -27 -68 -65c0 -39 28 -65 68 -65c39 0 67 26 67 65c0 38 -28 65 -67 65zM224 260h215l-76 212
l-30 95h-3l-28 -93z" />
    <glyph glyph-name="Atilde" unicode="&#xc3;" horiz-adv-x="665" 
d="M264 801c-27 0 -39 -24 -45 -66h-73c6 94 44 142 119 142c74 0 94 -65 134 -65c28 0 40 24 46 65h73c-6 -93 -45 -141 -118 -141c-76 0 -94 65 -136 65zM533 0l-62 173h-278l-63 -173h-110l249 660h128l249 -660h-113zM224 260h215l-76 212l-30 95h-3l-28 -93z" />
    <glyph glyph-name="AE" unicode="&#xc6;" horiz-adv-x="945" 
d="M546 90h353v-90h-457v208h-219l-108 -208h-112l355 660h527v-90h-339v-192h258v-89h-258v-199zM268 294h174v277h-31z" />
    <glyph glyph-name="B" unicode="B" horiz-adv-x="662" 
d="M98 0v660h260c158 0 229 -68 229 -181c0 -69 -41 -130 -118 -144v-1c85 -14 135 -77 135 -151c0 -113 -85 -183 -242 -183h-264zM203 376h147c84 0 126 32 126 97s-42 97 -126 97h-147v-194zM203 89h164c84 0 126 36 126 99s-42 99 -126 99h-164v-198z" />
    <glyph glyph-name="C" unicode="C" horiz-adv-x="684" 
d="M645 175c-41 -121 -144 -185 -273 -185c-191 0 -311 130 -311 340s121 340 310 340c131 0 224 -55 264 -162l-101 -45c-26 78 -75 114 -157 114c-123 0 -204 -90 -204 -247c0 -156 75 -247 200 -247c84 0 145 42 170 126z" />
    <glyph glyph-name="Cacute" unicode="&#x106;" horiz-adv-x="684" 
d="M375 888h114l-88 -151h-82zM645 175c-41 -121 -144 -185 -273 -185c-191 0 -311 130 -311 340s121 340 310 340c131 0 224 -55 264 -162l-101 -45c-26 78 -75 114 -157 114c-123 0 -204 -90 -204 -247c0 -156 75 -247 200 -247c84 0 145 42 170 126z" />
    <glyph glyph-name="Ccaron" unicode="&#x10c;" horiz-adv-x="684" 
d="M537 900l-113 -167h-112l-113 167h89l80 -107l80 107h89zM645 175c-41 -121 -144 -185 -273 -185c-191 0 -311 130 -311 340s121 340 310 340c131 0 224 -55 264 -162l-101 -45c-26 78 -75 114 -157 114c-123 0 -204 -90 -204 -247c0 -156 75 -247 200 -247
c84 0 145 42 170 126z" />
    <glyph glyph-name="Ccedilla" unicode="&#xc7;" horiz-adv-x="684" 
d="M645 175c-34 -101 -112 -163 -213 -180c38 -27 57 -64 57 -100c0 -63 -48 -110 -124 -110c-52 0 -87 12 -115 37l33 62c16 -17 41 -30 70 -30c32 0 56 22 56 56s-16 56 -74 82c-170 15 -274 142 -274 338c0 210 121 340 310 340c131 0 224 -55 264 -162l-101 -45
c-26 78 -75 114 -157 114c-123 0 -204 -90 -204 -247c0 -156 75 -247 200 -247c84 0 145 42 170 126z" />
    <glyph glyph-name="D" unicode="D" horiz-adv-x="720" 
d="M331 660c207 0 328 -118 328 -330s-121 -330 -328 -330h-233v660h233zM331 91c139 0 216 87 216 239s-77 239 -216 239h-126v-478h126z" />
    <glyph glyph-name="Eth" unicode="&#xd0;" horiz-adv-x="738" 
d="M349 660c207 0 328 -118 328 -330s-121 -330 -328 -330h-233v294h-94v76h94v290h233zM349 91c139 0 216 87 216 239s-77 239 -216 239h-126v-199h177v-76h-177v-203h126z" />
    <glyph glyph-name="Dcaron" unicode="&#x10e;" horiz-adv-x="720" 
d="M381 733h-112l-113 167h89l80 -107l80 107h89zM331 660c207 0 328 -118 328 -330s-121 -330 -328 -330h-233v660h233zM331 91c139 0 216 87 216 239s-77 239 -216 239h-126v-478h126z" />
    <glyph glyph-name="Dcroat" unicode="&#x110;" horiz-adv-x="738" 
d="M349 660c207 0 328 -118 328 -330s-121 -330 -328 -330h-233v294h-94v76h94v290h233zM349 91c140 0 217 87 217 239s-77 239 -217 239h-126v-199h177v-76h-177v-203h126z" />
    <glyph glyph-name="E" unicode="E" horiz-adv-x="636" 
d="M205 92h385v-92h-492v660h478v-92h-371v-190h290v-90h-290v-196z" />
    <glyph glyph-name="Eacute" unicode="&#xc9;" horiz-adv-x="636" 
d="M454 888l-88 -151h-82l56 151h114zM205 92h385v-92h-492v660h478v-92h-371v-190h290v-90h-290v-196z" />
    <glyph glyph-name="Ecaron" unicode="&#x11a;" horiz-adv-x="636" 
d="M389 733h-112l-113 167h89l80 -107l80 107h89zM205 92h385v-92h-492v660h478v-92h-371v-190h290v-90h-290v-196z" />
    <glyph glyph-name="Ecircumflex" unicode="&#xca;" horiz-adv-x="636" 
d="M334 838l-80 -107h-89l113 167h112l113 -167h-89zM205 92h385v-92h-492v660h478v-92h-371v-190h290v-90h-290v-196z" />
    <glyph glyph-name="Edieresis" unicode="&#xcb;" horiz-adv-x="636" 
d="M233 734c-39 0 -65 25 -65 63c0 39 26 63 65 63c40 0 66 -24 66 -63c0 -38 -26 -63 -66 -63zM435 734c-40 0 -65 25 -65 63c0 39 25 63 65 63s66 -24 66 -63c0 -38 -26 -63 -66 -63zM205 92h385v-92h-492v660h478v-92h-371v-190h290v-90h-290v-196z" />
    <glyph glyph-name="Edotaccent" unicode="&#x116;" horiz-adv-x="636" 
d="M334 746c-43 0 -69 25 -69 66s26 66 69 66s70 -25 70 -66s-27 -66 -70 -66zM205 92h385v-92h-492v660h478v-92h-371v-190h290v-90h-290v-196z" />
    <glyph glyph-name="Egrave" unicode="&#xc8;" horiz-adv-x="636" 
d="M391 737h-82l-88 151h114zM205 92h385v-92h-492v660h478v-92h-371v-190h290v-90h-290v-196z" />
    <glyph glyph-name="Emacron" unicode="&#x112;" horiz-adv-x="636" 
d="M512 826v-78h-356v78h356zM205 92h385v-92h-492v660h478v-92h-371v-190h290v-90h-290v-196z" />
    <glyph glyph-name="Eogonek" unicode="&#x118;" horiz-adv-x="636" 
d="M583 -134l18 -61c-21 -14 -56 -20 -89 -20c-74 0 -125 37 -125 102c0 54 31 89 86 113h-375v660h478v-92h-371v-190h290v-90h-290v-196h385v-92h1c-99 -29 -123 -60 -123 -97c0 -31 24 -49 62 -49c16 0 38 2 53 12z" />
    <glyph glyph-name="F" unicode="F" horiz-adv-x="611" 
d="M575 568h-370v-191h290v-93h-290v-284h-107v660h477v-92z" />
    <glyph glyph-name="G" unicode="G" horiz-adv-x="724" 
d="M354 341h297v-341h-79l-3 84c-38 -59 -105 -94 -202 -94c-185 0 -306 128 -306 340c0 210 124 340 314 340c137 0 221 -49 272 -156l-98 -47c-26 73 -89 110 -172 110c-124 0 -204 -90 -204 -247c0 -158 71 -248 206 -248c100 0 177 50 177 152v19h-202v88z" />
    <glyph glyph-name="Gbreve" unicode="&#x11e;" horiz-adv-x="724" 
d="M371 730c-93 0 -154 61 -154 153h79c0 -45 31 -82 75 -82s75 37 75 82h79c0 -92 -61 -153 -154 -153zM354 341h297v-341h-79l-3 84c-38 -59 -105 -94 -202 -94c-185 0 -306 128 -306 340c0 210 124 340 314 340c137 0 221 -49 272 -156l-98 -47c-26 73 -89 110 -172 110
c-124 0 -204 -90 -204 -247c0 -158 71 -248 206 -248c100 0 177 50 177 152v19h-202v88z" />
    <glyph glyph-name="H" unicode="H" horiz-adv-x="736" 
d="M531 660h108v-660h-108v288h-326v-288h-107v660h107v-280h326v280z" />
    <glyph glyph-name="I" unicode="I" horiz-adv-x="303" 
d="M205 660v-660h-107v660h107z" />
    <glyph glyph-name="IJ" unicode="&#x132;" horiz-adv-x="885" 
d="M205 660v-660h-107v660h107zM796 660v-426c0 -153 -89 -244 -240 -244c-163 0 -236 96 -209 241l102 19c-15 -115 15 -167 107 -167c101 0 133 58 133 171v406h107z" />
    <glyph glyph-name="Iacute" unicode="&#xcd;" horiz-adv-x="303" 
d="M157 888h114l-88 -151h-82zM205 660v-660h-107v660h107z" />
    <glyph glyph-name="Icircumflex" unicode="&#xce;" horiz-adv-x="303" 
d="M320 731h-89l-80 107l-80 -107h-89l113 167h112zM205 660v-660h-107v660h107z" />
    <glyph glyph-name="Idieresis" unicode="&#xcf;" horiz-adv-x="303" 
d="M60 860c40 0 65 -24 65 -63c0 -38 -25 -63 -65 -63c-39 0 -64 25 -64 63c0 39 25 63 64 63zM242 860c39 0 65 -24 65 -63c0 -38 -26 -63 -65 -63s-65 25 -65 63c0 39 26 63 65 63zM205 660v-660h-107v660h107z" />
    <glyph glyph-name="Idotaccent" unicode="&#x130;" horiz-adv-x="303" 
d="M151 878c43 0 70 -25 70 -66s-27 -66 -70 -66s-69 25 -69 66s26 66 69 66zM205 660v-660h-107v660h107z" />
    <glyph glyph-name="Igrave" unicode="&#xcc;" horiz-adv-x="303" 
d="M134 888l56 -151h-82l-88 151h114zM205 660v-660h-107v660h107z" />
    <glyph glyph-name="Imacron" unicode="&#x12a;" horiz-adv-x="303" 
d="M269 826v-78h-236v78h236zM205 660v-660h-107v660h107z" />
    <glyph glyph-name="Iogonek" unicode="&#x12e;" horiz-adv-x="303" 
d="M209 -132l21 -60c-24 -16 -52 -23 -91 -23c-73 0 -123 37 -123 102c0 48 27 88 82 116v657h107v-660c-87 -34 -108 -65 -108 -95c0 -33 19 -51 57 -51c23 0 40 4 55 14z" />
    <glyph glyph-name="J" unicode="J" horiz-adv-x="582" 
d="M493 660v-426c0 -153 -89 -244 -240 -244c-163 0 -236 96 -209 241l102 19c-15 -115 15 -167 107 -167c101 0 133 58 133 171v406h107z" />
    <glyph glyph-name="K" unicode="K" horiz-adv-x="667" 
d="M519 0l-207 318l-107 -115v-203h-107v660h107v-328l303 328h131l-250 -270l256 -390h-126z" />
    <glyph glyph-name="L" unicode="L" horiz-adv-x="599" 
d="M205 92h364v-92h-471v660h107v-568z" />
    <glyph glyph-name="Lacute" unicode="&#x139;" horiz-adv-x="599" 
d="M271 888l-88 -151h-82l56 151h114zM205 92h364v-92h-471v660h107v-568z" />
    <glyph glyph-name="Lcaron" unicode="&#x13d;" horiz-adv-x="599" 
d="M412 701l-47 -210h-70l21 210h96zM205 92h364v-92h-471v660h107v-568z" />
    <glyph glyph-name="Ldot" unicode="&#x13f;" horiz-adv-x="626" 
d="M205 660v-568h364v-92h-471v660h107zM529 418c46 0 75 -28 75 -72s-29 -73 -75 -73s-76 29 -76 73s30 72 76 72z" />
    <glyph glyph-name="Lslash" unicode="&#x141;" horiz-adv-x="633" 
d="M239 92h363v-92h-471v243l-106 -56v96l106 56v321h108v-264l175 93v-96l-175 -92v-209z" />
    <glyph glyph-name="M" unicode="M" horiz-adv-x="871" 
d="M773 660v-660h-98v382l7 182h-1l-201 -564h-89l-201 564h-1l8 -182v-382h-99v660h159l133 -382l46 -157h2l47 157l132 382h156z" />
    <glyph glyph-name="N" unicode="N" horiz-adv-x="736" 
d="M639 660v-660h-127l-255 416l-64 122h-1l4 -112v-426h-98v660h126l254 -415l65 -123h1l-4 112v426h99z" />
    <glyph glyph-name="Nacute" unicode="&#x143;" horiz-adv-x="736" 
d="M377 888h114l-88 -151h-82zM639 660v-660h-127l-255 416l-64 122h-1l4 -112v-426h-98v660h126l254 -415l65 -123h1l-4 112v426h99z" />
    <glyph glyph-name="Ncaron" unicode="&#x147;" horiz-adv-x="736" 
d="M539 900l-113 -167h-112l-113 167h89l80 -107l80 107h89zM639 660v-660h-127l-255 416l-64 122h-1l4 -112v-426h-98v660h126l254 -415l65 -123h1l-4 112v426h99z" />
    <glyph glyph-name="Ntilde" unicode="&#xd1;" horiz-adv-x="736" 
d="M557 877c-6 -93 -45 -141 -118 -141c-76 0 -94 65 -136 65c-27 0 -39 -24 -45 -66h-73c6 94 44 142 119 142c74 0 94 -65 134 -65c28 0 40 24 46 65h73zM639 660v-660h-127l-255 416l-64 122h-1l4 -112v-426h-98v660h126l254 -415l65 -123h1l-4 112v426h99z" />
    <glyph glyph-name="O" unicode="O" horiz-adv-x="745" 
d="M372 670c192 0 312 -130 312 -340s-120 -340 -312 -340c-191 0 -311 130 -311 340s120 340 311 340zM372 577c-124 0 -199 -90 -199 -247s75 -247 199 -247c125 0 200 90 200 247s-75 247 -200 247z" />
    <glyph glyph-name="Oacute" unicode="&#xd3;" horiz-adv-x="745" 
d="M378 888h114l-88 -151h-82zM372 670c192 0 312 -130 312 -340s-120 -340 -312 -340c-191 0 -311 130 -311 340s120 340 311 340zM372 577c-124 0 -199 -90 -199 -247s75 -247 199 -247c125 0 200 90 200 247s-75 247 -200 247z" />
    <glyph glyph-name="Ocircumflex" unicode="&#xd4;" horiz-adv-x="745" 
d="M541 731h-89l-80 107l-80 -107h-89l113 167h112zM372 670c192 0 312 -130 312 -340s-120 -340 -312 -340c-191 0 -311 130 -311 340s120 340 311 340zM372 577c-124 0 -199 -90 -199 -247s75 -247 199 -247c125 0 200 90 200 247s-75 247 -200 247z" />
    <glyph glyph-name="Odieresis" unicode="&#xd6;" horiz-adv-x="745" 
d="M271 860c40 0 66 -24 66 -63c0 -38 -26 -63 -66 -63c-39 0 -65 25 -65 63c0 39 26 63 65 63zM473 860c40 0 66 -24 66 -63c0 -38 -26 -63 -66 -63s-65 25 -65 63c0 39 25 63 65 63zM372 670c192 0 312 -130 312 -340s-120 -340 -312 -340c-191 0 -311 130 -311 340
s120 340 311 340zM372 577c-124 0 -199 -90 -199 -247s75 -247 199 -247c125 0 200 90 200 247s-75 247 -200 247z" />
    <glyph glyph-name="Ograve" unicode="&#xd2;" horiz-adv-x="745" 
d="M355 888l56 -151h-82l-88 151h114zM372 670c192 0 312 -130 312 -340s-120 -340 -312 -340c-191 0 -311 130 -311 340s120 340 311 340zM372 577c-124 0 -199 -90 -199 -247s75 -247 199 -247c125 0 200 90 200 247s-75 247 -200 247z" />
    <glyph glyph-name="Ohungarumlaut" unicode="&#x150;" horiz-adv-x="745" 
d="M292 888h114l-88 -151h-82zM483 888h114l-88 -151h-82zM372 670c192 0 312 -130 312 -340s-120 -340 -312 -340c-191 0 -311 130 -311 340s120 340 311 340zM372 577c-124 0 -199 -90 -199 -247s75 -247 199 -247c125 0 200 90 200 247s-75 247 -200 247z" />
    <glyph glyph-name="Omacron" unicode="&#x14c;" horiz-adv-x="745" 
d="M550 826v-78h-356v78h356zM372 670c192 0 312 -130 312 -340s-120 -340 -312 -340c-191 0 -311 130 -311 340s120 340 311 340zM372 577c-124 0 -199 -90 -199 -247s75 -247 199 -247c125 0 200 90 200 247s-75 247 -200 247z" />
    <glyph glyph-name="Oslash" unicode="&#xd8;" horiz-adv-x="745" 
d="M595 584c57 -58 89 -146 89 -254c0 -210 -120 -340 -312 -340c-65 0 -122 15 -168 43l-48 -67h-75l74 105c-60 59 -94 148 -94 259c0 210 120 340 311 340c68 0 127 -16 175 -47l42 59h75zM372 577c-124 0 -199 -90 -199 -247c0 -73 16 -131 45 -173l270 385
c-31 23 -70 35 -116 35zM372 83c125 0 200 90 200 247c0 69 -14 125 -41 166l-267 -383c30 -20 66 -30 108 -30z" />
    <glyph glyph-name="Otilde" unicode="&#xd5;" horiz-adv-x="745" 
d="M558 877c-6 -93 -45 -141 -118 -141c-76 0 -94 65 -136 65c-27 0 -39 -24 -45 -66h-73c6 94 44 142 119 142c74 0 94 -65 134 -65c28 0 40 24 46 65h73zM372 670c192 0 312 -130 312 -340s-120 -340 -312 -340c-191 0 -311 130 -311 340s120 340 311 340zM372 577
c-124 0 -199 -90 -199 -247s75 -247 199 -247c125 0 200 90 200 247s-75 247 -200 247z" />
    <glyph glyph-name="OE" unicode="&#x152;" horiz-adv-x="1070" 
d="M664 92h361v-92h-447v92c-49 -64 -122 -102 -211 -102c-189 0 -306 130 -306 340s116 340 309 340c88 0 160 -37 208 -100v90h432v-92h-346v-190h266v-90h-266v-196zM372 83c115 0 190 90 190 247s-75 247 -190 247c-129 0 -200 -90 -200 -247s71 -247 200 -247z" />
    <glyph glyph-name="P" unicode="P" horiz-adv-x="627" 
d="M352 660c142 0 232 -77 232 -206c0 -128 -90 -205 -232 -205h-147v-249h-107v660h254zM335 340c95 0 138 39 138 114s-43 115 -138 115h-130v-229h130z" />
    <glyph glyph-name="Thorn" unicode="&#xde;" horiz-adv-x="639" 
d="M339 547c165 0 250 -74 250 -210c0 -135 -85 -210 -250 -210h-134v-127h-107v660h107v-113h134zM338 218c94 0 141 38 140 119c1 81 -46 119 -140 119h-133v-238h133z" />
    <glyph glyph-name="Q" unicode="Q" horiz-adv-x="745" 
d="M532 -101c51 0 94 14 119 38l31 -90c-33 -28 -96 -45 -153 -45c-110 0 -196 54 -200 190c-166 19 -268 144 -268 338c0 210 120 340 311 340c192 0 312 -130 312 -340c0 -195 -103 -321 -271 -338c7 -78 57 -93 119 -93zM173 330c0 -157 75 -247 199 -247
c125 0 200 90 200 247s-75 247 -200 247c-124 0 -199 -90 -199 -247z" />
    <glyph glyph-name="R" unicode="R" horiz-adv-x="672" 
d="M514 0l-168 264h-142v-264h-106v660h269c142 0 231 -74 231 -198c0 -95 -52 -160 -140 -186l179 -276h-123zM204 569v-216h154c87 0 129 35 129 108s-42 108 -129 108h-154z" />
    <glyph glyph-name="Racute" unicode="&#x154;" horiz-adv-x="672" 
d="M444 888l-88 -151h-82l56 151h114zM514 0l-168 264h-142v-264h-106v660h269c142 0 231 -74 231 -198c0 -95 -52 -160 -140 -186l179 -276h-123zM204 569v-216h154c87 0 129 35 129 108s-42 108 -129 108h-154z" />
    <glyph glyph-name="Rcaron" unicode="&#x158;" horiz-adv-x="672" 
d="M379 733h-112l-113 167h89l80 -107l80 107h89zM514 0l-168 264h-142v-264h-106v660h269c142 0 231 -74 231 -198c0 -95 -52 -160 -140 -186l179 -276h-123zM204 569v-216h154c87 0 129 35 129 108s-42 108 -129 108h-154z" />
    <glyph glyph-name="S" unicode="S" horiz-adv-x="642" 
d="M323 670c122 0 206 -44 264 -134l-81 -73c-37 79 -88 114 -182 114s-145 -42 -145 -98c0 -53 41 -81 169 -104c177 -31 242 -86 242 -192c0 -118 -107 -193 -263 -193c-144 0 -233 52 -284 134l75 75c43 -80 109 -116 208 -116c94 0 152 33 152 94c0 47 -40 74 -164 97
c-181 34 -248 89 -248 194c0 112 96 202 257 202z" />
    <glyph glyph-name="Sacute" unicode="&#x15a;" horiz-adv-x="642" 
d="M333 888h114l-88 -151h-82zM323 670c122 0 206 -44 264 -134l-81 -73c-37 79 -88 114 -182 114s-145 -42 -145 -98c0 -53 41 -81 169 -104c177 -31 242 -86 242 -192c0 -118 -107 -193 -263 -193c-144 0 -233 52 -284 134l75 75c43 -80 109 -116 208 -116
c94 0 152 33 152 94c0 47 -40 74 -164 97c-181 34 -248 89 -248 194c0 112 96 202 257 202z" />
    <glyph glyph-name="Scaron" unicode="&#x160;" horiz-adv-x="642" 
d="M495 900l-113 -167h-112l-113 167h89l80 -107l80 107h89zM323 670c122 0 206 -44 264 -134l-81 -73c-37 79 -88 114 -182 114s-145 -42 -145 -98c0 -53 41 -81 169 -104c177 -31 242 -86 242 -192c0 -118 -107 -193 -263 -193c-144 0 -233 52 -284 134l75 75
c43 -80 109 -116 208 -116c94 0 152 33 152 94c0 47 -40 74 -164 97c-181 34 -248 89 -248 194c0 112 96 202 257 202z" />
    <glyph glyph-name="uni1E9E" unicode="&#x1e9e;" horiz-adv-x="699" 
d="M458 368c121 0 207 -62 207 -182c0 -119 -88 -191 -208 -191c-87 0 -149 27 -175 62l37 72c25 -28 71 -46 122 -46c70 0 116 42 116 104c0 65 -49 104 -135 104h-81v77l166 201h-163c-78 0 -139 -58 -139 -141v-428h-107v436c0 136 98 224 237 224h288v-91l-173 -201h8z
" />
    <glyph glyph-name="T" unicode="T" horiz-adv-x="619" 
d="M589 660v-92h-226v-568h-107v568h-226v92h559z" />
    <glyph glyph-name="Tcaron" unicode="&#x164;" horiz-adv-x="619" 
d="M364 733h-112l-113 167h89l80 -107l80 107h89zM589 660v-92h-226v-568h-107v568h-226v92h559z" />
    <glyph glyph-name="U" unicode="U" horiz-adv-x="718" 
d="M629 660v-407c0 -175 -95 -263 -270 -263s-270 88 -270 263v407h108v-394c0 -125 51 -183 162 -183s162 58 162 183v394h108z" />
    <glyph glyph-name="Uacute" unicode="&#xda;" horiz-adv-x="718" 
d="M364 888h114l-88 -151h-82zM629 660v-407c0 -175 -95 -263 -270 -263s-270 88 -270 263v407h108v-394c0 -125 51 -183 162 -183s162 58 162 183v394h108z" />
    <glyph glyph-name="Ucircumflex" unicode="&#xdb;" horiz-adv-x="718" 
d="M528 731h-89l-80 107l-80 -107h-89l113 167h112zM629 660v-407c0 -175 -95 -263 -270 -263s-270 88 -270 263v407h108v-394c0 -125 51 -183 162 -183s162 58 162 183v394h108z" />
    <glyph glyph-name="Udieresis" unicode="&#xdc;" horiz-adv-x="718" 
d="M257 860c40 0 66 -24 66 -63c0 -38 -26 -63 -66 -63c-39 0 -65 25 -65 63c0 39 26 63 65 63zM459 860c40 0 66 -24 66 -63c0 -38 -26 -63 -66 -63s-65 25 -65 63c0 39 25 63 65 63zM629 660v-407c0 -175 -95 -263 -270 -263s-270 88 -270 263v407h108v-394
c0 -125 51 -183 162 -183s162 58 162 183v394h108z" />
    <glyph glyph-name="Ugrave" unicode="&#xd9;" horiz-adv-x="718" 
d="M342 888l56 -151h-82l-88 151h114zM629 660v-407c0 -175 -95 -263 -270 -263s-270 88 -270 263v407h108v-394c0 -125 51 -183 162 -183s162 58 162 183v394h108z" />
    <glyph glyph-name="Uhungarumlaut" unicode="&#x170;" horiz-adv-x="718" 
d="M267 890h114l-88 -151h-82zM454 888h114l-88 -151h-82zM629 660v-407c0 -175 -95 -263 -270 -263s-270 88 -270 263v407h108v-394c0 -125 51 -183 162 -183s162 58 162 183v394h108z" />
    <glyph glyph-name="Umacron" unicode="&#x16a;" horiz-adv-x="718" 
d="M537 826v-78h-356v78h356zM629 660v-407c0 -175 -95 -263 -270 -263s-270 88 -270 263v407h108v-394c0 -125 51 -183 162 -183s162 58 162 183v394h108z" />
    <glyph glyph-name="Uogonek" unicode="&#x172;" horiz-adv-x="718" 
d="M521 660h108v-407c0 -144 -64 -229 -184 -255c-67 -32 -91 -63 -91 -94c0 -32 25 -50 61 -50c17 0 38 2 53 11l18 -61c-22 -13 -55 -19 -88 -19c-74 0 -125 40 -125 103c0 44 20 77 56 103c-155 9 -240 97 -240 262v407h108v-394c0 -125 51 -183 162 -183s162 58 162 183
v394z" />
    <glyph glyph-name="Uring" unicode="&#x16e;" horiz-adv-x="718" 
d="M360 895c77 0 128 -48 128 -119c0 -72 -51 -120 -128 -120c-78 0 -129 48 -129 120c0 71 51 119 129 119zM360 839c-38 0 -66 -26 -66 -63s28 -64 66 -64s65 27 65 64s-27 63 -65 63zM629 660v-407c0 -175 -95 -263 -270 -263s-270 88 -270 263v407h108v-394
c0 -125 51 -183 162 -183s162 58 162 183v394h108z" />
    <glyph glyph-name="V" unicode="V" horiz-adv-x="659" 
d="M637 660l-245 -660h-125l-245 660h114l154 -439l40 -131l40 130l154 440h113z" />
    <glyph glyph-name="W" unicode="W" horiz-adv-x="972" 
d="M453 396l-104 -396h-127l-194 660h116l144 -575l145 575h110l146 -576l145 576h110l-193 -660h-126l-105 396l-33 152h-1z" />
    <glyph glyph-name="X" unicode="X" horiz-adv-x="620" 
d="M595 0h-127l-162 257l-162 -257h-123l229 335l-211 325h127l152 -245l152 245h116l-213 -321z" />
    <glyph glyph-name="Y" unicode="Y" horiz-adv-x="597" 
d="M588 660l-236 -407v-253h-107v253l-235 407h119l118 -212l52 -99l52 99l117 212h120z" />
    <glyph glyph-name="Yacute" unicode="&#xdd;" horiz-adv-x="597" 
d="M304 888h114l-88 -151h-82zM588 660l-236 -407v-253h-107v253l-235 407h119l118 -212l52 -99l52 99l117 212h120z" />
    <glyph glyph-name="Ydieresis" unicode="&#x178;" horiz-adv-x="597" 
d="M197 860c40 0 66 -24 66 -63c0 -38 -26 -63 -66 -63c-39 0 -65 25 -65 63c0 39 26 63 65 63zM399 860c40 0 66 -24 66 -63c0 -38 -26 -63 -66 -63s-65 25 -65 63c0 39 25 63 65 63zM588 660l-236 -407v-253h-107v253l-235 407h119l118 -212l52 -99l52 99l117 212h120z
" />
    <glyph glyph-name="Z" unicode="Z" horiz-adv-x="631" 
d="M172 91h411v-91h-533v87l399 482h-390v91h512v-87z" />
    <glyph glyph-name="Zacute" unicode="&#x179;" horiz-adv-x="631" 
d="M430 888l-88 -151h-82l56 151h114zM172 91h411v-91h-533v87l399 482h-390v91h512v-87z" />
    <glyph glyph-name="Zcaron" unicode="&#x17d;" horiz-adv-x="631" 
d="M365 733h-112l-113 167h89l80 -107l80 107h89zM172 91h411v-91h-533v87l399 482h-390v91h512v-87z" />
    <glyph glyph-name="Zdotaccent" unicode="&#x17b;" horiz-adv-x="631" 
d="M310 746c-43 0 -69 25 -69 66s26 66 69 66s70 -25 70 -66s-27 -66 -70 -66zM172 91h411v-91h-533v87l399 482h-390v91h512v-87z" />
    <glyph glyph-name="uni0122" unicode="&#x122;" horiz-adv-x="724" 
d="M354 341h297v-341h-79l-3 84c-38 -59 -105 -94 -202 -94c-185 0 -306 128 -306 340c0 210 124 340 314 340c137 0 221 -49 272 -156l-98 -47c-26 73 -89 110 -172 110c-124 0 -204 -90 -204 -247c0 -158 71 -248 206 -248c100 0 177 50 177 152v19h-202v88zM300 -238
l40 167h104l-67 -167h-77z" />
    <glyph glyph-name="uni0136" unicode="&#x136;" horiz-adv-x="667" 
d="M389 390l256 -390h-126l-207 318l-107 -115v-203h-107v660h107v-328l303 328h131zM271 -238l40 167h104l-67 -167h-77z" />
    <glyph glyph-name="uni013B" unicode="&#x13b;" horiz-adv-x="599" 
d="M205 92h364v-92h-471v660h107v-568zM255 -238l40 167h104l-67 -167h-77z" />
    <glyph glyph-name="uni0145" unicode="&#x145;" horiz-adv-x="736" 
d="M639 660v-660h-127l-255 416l-64 122h-1l4 -112v-426h-98v660h126l254 -415l65 -123h1l-4 112v426h99zM437 -71l-67 -167h-77l40 167h104z" />
    <glyph glyph-name="uni0156" unicode="&#x156;" horiz-adv-x="672" 
d="M458 276l179 -276h-123l-168 264h-142v-264h-106v660h269c142 0 231 -74 231 -198c0 -95 -52 -160 -140 -186zM204 569v-216h154c87 0 129 35 129 108s-42 108 -129 108h-154zM265 -238l40 167h104l-67 -167h-77z" />
    <glyph glyph-name="uni015E" unicode="&#x15e;" horiz-adv-x="642" 
d="M590 183c0 -102 -78 -171 -199 -189c37 -27 56 -63 56 -99c0 -63 -48 -110 -124 -110c-52 0 -87 12 -115 37l33 62c16 -17 41 -30 70 -30c32 0 56 22 56 56s-16 56 -72 81c-126 7 -205 58 -252 133l75 75c43 -80 109 -116 208 -116c94 0 152 33 152 94
c0 47 -40 74 -164 97c-181 34 -248 89 -248 194c0 112 96 202 257 202c122 0 206 -44 264 -134l-81 -73c-37 79 -88 114 -182 114s-145 -42 -145 -98c0 -53 41 -81 169 -104c177 -31 242 -86 242 -192z" />
    <glyph glyph-name="uni0162" unicode="&#x162;" horiz-adv-x="619" 
d="M589 568h-226v-565c46 -29 65 -65 65 -107c0 -64 -50 -111 -125 -111c-52 0 -88 12 -116 37l35 63c16 -17 39 -30 69 -30c31 0 56 21 56 56c0 37 -23 57 -79 89h-12v568h-226v92h559v-92z" />
    <glyph glyph-name="uni0218" unicode="&#x218;" horiz-adv-x="642" 
d="M323 670c122 0 206 -44 264 -134l-81 -73c-37 79 -88 114 -182 114s-145 -42 -145 -98c0 -53 41 -81 169 -104c177 -31 242 -86 242 -192c0 -118 -107 -193 -263 -193c-144 0 -233 52 -284 134l75 75c43 -80 109 -116 208 -116c94 0 152 33 152 94c0 47 -40 74 -164 97
c-181 34 -248 89 -248 194c0 112 96 202 257 202zM400 -71l-67 -167h-77l40 167h104z" />
    <glyph glyph-name="uni021A" unicode="&#x21a;" horiz-adv-x="619" 
d="M589 660v-92h-226v-568h-107v568h-226v92h559zM220 -238l40 167h104l-67 -167h-77z" />
    <glyph glyph-name="E.swsh.001" horiz-adv-x="772" 
d="M626 350c79 -7 136 -70 136 -169c0 -120 -83 -181 -212 -181h-452v660h506v-92h-399v-197h214v-90h-214v-189h326c88 0 131 27 131 91c0 57 -30 88 -75 90z" />
    <glyph glyph-name="Eacute.swsh.001" horiz-adv-x="772" 
d="M475 888l-88 -151h-82l56 151h114zM626 350c79 -7 136 -70 136 -169c0 -120 -83 -181 -212 -181h-452v660h506v-92h-399v-197h214v-90h-214v-189h326c88 0 131 27 131 91c0 57 -30 88 -75 90z" />
    <glyph glyph-name="Ecaron.swsh.001" horiz-adv-x="772" 
d="M411 733h-112l-113 167h89l80 -107l80 107h89zM626 350c79 -7 136 -70 136 -169c0 -120 -83 -181 -212 -181h-452v660h506v-92h-399v-197h214v-90h-214v-189h326c88 0 131 27 131 91c0 57 -30 88 -75 90z" />
    <glyph glyph-name="Ecircumflex.swsh.001" horiz-adv-x="772" 
d="M356 838l-80 -107h-89l113 167h112l113 -167h-89zM626 350c79 -7 136 -70 136 -169c0 -120 -83 -181 -212 -181h-452v660h506v-92h-399v-197h214v-90h-214v-189h326c88 0 131 27 131 91c0 57 -30 88 -75 90z" />
    <glyph glyph-name="Edieresis.swsh.001" horiz-adv-x="772" 
d="M254 734c-39 0 -65 25 -65 63c0 39 26 63 65 63c40 0 66 -24 66 -63c0 -38 -26 -63 -66 -63zM456 734c-40 0 -65 25 -65 63c0 39 25 63 65 63s66 -24 66 -63c0 -38 -26 -63 -66 -63zM626 350c79 -7 136 -70 136 -169c0 -120 -83 -181 -212 -181h-452v660h506v-92h-399
v-197h214v-90h-214v-189h326c88 0 131 27 131 91c0 57 -30 88 -75 90z" />
    <glyph glyph-name="Edotaccent.swsh.001" horiz-adv-x="772" 
d="M356 746c-43 0 -69 25 -69 66s26 66 69 66s70 -25 70 -66s-27 -66 -70 -66zM626 350c79 -7 136 -70 136 -169c0 -120 -83 -181 -212 -181h-452v660h506v-92h-399v-197h214v-90h-214v-189h326c88 0 131 27 131 91c0 57 -30 88 -75 90z" />
    <glyph glyph-name="Egrave.swsh.001" horiz-adv-x="772" 
d="M395 737h-82l-88 151h114zM626 350c79 -7 136 -70 136 -169c0 -120 -83 -181 -212 -181h-452v660h506v-92h-399v-197h214v-90h-214v-189h326c88 0 131 27 131 91c0 57 -30 88 -75 90z" />
    <glyph glyph-name="Emacron.swsh.001" horiz-adv-x="772" 
d="M534 826v-78h-356v78h356zM626 350c79 -7 136 -70 136 -169c0 -120 -83 -181 -212 -181h-452v660h506v-92h-399v-197h214v-90h-214v-189h326c88 0 131 27 131 91c0 57 -30 88 -75 90z" />
    <glyph glyph-name="M.swsh.001" horiz-adv-x="1099" 
d="M844 660h157v-660h-99v382l8 182h-1l-201 -564h-90l-200 564h-2l8 -182v-382h-99v577h-82c-80 0 -131 -36 -131 -106c0 -56 43 -96 104 -106l-37 -79c-93 11 -169 81 -169 187c0 117 83 187 219 187h256l132 -382l47 -157h2l47 157z" />
    <glyph glyph-name="R.swsh.001" horiz-adv-x="702" 
d="M550 98c35 -47 101 -104 152 -119l-58 -68c-107 47 -142 88 -181 144l-146 209h-113v-264h-106v660h269c142 0 231 -74 231 -198c0 -105 -65 -175 -171 -193zM204 569v-216h154c87 0 129 35 129 108s-42 108 -129 108h-154z" />
    <glyph glyph-name="Racute.swsh.001" horiz-adv-x="702" 
d="M444 888l-88 -151h-82l56 151h114zM550 98c35 -47 101 -104 152 -119l-58 -68c-107 47 -142 88 -181 144l-146 209h-113v-264h-106v660h269c142 0 231 -74 231 -198c0 -105 -65 -175 -171 -193zM204 569v-216h154c87 0 129 35 129 108s-42 108 -129 108h-154z" />
    <glyph glyph-name="Rcaron.swsh.001" horiz-adv-x="702" 
d="M379 733h-112l-113 167h89l80 -107l80 107h89zM550 98c35 -47 101 -104 152 -119l-58 -68c-107 47 -142 88 -181 144l-146 209h-113v-264h-106v660h269c142 0 231 -74 231 -198c0 -105 -65 -175 -171 -193zM204 569v-216h154c87 0 129 35 129 108s-42 108 -129 108h-154z
" />
    <glyph glyph-name="Rcommaaccent.swsh.001" horiz-adv-x="702" 
d="M550 98c35 -47 101 -104 152 -119l-58 -68c-107 47 -142 88 -181 144l-146 209h-113v-264h-106v660h269c142 0 231 -74 231 -198c0 -105 -65 -175 -171 -193zM204 569v-216h154c87 0 129 35 129 108s-42 108 -129 108h-154zM265 -238l40 167h104l-67 -167h-77z" />
    <glyph glyph-name="Iacute_J.loclNLD" horiz-adv-x="885" 
d="M157 888h114l-88 -151h-82zM757 888h114l-88 -151h-82zM205 660v-660h-107v660h107zM796 660v-426c0 -153 -89 -244 -240 -244c-163 0 -236 96 -209 241l102 19c-15 -115 15 -167 107 -167c101 0 133 58 133 171v406h107z" />
    <glyph glyph-name="R.ss03" horiz-adv-x="664" 
d="M98 0v660h269c142 0 231 -74 231 -196c0 -90 -50 -146 -136 -168v-2c75 -14 109 -61 113 -128c8 -111 18 -138 33 -163v-3h-114c-12 27 -18 67 -25 155c-5 73 -47 109 -141 109h-124v-264h-106zM204 353h154c87 0 129 35 129 108s-42 108 -129 108h-154v-216z" />
    <glyph glyph-name="Racute.ss03" horiz-adv-x="664" 
d="M330 888h114l-88 -151h-82zM98 0v660h269c142 0 231 -74 231 -196c0 -90 -50 -146 -136 -168v-2c75 -14 109 -61 113 -128c8 -111 18 -138 33 -163v-3h-114c-12 27 -18 67 -25 155c-5 73 -47 109 -141 109h-124v-264h-106zM204 353h154c87 0 129 35 129 108
s-42 108 -129 108h-154v-216z" />
    <glyph glyph-name="Rcaron.ss03" horiz-adv-x="664" 
d="M492 900l-113 -167h-112l-113 167h89l80 -107l80 107h89zM98 0v660h269c142 0 231 -74 231 -196c0 -90 -50 -146 -136 -168v-2c75 -14 109 -61 113 -128c8 -111 18 -138 33 -163v-3h-114c-12 27 -18 67 -25 155c-5 73 -47 109 -141 109h-124v-264h-106zM204 353h154
c87 0 129 35 129 108s-42 108 -129 108h-154v-216z" />
    <glyph glyph-name="Rcommaaccent.ss03" horiz-adv-x="664" 
d="M98 0v660h269c142 0 231 -74 231 -196c0 -90 -50 -146 -136 -168v-2c75 -14 109 -61 113 -128c8 -111 18 -138 33 -163v-3h-114c-12 27 -18 67 -25 155c-5 73 -47 109 -141 109h-124v-264h-106zM204 353h154c87 0 129 35 129 108s-42 108 -129 108h-154v-216zM409 -71
l-67 -167h-77l40 167h104z" />
    <glyph glyph-name="G.ss04" horiz-adv-x="724" 
d="M364 340h299v-67c0 -177 -105 -283 -290 -283c-190 0 -312 128 -312 340c0 210 124 340 314 340c137 0 220 -49 272 -156l-99 -47c-25 73 -87 110 -173 110c-121 0 -202 -90 -202 -247c0 -159 72 -247 209 -247c134 0 184 90 184 165v7h-202v85z" />
    <glyph glyph-name="Gbreve.ss04" horiz-adv-x="724" 
d="M371 730c-93 0 -154 61 -154 153h79c0 -45 31 -82 75 -82s75 37 75 82h79c0 -92 -61 -153 -154 -153zM364 340h299v-67c0 -177 -105 -283 -290 -283c-190 0 -312 128 -312 340c0 210 124 340 314 340c137 0 220 -49 272 -156l-99 -47c-25 73 -87 110 -173 110
c-121 0 -202 -90 -202 -247c0 -159 72 -247 209 -247c134 0 184 90 184 165v7h-202v85z" />
    <glyph glyph-name="Gcommaaccent.ss04" horiz-adv-x="724" 
d="M364 340h299v-67c0 -177 -105 -283 -290 -283c-190 0 -312 128 -312 340c0 210 124 340 314 340c137 0 220 -49 272 -156l-99 -47c-25 73 -87 110 -173 110c-121 0 -202 -90 -202 -247c0 -159 72 -247 209 -247c134 0 184 90 184 165v7h-202v85zM301 -238l40 167h104
l-67 -167h-77z" />
    <glyph glyph-name="IJ.ss05" horiz-adv-x="642" 
d="M553 660v-426c0 -153 -92 -244 -235 -244c-153 0 -233 75 -217 211h105c-13 -81 33 -118 113 -118s126 56 126 166v411h108zM205 660v-372h-107v372h107z" />
    <glyph glyph-name="Iacute_J.loclNLD.ss05" horiz-adv-x="633" 
d="M148 888h114l-87 -151h-83zM505 888h114l-87 -151h-83zM544 660v-426c0 -153 -91 -244 -234 -244c-153 0 -234 75 -218 211h106c-14 -81 32 -118 113 -118c79 0 126 56 126 166v411h107zM197 660v-372h-108v372h108z" />
    <glyph glyph-name="A.swsh" horiz-adv-x="879" 
d="M747 0l-63 173h-280l-45 -120c-37 -107 -99 -163 -214 -163c-101 0 -164 44 -174 120l58 63c15 -78 51 -96 112 -96c66 0 94 30 133 133l177 467h-131c-80 0 -131 -36 -131 -106c0 -56 43 -96 104 -106l-36 -79c-94 11 -170 81 -170 187c0 117 83 187 220 187h304
l248 -660h-112zM436 260h217l-77 212l-30 95h-2l-29 -93z" />
    <glyph glyph-name="Aacute.swsh" horiz-adv-x="879" 
d="M666 888l-88 -151h-82l56 151h114zM747 0l-63 173h-280l-45 -120c-37 -107 -99 -163 -214 -163c-101 0 -164 44 -174 120l58 63c15 -78 51 -96 112 -96c66 0 94 30 133 133l177 467h-131c-80 0 -131 -36 -131 -106c0 -56 43 -96 104 -106l-36 -79
c-94 11 -170 81 -170 187c0 117 83 187 220 187h304l248 -660h-112zM436 260h217l-77 212l-30 95h-2l-29 -93z" />
    <glyph glyph-name="Abreve.swsh" horiz-adv-x="879" 
d="M546 730c-93 0 -154 61 -154 153h79c0 -45 31 -82 75 -82s75 37 75 82h79c0 -92 -61 -153 -154 -153zM747 0l-63 173h-280l-45 -120c-37 -107 -99 -163 -214 -163c-101 0 -164 44 -174 120l58 63c15 -78 51 -96 112 -96c66 0 94 30 133 133l177 467h-131
c-80 0 -131 -36 -131 -106c0 -56 43 -96 104 -106l-36 -79c-94 11 -170 81 -170 187c0 117 83 187 220 187h304l248 -660h-112zM436 260h217l-77 212l-30 95h-2l-29 -93z" />
    <glyph glyph-name="Acircumflex.swsh" horiz-adv-x="879" 
d="M546 838l-80 -107h-89l113 167h112l113 -167h-89zM747 0l-63 173h-280l-45 -120c-37 -107 -99 -163 -214 -163c-101 0 -164 44 -174 120l58 63c15 -78 51 -96 112 -96c66 0 94 30 133 133l177 467h-131c-80 0 -131 -36 -131 -106c0 -56 43 -96 104 -106l-36 -79
c-94 11 -170 81 -170 187c0 117 83 187 220 187h304l248 -660h-112zM436 260h217l-77 212l-30 95h-2l-29 -93z" />
    <glyph glyph-name="Adieresis.swsh" horiz-adv-x="879" 
d="M445 734c-39 0 -65 25 -65 63c0 39 26 63 65 63c40 0 66 -24 66 -63c0 -38 -26 -63 -66 -63zM647 734c-40 0 -65 25 -65 63c0 39 25 63 65 63s66 -24 66 -63c0 -38 -26 -63 -66 -63zM747 0l-63 173h-280l-45 -120c-37 -107 -99 -163 -214 -163c-101 0 -164 44 -174 120
l58 63c15 -78 51 -96 112 -96c66 0 94 30 133 133l177 467h-131c-80 0 -131 -36 -131 -106c0 -56 43 -96 104 -106l-36 -79c-94 11 -170 81 -170 187c0 117 83 187 220 187h304l248 -660h-112zM436 260h217l-77 212l-30 95h-2l-29 -93z" />
    <glyph glyph-name="Agrave.swsh" horiz-adv-x="879" 
d="M585 737h-82l-88 151h114zM747 0l-63 173h-280l-45 -120c-37 -107 -99 -163 -214 -163c-101 0 -164 44 -174 120l58 63c15 -78 51 -96 112 -96c66 0 94 30 133 133l177 467h-131c-80 0 -131 -36 -131 -106c0 -56 43 -96 104 -106l-36 -79c-94 11 -170 81 -170 187
c0 117 83 187 220 187h304l248 -660h-112zM436 260h217l-77 212l-30 95h-2l-29 -93z" />
    <glyph glyph-name="Amacron.swsh" horiz-adv-x="879" 
d="M724 826v-78h-356v78h356zM747 0l-63 173h-280l-45 -120c-37 -107 -99 -163 -214 -163c-101 0 -164 44 -174 120l58 63c15 -78 51 -96 112 -96c66 0 94 30 133 133l177 467h-131c-80 0 -131 -36 -131 -106c0 -56 43 -96 104 -106l-36 -79c-94 11 -170 81 -170 187
c0 117 83 187 220 187h304l248 -660h-112zM436 260h217l-77 212l-30 95h-2l-29 -93z" />
    <glyph glyph-name="Aogonek.swsh" horiz-adv-x="879" 
d="M852 -134l18 -61c-22 -14 -56 -20 -89 -20c-74 0 -125 37 -125 107c0 52 29 91 87 117l-59 164h-280l-45 -120c-37 -107 -99 -163 -214 -163c-101 0 -164 44 -174 120l58 63c15 -78 51 -96 112 -96c66 0 94 30 133 133l177 467h-131c-80 0 -131 -36 -131 -106
c0 -56 43 -96 104 -106l-36 -79c-94 11 -170 81 -170 187c0 117 83 187 220 187h304l248 -660c-98 -28 -122 -60 -122 -97c0 -31 24 -49 62 -49c16 0 38 2 53 12zM436 260h217l-77 212l-30 95h-2l-29 -93z" />
    <glyph glyph-name="Atilde.swsh" horiz-adv-x="879" 
d="M477 801c-27 0 -39 -24 -45 -66h-73c6 94 44 142 119 142c74 0 94 -65 134 -65c28 0 40 24 46 65h73c-6 -93 -45 -141 -118 -141c-76 0 -94 65 -136 65zM747 0l-63 173h-280l-45 -120c-37 -107 -99 -163 -214 -163c-101 0 -164 44 -174 120l58 63c15 -78 51 -96 112 -96
c66 0 94 30 133 133l177 467h-131c-80 0 -131 -36 -131 -106c0 -56 43 -96 104 -106l-36 -79c-94 11 -170 81 -170 187c0 117 83 187 220 187h304l248 -660h-112zM436 260h217l-77 212l-30 95h-2l-29 -93z" />
    <glyph glyph-name="E.swsh" horiz-adv-x="868" 
d="M437 92h385v-92h-492v577h-87c-80 0 -131 -36 -131 -106c0 -56 43 -96 104 -106l-37 -79c-93 11 -169 81 -169 187c0 117 83 187 219 187h579v-92h-371v-190h290v-90h-290v-196z" />
    <glyph glyph-name="Eacute.swsh" horiz-adv-x="868" 
d="M686 888l-88 -151h-82l56 151h114zM437 92h385v-92h-492v577h-87c-80 0 -131 -36 -131 -106c0 -56 43 -96 104 -106l-37 -79c-93 11 -169 81 -169 187c0 117 83 187 219 187h579v-92h-371v-190h290v-90h-290v-196z" />
    <glyph glyph-name="Ecaron.swsh" horiz-adv-x="868" 
d="M621 733h-112l-113 167h89l80 -107l80 107h89zM437 92h385v-92h-492v577h-87c-80 0 -131 -36 -131 -106c0 -56 43 -96 104 -106l-37 -79c-93 11 -169 81 -169 187c0 117 83 187 219 187h579v-92h-371v-190h290v-90h-290v-196z" />
    <glyph glyph-name="Ecircumflex.swsh" horiz-adv-x="868" 
d="M566 838l-80 -107h-89l113 167h112l113 -167h-89zM437 92h385v-92h-492v577h-87c-80 0 -131 -36 -131 -106c0 -56 43 -96 104 -106l-37 -79c-93 11 -169 81 -169 187c0 117 83 187 219 187h579v-92h-371v-190h290v-90h-290v-196z" />
    <glyph glyph-name="Edieresis.swsh" horiz-adv-x="868" 
d="M465 734c-39 0 -65 25 -65 63c0 39 26 63 65 63c40 0 66 -24 66 -63c0 -38 -26 -63 -66 -63zM667 734c-40 0 -65 25 -65 63c0 39 25 63 65 63s66 -24 66 -63c0 -38 -26 -63 -66 -63zM437 92h385v-92h-492v577h-87c-80 0 -131 -36 -131 -106c0 -56 43 -96 104 -106
l-37 -79c-93 11 -169 81 -169 187c0 117 83 187 219 187h579v-92h-371v-190h290v-90h-290v-196z" />
    <glyph glyph-name="Edotaccent.swsh" horiz-adv-x="868" 
d="M566 746c-43 0 -69 25 -69 66s26 66 69 66s70 -25 70 -66s-27 -66 -70 -66zM437 92h385v-92h-492v577h-87c-80 0 -131 -36 -131 -106c0 -56 43 -96 104 -106l-37 -79c-93 11 -169 81 -169 187c0 117 83 187 219 187h579v-92h-371v-190h290v-90h-290v-196z" />
    <glyph glyph-name="Egrave.swsh" horiz-adv-x="868" 
d="M605 737h-82l-88 151h114zM437 92h385v-92h-492v577h-87c-80 0 -131 -36 -131 -106c0 -56 43 -96 104 -106l-37 -79c-93 11 -169 81 -169 187c0 117 83 187 219 187h579v-92h-371v-190h290v-90h-290v-196z" />
    <glyph glyph-name="Emacron.swsh" horiz-adv-x="868" 
d="M744 826v-78h-356v78h356zM437 92h385v-92h-492v577h-87c-80 0 -131 -36 -131 -106c0 -56 43 -96 104 -106l-37 -79c-93 11 -169 81 -169 187c0 117 83 187 219 187h579v-92h-371v-190h290v-90h-290v-196z" />
    <glyph glyph-name="Eogonek.swsh" horiz-adv-x="868" 
d="M815 -134l18 -61c-21 -14 -56 -20 -89 -20c-74 0 -125 37 -125 102c0 54 31 89 86 113h-375v577h-87c-80 0 -131 -36 -131 -106c0 -56 43 -96 104 -106l-37 -79c-93 11 -169 81 -169 187c0 117 83 187 219 187h579v-92h-371v-190h290v-90h-290v-196h385v-91l1 -1
c-99 -29 -123 -60 -123 -97c0 -31 24 -49 62 -49c16 0 38 2 53 12z" />
    <glyph glyph-name="F.swsh" horiz-adv-x="838" 
d="M803 568h-370v-191h290v-93h-290v-284h-108v577h-82c-80 0 -131 -36 -131 -106c0 -56 43 -96 104 -106l-37 -79c-93 11 -169 81 -169 187c0 117 83 187 219 187h574v-92z" />
    <glyph glyph-name="L.swsh" horiz-adv-x="655" 
d="M478 364c102 -3 167 -73 167 -177c0 -125 -83 -187 -219 -187h-328v660h107v-568h207c82 0 133 25 133 97c0 64 -41 96 -104 98z" />
    <glyph glyph-name="Lacute.swsh" horiz-adv-x="655" 
d="M271 888l-88 -151h-82l56 151h114zM478 364c102 -3 167 -73 167 -177c0 -125 -83 -187 -219 -187h-328v660h107v-568h207c82 0 133 25 133 97c0 64 -41 96 -104 98z" />
    <glyph glyph-name="Lcaron.swsh" horiz-adv-x="655" 
d="M319 900l-113 -167h-112l-113 167h89l80 -107l80 107h89zM478 364c102 -3 167 -73 167 -177c0 -125 -83 -187 -219 -187h-328v660h107v-568h207c82 0 133 25 133 97c0 64 -41 96 -104 98z" />
    <glyph glyph-name="Lcommaaccent.swsh" horiz-adv-x="655" 
d="M478 364c102 -3 167 -73 167 -177c0 -125 -83 -187 -219 -187h-328v660h107v-568h207c82 0 133 25 133 97c0 64 -41 96 -104 98zM275 -238l40 167h104l-67 -167h-77z" />
    <glyph glyph-name="Lslash.swsh" horiz-adv-x="689" 
d="M511 364c102 -3 168 -73 168 -177c0 -125 -83 -187 -220 -187h-328v243l-106 -56v96l106 56v321h108v-264l175 93v-96l-175 -92v-209h206c82 0 133 25 133 97c0 64 -41 96 -104 98z" />
    <glyph glyph-name="M.swsh" horiz-adv-x="1099" 
d="M844 660h157v-660h-99v382l8 182h-1l-201 -564h-90l-200 564h-2l8 -182v-303c0 -109 -72 -189 -203 -189c-105 0 -161 46 -179 122l60 62c14 -68 46 -98 113 -98c70 0 110 49 110 120v481h-82c-80 0 -131 -36 -131 -106c0 -56 43 -96 104 -106l-37 -79
c-93 11 -169 81 -169 187c0 117 83 187 219 187h256l132 -382l47 -157h2l47 157z" />
    <glyph glyph-name="N.swsh" horiz-adv-x="885" 
d="M744 732c105 0 160 -47 179 -120l-61 -61c-15 67 -45 95 -112 95c-70 0 -111 -50 -111 -125v-521h-127l-255 416l-64 122h-1l4 -112v-426h-98v660h126l254 -415l65 -123h1l-4 112v309c0 109 73 189 204 189z" />
    <glyph glyph-name="Nacute.swsh" horiz-adv-x="885" 
d="M491 888l-88 -151h-82l56 151h114zM744 732c105 0 160 -47 179 -120l-61 -61c-15 67 -45 95 -112 95c-70 0 -111 -50 -111 -125v-521h-127l-255 416l-64 122h-1l4 -112v-426h-98v660h126l254 -415l65 -123h1l-4 112v309c0 109 73 189 204 189z" />
    <glyph glyph-name="Ncaron.swsh" horiz-adv-x="885" 
d="M426 733h-112l-113 167h89l80 -107l80 107h89zM744 732c105 0 160 -47 179 -120l-61 -61c-15 67 -45 95 -112 95c-70 0 -111 -50 -111 -125v-521h-127l-255 416l-64 122h-1l4 -112v-426h-98v660h126l254 -415l65 -123h1l-4 112v309c0 109 73 189 204 189z" />
    <glyph glyph-name="Ncommaaccent.swsh" horiz-adv-x="885" 
d="M744 732c105 0 160 -47 179 -120l-61 -61c-15 67 -45 95 -112 95c-70 0 -111 -50 -111 -125v-521h-127l-255 416l-64 122h-1l4 -112v-426h-98v660h126l254 -415l65 -123h1l-4 112v309c0 109 73 189 204 189zM293 -238l40 167h104l-67 -167h-77z" />
    <glyph glyph-name="Ntilde.swsh" horiz-adv-x="885" 
d="M303 801c-27 0 -39 -24 -45 -66h-73c6 94 44 142 119 142c74 0 94 -65 134 -65c28 0 40 24 46 65h73c-6 -93 -45 -141 -118 -141c-76 0 -94 65 -136 65zM744 732c105 0 160 -47 179 -120l-61 -61c-15 67 -45 95 -112 95c-70 0 -111 -50 -111 -125v-521h-127l-255 416
l-64 122h-1l4 -112v-426h-98v660h126l254 -415l65 -123h1l-4 112v309c0 109 73 189 204 189z" />
    <glyph glyph-name="R.swsh" horiz-adv-x="900" 
d="M742 0l-168 264h-142v-183c0 -111 -75 -191 -209 -191c-106 0 -163 47 -181 124l62 60c15 -69 46 -98 113 -98c68 0 108 50 108 122v479h-82c-80 0 -131 -36 -131 -106c0 -56 43 -96 104 -106l-37 -79c-93 11 -169 81 -169 187c0 117 83 187 219 187h366
c141 0 231 -74 231 -198c0 -95 -53 -160 -141 -186l180 -276h-123zM432 569v-216h153c88 0 130 35 130 108s-42 108 -130 108h-153z" />
    <glyph glyph-name="Racute.swsh" horiz-adv-x="900" 
d="M671 888l-88 -151h-82l56 151h114zM742 0l-168 264h-142v-183c0 -111 -75 -191 -209 -191c-106 0 -163 47 -181 124l62 60c15 -69 46 -98 113 -98c68 0 108 50 108 122v479h-82c-80 0 -131 -36 -131 -106c0 -56 43 -96 104 -106l-37 -79c-93 11 -169 81 -169 187
c0 117 83 187 219 187h366c141 0 231 -74 231 -198c0 -95 -53 -160 -141 -186l180 -276h-123zM432 569v-216h153c88 0 130 35 130 108s-42 108 -130 108h-153z" />
    <glyph glyph-name="Rcaron.swsh" horiz-adv-x="900" 
d="M607 733h-112l-113 167h89l80 -107l80 107h89zM742 0l-168 264h-142v-183c0 -111 -75 -191 -209 -191c-106 0 -163 47 -181 124l62 60c15 -69 46 -98 113 -98c68 0 108 50 108 122v479h-82c-80 0 -131 -36 -131 -106c0 -56 43 -96 104 -106l-37 -79
c-93 11 -169 81 -169 187c0 117 83 187 219 187h366c141 0 231 -74 231 -198c0 -95 -53 -160 -141 -186l180 -276h-123zM432 569v-216h153c88 0 130 35 130 108s-42 108 -130 108h-153z" />
    <glyph glyph-name="Rcommaaccent.swsh" horiz-adv-x="900" 
d="M685 276l180 -276h-123l-168 264h-142v-183c0 -111 -75 -191 -209 -191c-106 0 -163 47 -181 124l62 60c15 -69 46 -98 113 -98c68 0 108 50 108 122v479h-82c-80 0 -131 -36 -131 -106c0 -56 43 -96 104 -106l-37 -79c-93 11 -169 81 -169 187c0 117 83 187 219 187h366
c141 0 231 -74 231 -198c0 -95 -53 -160 -141 -186zM432 569v-216h153c88 0 130 35 130 108s-42 108 -130 108h-153zM493 -238l40 167h104l-67 -167h-77z" />
    <glyph glyph-name="S.swsh" horiz-adv-x="642" 
d="M322 -110c-168 0 -264 67 -264 183c0 15 1 29 3 42l98 28c-2 -15 -4 -27 -4 -40c0 -81 55 -120 173 -120c105 0 158 44 158 123c0 59 -40 93 -174 126c-177 42 -242 105 -242 215c0 134 100 223 261 223c153 0 238 -64 249 -191l-101 -40c-3 96 -46 138 -148 138
c-95 0 -149 -45 -149 -123c0 -65 43 -100 179 -135c172 -44 232 -99 232 -208c0 -135 -108 -221 -271 -221z" />
    <glyph glyph-name="Sacute.swsh" horiz-adv-x="642" 
d="M332 888h114l-88 -151h-82zM322 -110c-168 0 -264 67 -264 183c0 15 1 29 3 42l98 28c-2 -15 -4 -27 -4 -40c0 -81 55 -120 173 -120c105 0 158 44 158 123c0 59 -40 93 -174 126c-177 42 -242 105 -242 215c0 134 100 223 261 223c153 0 238 -64 249 -191l-101 -40
c-3 96 -46 138 -148 138c-95 0 -149 -45 -149 -123c0 -65 43 -100 179 -135c172 -44 232 -99 232 -208c0 -135 -108 -221 -271 -221z" />
    <glyph glyph-name="Scaron.swsh" horiz-adv-x="642" 
d="M495 900l-113 -167h-112l-113 167h89l80 -107l80 107h89zM322 -110c-168 0 -264 67 -264 183c0 15 1 29 3 42l98 28c-2 -15 -4 -27 -4 -40c0 -81 55 -120 173 -120c105 0 158 44 158 123c0 59 -40 93 -174 126c-177 42 -242 105 -242 215c0 134 100 223 261 223
c153 0 238 -64 249 -191l-101 -40c-3 96 -46 138 -148 138c-95 0 -149 -45 -149 -123c0 -65 43 -100 179 -135c172 -44 232 -99 232 -208c0 -135 -108 -221 -271 -221z" />
    <glyph glyph-name="Scedilla.swsh" horiz-adv-x="642" 
d="M593 111c0 -122 -88 -204 -224 -219c35 -26 53 -62 53 -97c0 -63 -48 -110 -124 -110c-52 0 -87 12 -115 37l33 62c16 -17 41 -30 70 -30c32 0 56 22 56 56c0 35 -17 57 -76 83c-133 13 -208 78 -208 180c0 15 1 29 3 42l98 28c-2 -15 -4 -27 -4 -40
c0 -81 55 -120 173 -120c105 0 158 44 158 123c0 59 -40 93 -174 126c-177 42 -242 105 -242 215c0 134 100 223 261 223c153 0 238 -64 249 -191l-101 -40c-3 96 -46 138 -148 138c-95 0 -149 -45 -149 -123c0 -65 43 -100 179 -135c172 -44 232 -99 232 -208z" />
    <glyph glyph-name="Scommaaccent.swsh" horiz-adv-x="642" 
d="M322 -110c-168 0 -264 67 -264 183c0 15 1 29 3 42l98 28c-2 -15 -4 -27 -4 -40c0 -81 55 -120 173 -120c105 0 158 44 158 123c0 59 -40 93 -174 126c-177 42 -242 105 -242 215c0 134 100 223 261 223c153 0 238 -64 249 -191l-101 -40c-3 96 -46 138 -148 138
c-95 0 -149 -45 -149 -123c0 -65 43 -100 179 -135c172 -44 232 -99 232 -208c0 -135 -108 -221 -271 -221zM375 -171l-67 -167h-77l40 167h104z" />
    <glyph glyph-name="T.swsh" horiz-adv-x="733" 
d="M704 660v-92h-226v-568h-108v568h-125c-82 0 -133 -28 -133 -97c0 -56 41 -96 104 -106l-37 -79c-93 11 -169 82 -169 187c0 117 83 187 219 187h475z" />
    <glyph glyph-name="Tcaron.swsh" horiz-adv-x="733" 
d="M479 733h-112l-113 167h89l80 -107l80 107h89zM704 660v-92h-226v-568h-108v568h-125c-82 0 -133 -28 -133 -97c0 -56 41 -96 104 -106l-37 -79c-93 11 -169 82 -169 187c0 117 83 187 219 187h475z" />
    <glyph glyph-name="uni0162.swsh" horiz-adv-x="733" 
d="M704 568h-226v-565c45 -29 64 -65 64 -107c0 -64 -50 -111 -125 -111c-51 0 -88 12 -115 37l35 63c16 -17 39 -30 68 -30c32 0 57 21 57 56c0 37 -23 57 -79 89h-13v568h-125c-82 0 -133 -28 -133 -97c0 -56 41 -96 104 -106l-37 -79c-93 11 -169 82 -169 187
c0 117 83 187 219 187h475v-92z" />
    <glyph glyph-name="uni021A.swsh" horiz-adv-x="733" 
d="M704 660v-92h-226v-568h-108v568h-125c-82 0 -133 -28 -133 -97c0 -56 41 -96 104 -106l-37 -79c-93 11 -169 82 -169 187c0 117 83 187 219 187h475zM335 -238l40 167h104l-67 -167h-77z" />
    <glyph glyph-name="W.swsh" horiz-adv-x="1239" 
d="M1101 660h110l-193 -660h-126l-105 396l-33 152h-1l-33 -152l-104 -396h-127l-170 577h-75c-82 0 -132 -36 -132 -106c0 -56 42 -96 105 -106l-38 -79c-92 10 -169 81 -169 187c0 117 83 187 219 187h182l144 -575l145 575h110l146 -576z" />
    <glyph glyph-name="Adieresis.titl" horiz-adv-x="665" 
d="M148 550c-34 0 -56 22 -56 57c0 33 22 55 56 55c36 0 59 -22 59 -55c0 -35 -23 -57 -59 -57zM517 550c-35 0 -57 22 -57 57c0 33 22 55 57 55s58 -22 58 -55c0 -35 -23 -57 -58 -57zM533 0l-62 173h-279l-62 -173h-111l250 660h128l248 -660h-112zM224 260h215l-77 212
l-30 95h-2l-28 -93z" />
    <glyph glyph-name="Odieresis.titl" horiz-adv-x="745" 
d="M372 670c192 0 311 -130 311 -340s-119 -340 -311 -340s-311 130 -311 340s119 340 311 340zM83 662c35 0 58 -22 58 -56c0 -33 -23 -56 -58 -56c-34 0 -57 23 -57 56c0 34 23 56 57 56zM662 662c34 0 57 -22 57 -55c0 -35 -23 -57 -57 -57c-35 0 -58 22 -58 57
c0 33 23 55 58 55zM373 577c-125 0 -200 -90 -200 -247s75 -247 200 -247c124 0 199 90 199 247s-75 247 -199 247z" />
    <glyph glyph-name="Udieresis.titl" horiz-adv-x="718" 
d="M284 550c-34 0 -57 23 -57 57c0 33 23 55 57 55c35 0 58 -22 58 -55c0 -34 -23 -57 -58 -57zM434 550c-34 0 -57 23 -57 57c0 33 23 55 57 55c35 0 58 -22 58 -55c0 -34 -23 -57 -58 -57zM629 660v-407c0 -175 -95 -263 -270 -263s-270 88 -270 263v407h108v-394
c0 -125 51 -183 162 -183s162 58 162 183v394h108z" />
    <glyph glyph-name="a" unicode="a" horiz-adv-x="570" 
d="M515 70c13 0 26 1 37 4l-7 -72c-16 -7 -37 -12 -62 -12c-55 0 -91 19 -102 74c-31 -47 -95 -74 -169 -74c-94 0 -163 44 -163 131c0 77 64 134 195 157l127 22v27c0 60 -37 99 -102 99c-62 0 -108 -27 -129 -90l-83 44c24 79 101 130 210 130c125 0 211 -57 211 -177
v-226c0 -25 10 -37 37 -37zM235 71c67 0 136 35 136 95v60l-109 -22c-68 -13 -102 -36 -102 -76c0 -37 28 -57 75 -57z" />
    <glyph glyph-name="aacute" unicode="&#xe1;" horiz-adv-x="570" 
d="M400 746l-99 -168h-82l73 168h108zM515 70c13 0 26 1 37 4l-7 -72c-16 -7 -37 -12 -62 -12c-55 0 -91 19 -102 74c-31 -47 -95 -74 -169 -74c-94 0 -163 44 -163 131c0 77 64 134 195 157l127 22v27c0 60 -37 99 -102 99c-62 0 -108 -27 -129 -90l-83 44
c24 79 101 130 210 130c125 0 211 -57 211 -177v-226c0 -25 10 -37 37 -37zM235 71c67 0 136 35 136 95v60l-109 -22c-68 -13 -102 -36 -102 -76c0 -37 28 -57 75 -57z" />
    <glyph glyph-name="abreve" unicode="&#x103;" horiz-adv-x="570" 
d="M276 570c-93 0 -154 61 -154 153h79c0 -45 31 -82 75 -82s75 37 75 82h79c0 -92 -61 -153 -154 -153zM515 70c13 0 26 1 37 4l-7 -72c-16 -7 -37 -12 -62 -12c-55 0 -91 19 -102 74c-31 -47 -95 -74 -169 -74c-94 0 -163 44 -163 131c0 77 64 134 195 157l127 22v27
c0 60 -37 99 -102 99c-62 0 -108 -27 -129 -90l-83 44c24 79 101 130 210 130c125 0 211 -57 211 -177v-226c0 -25 10 -37 37 -37zM235 71c67 0 136 35 136 95v60l-109 -22c-68 -13 -102 -36 -102 -76c0 -37 28 -57 75 -57z" />
    <glyph glyph-name="acircumflex" unicode="&#xe2;" horiz-adv-x="570" 
d="M276 674l-80 -103h-88l111 168h114l111 -168h-88zM515 70c13 0 26 1 37 4l-7 -72c-16 -7 -37 -12 -62 -12c-55 0 -91 19 -102 74c-31 -47 -95 -74 -169 -74c-94 0 -163 44 -163 131c0 77 64 134 195 157l127 22v27c0 60 -37 99 -102 99c-62 0 -108 -27 -129 -90l-83 44
c24 79 101 130 210 130c125 0 211 -57 211 -177v-226c0 -25 10 -37 37 -37zM235 71c67 0 136 35 136 95v60l-109 -22c-68 -13 -102 -36 -102 -76c0 -37 28 -57 75 -57z" />
    <glyph glyph-name="adieresis" unicode="&#xe4;" horiz-adv-x="570" 
d="M175 574c-39 0 -65 25 -65 63c0 39 26 63 65 63c40 0 66 -24 66 -63c0 -38 -26 -63 -66 -63zM377 574c-40 0 -65 25 -65 63c0 39 25 63 65 63s66 -24 66 -63c0 -38 -26 -63 -66 -63zM515 70c13 0 26 1 37 4l-7 -72c-16 -7 -37 -12 -62 -12c-55 0 -91 19 -102 74
c-31 -47 -95 -74 -169 -74c-94 0 -163 44 -163 131c0 77 64 134 195 157l127 22v27c0 60 -37 99 -102 99c-62 0 -108 -27 -129 -90l-83 44c24 79 101 130 210 130c125 0 211 -57 211 -177v-226c0 -25 10 -37 37 -37zM235 71c67 0 136 35 136 95v60l-109 -22
c-68 -13 -102 -36 -102 -76c0 -37 28 -57 75 -57z" />
    <glyph glyph-name="agrave" unicode="&#xe0;" horiz-adv-x="570" 
d="M325 578h-82l-99 168h108zM515 70c13 0 26 1 37 4l-7 -72c-16 -7 -37 -12 -62 -12c-55 0 -91 19 -102 74c-31 -47 -95 -74 -169 -74c-94 0 -163 44 -163 131c0 77 64 134 195 157l127 22v27c0 60 -37 99 -102 99c-62 0 -108 -27 -129 -90l-83 44c24 79 101 130 210 130
c125 0 211 -57 211 -177v-226c0 -25 10 -37 37 -37zM235 71c67 0 136 35 136 95v60l-109 -22c-68 -13 -102 -36 -102 -76c0 -37 28 -57 75 -57z" />
    <glyph glyph-name="amacron" unicode="&#x101;" horiz-adv-x="570" 
d="M454 666v-78h-356v78h356zM515 70c13 0 26 1 37 4l-7 -72c-16 -7 -37 -12 -62 -12c-55 0 -91 19 -102 74c-31 -47 -95 -74 -169 -74c-94 0 -163 44 -163 131c0 77 64 134 195 157l127 22v27c0 60 -37 99 -102 99c-62 0 -108 -27 -129 -90l-83 44c24 79 101 130 210 130
c125 0 211 -57 211 -177v-226c0 -25 10 -37 37 -37zM235 71c67 0 136 35 136 95v60l-109 -22c-68 -13 -102 -36 -102 -76c0 -37 28 -57 75 -57z" />
    <glyph glyph-name="aogonek" unicode="&#x105;" horiz-adv-x="570" 
d="M481 -147c17 0 38 2 53 12l18 -61c-22 -13 -52 -19 -85 -19c-74 0 -123 38 -123 101c0 56 34 94 93 121c-24 11 -43 31 -52 65c-28 -52 -95 -82 -173 -82c-94 0 -163 44 -163 131c0 77 64 134 195 157l127 22v27c0 60 -37 99 -102 99c-62 0 -108 -27 -129 -90l-83 44
c24 79 101 130 210 130c125 0 211 -57 211 -177v-226c0 -25 10 -37 37 -37c13 0 26 1 37 4l-7 -72c-92 -26 -120 -58 -120 -98c0 -32 19 -51 56 -51zM235 71c67 0 136 35 136 95v60l-109 -22c-68 -14 -102 -36 -102 -76c0 -37 28 -57 75 -57z" />
    <glyph glyph-name="aring" unicode="&#xe5;" horiz-adv-x="570" 
d="M275 568c-78 0 -129 47 -129 120c0 71 51 118 129 118c77 0 127 -47 127 -118c0 -73 -50 -120 -127 -120zM275 751c-39 0 -66 -26 -66 -63c0 -38 27 -64 66 -64c38 0 65 26 65 64c0 37 -27 63 -65 63zM515 70c13 0 26 1 37 4l-7 -72c-16 -7 -37 -12 -62 -12
c-55 0 -91 19 -102 74c-31 -47 -95 -74 -169 -74c-94 0 -163 44 -163 131c0 77 64 134 195 157l127 22v27c0 60 -37 99 -102 99c-62 0 -108 -27 -129 -90l-83 44c24 79 101 130 210 130c125 0 211 -57 211 -177v-226c0 -25 10 -37 37 -37zM235 71c67 0 136 35 136 95v60
l-109 -22c-68 -13 -102 -36 -102 -76c0 -37 28 -57 75 -57z" />
    <glyph glyph-name="atilde" unicode="&#xe3;" horiz-adv-x="570" 
d="M207 641c-27 0 -39 -24 -45 -66h-73c6 94 44 142 119 142c74 0 94 -65 134 -65c28 0 40 24 46 65h73c-6 -93 -45 -141 -118 -141c-76 0 -94 65 -136 65zM515 70c13 0 26 1 37 4l-7 -72c-16 -7 -37 -12 -62 -12c-55 0 -91 19 -102 74c-31 -47 -95 -74 -169 -74
c-94 0 -163 44 -163 131c0 77 64 134 195 157l127 22v27c0 60 -37 99 -102 99c-62 0 -108 -27 -129 -90l-83 44c24 79 101 130 210 130c125 0 211 -57 211 -177v-226c0 -25 10 -37 37 -37zM235 71c67 0 136 35 136 95v60l-109 -22c-68 -13 -102 -36 -102 -76
c0 -37 28 -57 75 -57z" />
    <glyph glyph-name="ae" unicode="&#xe6;" horiz-adv-x="883" 
d="M830 274c0 -24 -2 -45 -4 -60h-346c10 -90 64 -139 136 -139c66 0 100 24 116 68l88 -37c-35 -74 -95 -116 -206 -116c-87 0 -154 35 -189 109c-32 -74 -112 -109 -213 -109s-163 52 -163 131c0 78 62 132 186 152l142 22v32c0 60 -38 99 -109 99
c-60 0 -105 -29 -127 -89l-83 41c25 82 103 132 214 132c78 0 136 -31 168 -91c37 57 95 91 169 91c148 0 221 -104 221 -236zM611 425c-72 0 -119 -47 -131 -134h251c-8 84 -44 134 -120 134zM239 71c71 0 138 44 138 120v34l-111 -21c-74 -14 -106 -34 -106 -76
c0 -38 26 -57 79 -57z" />
    <glyph glyph-name="b" unicode="b" horiz-adv-x="629" 
d="M352 510c136 0 221 -97 221 -261c0 -163 -85 -259 -221 -259c-80 0 -141 42 -170 103l-5 -93h-94v725h107v-305c30 54 88 90 162 90zM328 76c86 0 138 65 138 174s-52 173 -138 173c-81 0 -133 -58 -138 -154v-38c5 -97 57 -155 138 -155z" />
    <glyph glyph-name="c" unicode="c" horiz-adv-x="566" 
d="M303 510c121 0 186 -58 217 -140l-100 -40c-17 62 -55 95 -117 95c-89 0 -141 -63 -141 -176s53 -174 141 -174c69 0 110 35 123 97l98 -33c-28 -91 -103 -149 -219 -149c-158 0 -251 97 -251 260s93 260 249 260z" />
    <glyph glyph-name="cacute" unicode="&#x107;" horiz-adv-x="566" 
d="M312 746h108l-99 -168h-82zM303 510c121 0 186 -58 217 -140l-100 -40c-17 62 -55 95 -117 95c-89 0 -141 -63 -141 -176s53 -174 141 -174c69 0 110 35 123 97l98 -33c-28 -91 -103 -149 -219 -149c-158 0 -251 97 -251 260s93 260 249 260z" />
    <glyph glyph-name="ccaron" unicode="&#x10d;" horiz-adv-x="566" 
d="M463 746l-111 -168h-114l-111 168h88l80 -103l80 103h88zM303 510c121 0 186 -58 217 -140l-100 -40c-17 62 -55 95 -117 95c-89 0 -141 -63 -141 -176s53 -174 141 -174c69 0 110 35 123 97l98 -33c-28 -91 -103 -149 -219 -149c-158 0 -251 97 -251 260s93 260 249 260
z" />
    <glyph glyph-name="ccedilla" unicode="&#xe7;" horiz-adv-x="566" 
d="M524 139c-23 -76 -79 -129 -164 -144c37 -27 56 -64 56 -100c0 -63 -48 -110 -124 -110c-52 0 -87 12 -115 37l33 62c16 -17 41 -30 70 -30c32 0 56 22 56 56c0 35 -17 57 -76 83c-131 17 -206 110 -206 257c0 163 93 260 249 260c121 0 186 -58 217 -140l-100 -40
c-17 62 -55 95 -117 95c-89 0 -141 -63 -141 -176s53 -174 141 -174c69 0 110 35 123 97z" />
    <glyph glyph-name="d" unicode="d" horiz-adv-x="629" 
d="M439 725h107v-725h-94l-6 89c-29 -59 -90 -99 -168 -99c-137 0 -222 96 -222 259c0 164 86 261 222 261c75 0 132 -36 161 -91v306zM302 76c83 0 137 63 137 168v12c0 104 -53 167 -137 167c-86 0 -138 -64 -138 -173s52 -174 138 -174z" />
    <glyph glyph-name="eth" unicode="&#xf0;" horiz-adv-x="615" 
d="M552 625l-95 -17c60 -81 94 -186 94 -315c0 -186 -80 -303 -255 -303c-148 0 -240 93 -240 249s100 249 237 249c76 0 128 -25 161 -70c-15 67 -40 122 -79 171l-180 -44l-10 51l154 31c-37 35 -84 67 -143 101h125c39 -23 74 -50 104 -82l112 31zM303 75
c93 0 145 74 145 164c0 107 -52 166 -141 166c-90 0 -142 -59 -142 -166c0 -105 52 -164 138 -164z" />
    <glyph glyph-name="dcaron" unicode="&#x10f;" horiz-adv-x="663" 
d="M618 725h92l-44 -210h-68zM439 419v306h107v-725h-94l-6 89c-29 -59 -90 -99 -168 -99c-137 0 -222 96 -222 259c0 164 86 261 222 261c75 0 132 -36 161 -91zM302 76c83 0 137 63 137 168v12c0 104 -53 167 -137 167c-86 0 -138 -64 -138 -173s52 -174 138 -174z" />
    <glyph glyph-name="dcroat" unicode="&#x111;" horiz-adv-x="629" 
d="M623 629v-71h-77v-558h-94l-6 89c-29 -59 -90 -99 -168 -99c-137 0 -222 96 -222 259c0 164 86 261 222 261c75 0 132 -36 161 -91v139h-149v71h149v96h107v-96h77zM302 76c83 0 137 63 137 168v12c0 104 -53 167 -137 167c-86 0 -138 -64 -138 -173s52 -174 138 -174z
" />
    <glyph glyph-name="e" unicode="e" horiz-adv-x="581" 
d="M530 265c0 -19 -2 -42 -4 -55h-366c12 -88 65 -135 145 -135c66 0 110 24 126 68l89 -37c-36 -74 -105 -116 -215 -116c-158 0 -251 97 -251 260s88 260 244 260c150 0 232 -100 232 -245zM298 425c-78 0 -126 -47 -138 -133h270c-11 84 -58 133 -132 133z" />
    <glyph glyph-name="eacute" unicode="&#xe9;" horiz-adv-x="581" 
d="M419 746l-99 -168h-82l73 168h108zM530 265c0 -19 -2 -42 -4 -55h-366c12 -88 65 -135 145 -135c66 0 110 24 126 68l89 -37c-36 -74 -105 -116 -215 -116c-158 0 -251 97 -251 260s88 260 244 260c150 0 232 -100 232 -245zM298 425c-78 0 -126 -47 -138 -133h270
c-11 84 -58 133 -132 133z" />
    <glyph glyph-name="ecaron" unicode="&#x11b;" horiz-adv-x="581" 
d="M351 578h-114l-111 168h88l80 -103l80 103h88zM530 265c0 -19 -2 -42 -4 -55h-366c12 -88 65 -135 145 -135c66 0 110 24 126 68l89 -37c-36 -74 -105 -116 -215 -116c-158 0 -251 97 -251 260s88 260 244 260c150 0 232 -100 232 -245zM298 425
c-78 0 -126 -47 -138 -133h270c-11 84 -58 133 -132 133z" />
    <glyph glyph-name="ecircumflex" unicode="&#xea;" horiz-adv-x="581" 
d="M295 674l-80 -103h-88l111 168h114l111 -168h-88zM530 265c0 -19 -2 -42 -4 -55h-366c12 -88 65 -135 145 -135c66 0 110 24 126 68l89 -37c-36 -74 -105 -116 -215 -116c-158 0 -251 97 -251 260s88 260 244 260c150 0 232 -100 232 -245zM298 425
c-78 0 -126 -47 -138 -133h270c-11 84 -58 133 -132 133z" />
    <glyph glyph-name="edieresis" unicode="&#xeb;" horiz-adv-x="581" 
d="M194 574c-39 0 -65 25 -65 63c0 39 26 63 65 63c40 0 66 -24 66 -63c0 -38 -26 -63 -66 -63zM396 574c-40 0 -65 25 -65 63c0 39 25 63 65 63s66 -24 66 -63c0 -38 -26 -63 -66 -63zM530 265c0 -19 -2 -42 -4 -55h-366c12 -88 65 -135 145 -135c66 0 110 24 126 68
l89 -37c-36 -74 -105 -116 -215 -116c-158 0 -251 97 -251 260s88 260 244 260c150 0 232 -100 232 -245zM298 425c-78 0 -126 -47 -138 -133h270c-11 84 -58 133 -132 133z" />
    <glyph glyph-name="edotaccent" unicode="&#x117;" horiz-adv-x="581" 
d="M295 586c-43 0 -69 25 -69 66s26 66 69 66s70 -25 70 -66s-27 -66 -70 -66zM530 265c0 -19 -2 -42 -4 -55h-366c12 -88 65 -135 145 -135c66 0 110 24 126 68l89 -37c-36 -74 -105 -116 -215 -116c-158 0 -251 97 -251 260s88 260 244 260c150 0 232 -100 232 -245z
M298 425c-78 0 -126 -47 -138 -133h270c-11 84 -58 133 -132 133z" />
    <glyph glyph-name="egrave" unicode="&#xe8;" horiz-adv-x="581" 
d="M344 578h-82l-99 168h108zM530 265c0 -19 -2 -42 -4 -55h-366c12 -88 65 -135 145 -135c66 0 110 24 126 68l89 -37c-36 -74 -105 -116 -215 -116c-158 0 -251 97 -251 260s88 260 244 260c150 0 232 -100 232 -245zM298 425c-78 0 -126 -47 -138 -133h270
c-11 84 -58 133 -132 133z" />
    <glyph glyph-name="emacron" unicode="&#x113;" horiz-adv-x="581" 
d="M473 666v-78h-356v78h356zM530 265c0 -19 -2 -42 -4 -55h-366c12 -88 65 -135 145 -135c66 0 110 24 126 68l89 -37c-36 -74 -105 -116 -215 -116c-158 0 -251 97 -251 260s88 260 244 260c150 0 232 -100 232 -245zM298 425c-78 0 -126 -47 -138 -133h270
c-11 84 -58 133 -132 133z" />
    <glyph glyph-name="eogonek" unicode="&#x119;" horiz-adv-x="581" 
d="M530 265c0 -19 -2 -42 -4 -55h-366c12 -88 65 -135 145 -135c66 0 110 24 126 68l89 -37c-25 -51 -65 -87 -124 -104c-57 -34 -83 -63 -83 -95c0 -34 25 -53 61 -53c16 0 37 2 52 11l18 -61c-22 -13 -55 -19 -88 -19c-74 0 -125 41 -125 105c0 41 21 73 56 100
c-147 8 -233 103 -233 260c0 163 88 260 244 260c150 0 232 -100 232 -245zM298 425c-78 0 -126 -47 -138 -133h270c-11 84 -58 133 -132 133z" />
    <glyph glyph-name="f" unicode="f" horiz-adv-x="400" 
d="M225 564v-64h162v-84h-159v-416h-107v416h-94v84h94v72c0 101 64 160 175 160c40 0 75 -9 94 -24l-20 -78c-15 10 -33 15 -57 15c-56 0 -88 -24 -88 -81z" />
    <glyph glyph-name="g" unicode="g" horiz-adv-x="554" 
d="M374 78c101 0 160 -48 160 -128c0 -104 -112 -165 -257 -165c-165 0 -238 54 -238 128c0 45 32 81 89 96c-39 18 -70 49 -70 95c0 52 31 84 78 100c-50 29 -77 77 -77 137c0 102 87 169 217 169c38 0 72 -6 101 -16c18 71 65 113 147 111l18 -83c-65 2 -104 -17 -118 -51
c44 -30 69 -75 69 -130c0 -102 -86 -169 -217 -169c-31 0 -58 3 -83 9c-34 -8 -48 -26 -48 -55c0 -31 24 -48 62 -48h167zM276 435c-61 0 -108 -38 -108 -94c0 -57 47 -95 108 -95c62 0 108 38 108 95c0 56 -46 94 -108 94zM287 -135c102 0 155 34 155 73
c0 32 -21 51 -87 51h-135c-61 0 -90 -20 -90 -53c0 -44 51 -71 157 -71z" />
    <glyph glyph-name="gbreve" unicode="&#x11f;" horiz-adv-x="540" 
d="M279 570c-93 0 -154 61 -154 153h79c0 -45 31 -82 75 -82s75 37 75 82h79c0 -92 -61 -153 -154 -153zM544 522c-62 1 -101 -20 -107 -68c31 -29 48 -68 48 -113c0 -102 -87 -169 -217 -169c-31 0 -59 3 -83 9c-35 -8 -49 -26 -49 -55c0 -31 25 -48 62 -48h168
c101 0 160 -48 160 -128c0 -104 -112 -165 -257 -165c-165 0 -238 54 -238 128c0 45 32 81 89 96c-39 18 -70 49 -70 95c0 52 32 84 78 100c-50 29 -77 77 -77 137c0 102 86 169 217 169c45 0 85 -8 118 -23c9 71 67 118 140 118zM268 246c61 0 107 38 107 95
c0 56 -46 94 -107 94c-62 0 -108 -38 -108 -94c0 -57 46 -95 108 -95zM346 -11h-135c-60 0 -89 -20 -89 -53c0 -44 51 -71 157 -71c101 0 155 34 155 73c0 32 -21 51 -88 51z" />
    <glyph glyph-name="h" unicode="h" horiz-adv-x="619" 
d="M352 510c106 0 188 -61 188 -186v-324h-107v290c0 99 -46 132 -107 132c-66 0 -136 -43 -136 -158v-264h-107v725h107v-305c34 63 93 90 162 90z" />
    <glyph glyph-name="i" unicode="i" horiz-adv-x="274" 
d="M137 584c-46 0 -72 25 -72 67s26 66 72 66s71 -24 71 -66s-25 -67 -71 -67zM190 500v-500h-107v500h107z" />
    <glyph glyph-name="dotlessi" unicode="&#x131;" horiz-adv-x="274" 
d="M190 500v-500h-107v500h107z" />
    <glyph glyph-name="iacute" unicode="&#xed;" horiz-adv-x="274" 
d="M161 746h108l-99 -168h-82zM190 500v-500h-107v500h107z" />
    <glyph glyph-name="icircumflex" unicode="&#xee;" horiz-adv-x="274" 
d="M305 571h-88l-80 103l-80 -103h-88l111 168h114zM190 500v-500h-107v500h107z" />
    <glyph glyph-name="idieresis" unicode="&#xef;" horiz-adv-x="274" 
d="M52 574c-39 0 -64 24 -64 63s25 64 64 64c40 0 65 -25 65 -64s-25 -63 -65 -63zM222 574c-41 0 -65 24 -65 63s24 64 65 64c39 0 64 -25 64 -64s-25 -63 -64 -63zM190 500v-500h-107v500h107z" />
    <glyph glyph-name="i.loclTRK" horiz-adv-x="274" 
d="M137 584c-46 0 -72 25 -72 67s26 66 72 66s71 -24 71 -66s-25 -67 -71 -67zM190 500v-500h-107v500h107z" />
    <glyph glyph-name="igrave" unicode="&#xec;" horiz-adv-x="274" 
d="M113 746l73 -168h-82l-99 168h108zM190 500v-500h-107v500h107z" />
    <glyph glyph-name="ij" unicode="&#x133;" horiz-adv-x="547" 
d="M137 584c-46 0 -72 25 -72 67s26 66 72 66s71 -24 71 -66s-25 -67 -71 -67zM411 717c43 0 71 -26 71 -66s-28 -67 -71 -67c-44 0 -72 27 -72 67s28 66 72 66zM190 500v-500h-107v500h107zM464 500v-544c0 -128 -80 -171 -164 -171c-45 0 -83 13 -109 33l18 86
c18 -15 45 -28 77 -28c43 0 71 23 71 90v534h107z" />
    <glyph glyph-name="imacron" unicode="&#x12b;" horiz-adv-x="274" 
d="M256 666v-78h-238v78h238zM190 500v-500h-107v500h107z" />
    <glyph glyph-name="iogonek" unicode="&#x12f;" horiz-adv-x="274" 
d="M137 584c-46 0 -72 25 -72 67s26 66 72 66s71 -24 71 -66s-25 -67 -71 -67zM200 -134l20 -59c-23 -15 -51 -22 -91 -22c-73 0 -122 37 -122 102c0 48 29 84 81 113h-5v500h107v-500c-76 -36 -101 -64 -101 -99c0 -29 19 -48 55 -48c19 0 41 4 56 13z" />
    <glyph glyph-name="j" unicode="j" horiz-adv-x="273" 
d="M137 717c43 0 71 -26 71 -66s-28 -67 -71 -67c-44 0 -72 27 -72 67s28 66 72 66zM190 500v-544c0 -128 -80 -171 -164 -171c-45 0 -83 13 -110 33l19 86c18 -15 45 -28 77 -28c43 0 71 23 71 90v534h107z" />
    <glyph glyph-name="k" unicode="k" horiz-adv-x="583" 
d="M443 0l-154 235l-99 -102v-133h-107v725h107v-470l239 245h126l-191 -196l203 -304h-124z" />
    <glyph glyph-name="l" unicode="l" horiz-adv-x="312" 
d="M187 725v-579c0 -49 12 -66 52 -66c25 0 40 3 66 13l-12 -86c-22 -11 -54 -17 -83 -17c-89 0 -130 44 -130 141v594h107z" />
    <glyph glyph-name="lacute" unicode="&#x13a;" horiz-adv-x="320" 
d="M130 927h107l-66 -137h-82zM187 725v-579c0 -49 12 -66 52 -66c25 0 40 3 66 13l-12 -86c-22 -11 -54 -17 -83 -17c-89 0 -130 44 -130 141v594h107z" />
    <glyph glyph-name="lcaron" unicode="&#x13e;" horiz-adv-x="338" 
d="M350 725l-44 -210h-68l20 210h92zM187 725v-579c0 -49 12 -66 52 -66c25 0 40 3 66 13l-12 -86c-22 -11 -54 -17 -83 -17c-89 0 -130 44 -130 141v594h107z" />
    <glyph glyph-name="ldot" unicode="&#x140;" horiz-adv-x="434" 
d="M187 725v-579c0 -49 12 -66 52 -66c25 0 40 3 66 13l-12 -86c-22 -11 -54 -17 -83 -17c-89 0 -130 44 -130 141v594h107zM352 427c46 0 75 -28 75 -72s-29 -73 -75 -73s-76 29 -76 73s30 72 76 72z" />
    <glyph glyph-name="lslash" unicode="&#x142;" horiz-adv-x="379" 
d="M283 80c25 0 41 3 67 13l-13 -86c-21 -11 -53 -17 -83 -17c-88 0 -129 44 -129 141v143l-93 -60v95l93 55v361h107v-296l115 74v-95l-115 -68v-194c0 -49 12 -66 51 -66z" />
    <glyph glyph-name="m" unicode="m" horiz-adv-x="949" 
d="M686 510c96 0 184 -59 184 -186v-324h-107v307c0 82 -44 115 -103 115c-70 0 -130 -53 -130 -150v-272h-107v307c0 82 -44 115 -103 115c-60 0 -130 -44 -130 -156v-266h-107v500h95l5 -83c35 63 97 93 162 93c72 0 138 -32 169 -100c32 68 105 100 172 100z" />
    <glyph glyph-name="n" unicode="n" horiz-adv-x="619" 
d="M352 510c106 0 188 -61 188 -186v-324h-107v290c0 99 -46 132 -107 132c-66 0 -136 -42 -136 -157v-265h-107v500h95l5 -83c34 65 97 93 169 93z" />
    <glyph glyph-name="nacute" unicode="&#x144;" horiz-adv-x="619" 
d="M440 746l-99 -168h-82l73 168h108zM352 510c106 0 188 -61 188 -186v-324h-107v290c0 99 -46 132 -107 132c-66 0 -136 -42 -136 -157v-265h-107v500h95l5 -83c34 65 97 93 169 93z" />
    <glyph glyph-name="ncaron" unicode="&#x148;" horiz-adv-x="619" 
d="M372 578h-114l-111 168h88l80 -103l80 103h88zM352 510c106 0 188 -61 188 -186v-324h-107v290c0 99 -46 132 -107 132c-66 0 -136 -42 -136 -157v-265h-107v500h95l5 -83c34 65 97 93 169 93z" />
    <glyph glyph-name="ntilde" unicode="&#xf1;" horiz-adv-x="619" 
d="M248 641c-27 0 -39 -24 -45 -66h-73c6 94 44 142 119 142c74 0 94 -65 134 -65c28 0 40 24 46 65h73c-6 -93 -45 -141 -118 -141c-76 0 -94 65 -136 65zM352 510c106 0 188 -61 188 -186v-324h-107v290c0 99 -46 132 -107 132c-66 0 -136 -42 -136 -157v-265h-107v500h95
l5 -83c34 65 97 93 169 93z" />
    <glyph glyph-name="o" unicode="o" horiz-adv-x="606" 
d="M303 510c156 0 249 -97 249 -260s-93 -260 -249 -260s-249 97 -249 260s93 260 249 260zM303 426c-90 0 -141 -63 -141 -176s51 -176 141 -176s142 63 142 176s-52 176 -142 176z" />
    <glyph glyph-name="oacute" unicode="&#xf3;" horiz-adv-x="606" 
d="M319 746h108l-99 -168h-82zM303 510c156 0 249 -97 249 -260s-93 -260 -249 -260s-249 97 -249 260s93 260 249 260zM303 426c-90 0 -141 -63 -141 -176s51 -176 141 -176s142 63 142 176s-52 176 -142 176z" />
    <glyph glyph-name="ocircumflex" unicode="&#xf4;" horiz-adv-x="606" 
d="M471 571h-88l-80 103l-80 -103h-88l111 168h114zM303 510c156 0 249 -97 249 -260s-93 -260 -249 -260s-249 97 -249 260s93 260 249 260zM303 426c-90 0 -141 -63 -141 -176s51 -176 141 -176s142 63 142 176s-52 176 -142 176z" />
    <glyph glyph-name="odieresis" unicode="&#xf6;" horiz-adv-x="606" 
d="M202 700c40 0 66 -24 66 -63c0 -38 -26 -63 -66 -63c-39 0 -65 25 -65 63c0 39 26 63 65 63zM404 700c40 0 66 -24 66 -63c0 -38 -26 -63 -66 -63s-65 25 -65 63c0 39 25 63 65 63zM303 510c156 0 249 -97 249 -260s-93 -260 -249 -260s-249 97 -249 260s93 260 249 260z
M303 426c-90 0 -141 -63 -141 -176s51 -176 141 -176s142 63 142 176s-52 176 -142 176z" />
    <glyph glyph-name="ograve" unicode="&#xf2;" horiz-adv-x="606" 
d="M279 746l73 -168h-82l-99 168h108zM303 510c156 0 249 -97 249 -260s-93 -260 -249 -260s-249 97 -249 260s93 260 249 260zM303 426c-90 0 -141 -63 -141 -176s51 -176 141 -176s142 63 142 176s-52 176 -142 176z" />
    <glyph glyph-name="ohungarumlaut" unicode="&#x151;" horiz-adv-x="606" 
d="M329 746l-97 -168h-81l74 168h104zM515 746l-97 -168h-80l74 168h103zM303 510c156 0 249 -97 249 -260s-93 -260 -249 -260s-249 97 -249 260s93 260 249 260zM303 426c-90 0 -141 -63 -141 -176s51 -176 141 -176s142 63 142 176s-52 176 -142 176z" />
    <glyph glyph-name="omacron" unicode="&#x14d;" horiz-adv-x="606" 
d="M481 666v-78h-356v78h356zM303 510c156 0 249 -97 249 -260s-93 -260 -249 -260s-249 97 -249 260s93 260 249 260zM303 426c-90 0 -141 -63 -141 -176s51 -176 141 -176s142 63 142 176s-52 176 -142 176z" />
    <glyph glyph-name="oslash" unicode="&#xf8;" horiz-adv-x="607" 
d="M303 510c58 0 106 -13 145 -38l39 50h67l-66 -84c42 -45 64 -108 64 -188c0 -163 -93 -260 -249 -260c-53 0 -98 11 -135 32l-43 -56h-67l67 88c-46 45 -71 111 -71 196c0 163 93 260 249 260zM191 136h1l32 45l164 217c-22 18 -50 28 -85 28c-90 0 -141 -63 -141 -176
c0 -47 10 -85 29 -114zM303 74c90 0 142 63 142 176c0 41 -9 76 -25 103h-1l-29 -40l-163 -217c20 -14 46 -22 76 -22z" />
    <glyph glyph-name="otilde" unicode="&#xf5;" horiz-adv-x="606" 
d="M488 717c-6 -93 -45 -141 -118 -141c-76 0 -94 65 -136 65c-27 0 -39 -24 -45 -66h-73c6 94 44 142 119 142c74 0 94 -65 134 -65c28 0 40 24 46 65h73zM303 510c156 0 249 -97 249 -260s-93 -260 -249 -260s-249 97 -249 260s93 260 249 260zM303 426
c-90 0 -141 -63 -141 -176s51 -176 141 -176s142 63 142 176s-52 176 -142 176z" />
    <glyph glyph-name="oe" unicode="&#x153;" horiz-adv-x="978" 
d="M926 274c0 -23 -2 -43 -5 -57h-366c10 -92 64 -142 146 -142c66 0 111 24 127 68l88 -37c-36 -74 -104 -116 -215 -116c-91 0 -159 38 -197 105c-39 -67 -108 -105 -201 -105c-155 0 -249 97 -249 260s94 260 249 260c93 0 161 -37 200 -104c37 67 102 104 191 104
c151 0 232 -104 232 -236zM694 425c-79 0 -126 -47 -138 -134h267c-10 84 -53 134 -129 134zM306 75c89 0 141 62 141 175s-52 175 -141 175c-90 0 -142 -62 -142 -175s52 -175 142 -175z" />
    <glyph glyph-name="p" unicode="p" horiz-adv-x="629" 
d="M352 510c136 0 221 -96 221 -259c0 -164 -85 -261 -221 -261c-74 0 -132 36 -162 90v-290h-107v710h94l5 -93c29 61 90 103 170 103zM328 77c86 0 138 64 138 173s-52 174 -138 174c-81 0 -133 -58 -138 -155v-38c5 -96 57 -154 138 -154z" />
    <glyph glyph-name="thorn" unicode="&#xfe;" horiz-adv-x="629" 
d="M353 510c131 0 220 -92 220 -259c0 -173 -94 -261 -221 -261c-74 0 -130 32 -162 81v-281h-107v935h107v-299c31 50 88 84 163 84zM328 77c87 0 138 64 138 173s-51 174 -138 174c-84 0 -138 -63 -138 -168v-12c0 -104 54 -167 138 -167z" />
    <glyph glyph-name="q" unicode="q" horiz-adv-x="630" 
d="M453 500h94v-710h-107v291c-30 -55 -87 -91 -161 -91c-136 0 -222 97 -222 261c0 163 85 259 221 259c80 0 141 -41 170 -102zM302 77c84 0 138 63 138 167v12c0 105 -54 168 -138 168c-86 0 -138 -65 -138 -174s52 -173 138 -173z" />
    <glyph glyph-name="r" unicode="r" horiz-adv-x="414" 
d="M341 510c20 0 41 -3 55 -10l-17 -98c-14 8 -36 13 -63 13c-60 0 -126 -48 -126 -150v-265h-107v500h91l9 -90c27 65 80 100 158 100z" />
    <glyph glyph-name="racute" unicode="&#x155;" horiz-adv-x="414" 
d="M348 746l-99 -168h-82l73 168h108zM341 510c20 0 41 -3 55 -10l-17 -98c-14 8 -36 13 -63 13c-60 0 -126 -48 -126 -150v-265h-107v500h91l9 -90c27 65 80 100 158 100z" />
    <glyph glyph-name="rcaron" unicode="&#x159;" horiz-adv-x="414" 
d="M280 578h-114l-111 168h88l80 -103l80 103h88zM341 510c20 0 41 -3 55 -10l-17 -98c-14 8 -36 13 -63 13c-60 0 -126 -48 -126 -150v-265h-107v500h91l9 -90c27 65 80 100 158 100z" />
    <glyph glyph-name="s" unicode="s" horiz-adv-x="529" 
d="M264 -10c-97 0 -181 32 -223 105l72 62c26 -60 85 -83 155 -83c71 0 107 26 107 60c0 31 -29 49 -116 66c-149 28 -201 71 -201 155c0 81 76 155 210 155c111 0 174 -36 210 -113l-78 -58c-23 61 -66 87 -131 87c-62 0 -104 -30 -104 -61c0 -36 29 -55 123 -72
c143 -26 194 -69 194 -152c0 -88 -80 -151 -218 -151z" />
    <glyph glyph-name="sacute" unicode="&#x15b;" horiz-adv-x="529" 
d="M283 746h108l-99 -168h-82zM264 -10c-97 0 -181 32 -223 105l72 62c26 -60 85 -83 155 -83c71 0 107 26 107 60c0 31 -29 49 -116 66c-149 28 -201 71 -201 155c0 81 76 155 210 155c111 0 174 -36 210 -113l-78 -58c-23 61 -66 87 -131 87c-62 0 -104 -30 -104 -61
c0 -36 29 -55 123 -72c143 -26 194 -69 194 -152c0 -88 -80 -151 -218 -151z" />
    <glyph glyph-name="scaron" unicode="&#x161;" horiz-adv-x="529" 
d="M434 746l-111 -168h-114l-111 168h88l80 -103l80 103h88zM264 -10c-97 0 -181 32 -223 105l72 62c26 -60 85 -83 155 -83c71 0 107 26 107 60c0 31 -29 49 -116 66c-149 28 -201 71 -201 155c0 81 76 155 210 155c111 0 174 -36 210 -113l-78 -58c-23 61 -66 87 -131 87
c-62 0 -104 -30 -104 -61c0 -36 29 -55 123 -72c143 -26 194 -69 194 -152c0 -88 -80 -151 -218 -151z" />
    <glyph glyph-name="germandbls" unicode="&#xdf;" horiz-adv-x="628" 
d="M391 383c132 0 185 -98 185 -190c0 -104 -72 -203 -221 -203c-47 0 -90 15 -110 33l24 79c19 -16 44 -24 80 -24c80 0 124 53 124 128c0 83 -55 126 -154 126h-42l5 89h37c80 0 127 48 127 113c0 72 -44 106 -121 106c-104 0 -135 -58 -135 -175v-465h-107v486
c0 144 62 244 248 244c159 0 222 -100 222 -189c0 -69 -49 -156 -162 -156v-2z" />
    <glyph glyph-name="longs" unicode="&#x17f;" horiz-adv-x="280" 
d="M80 0v572c0 101 50 160 152 160c40 0 66 -8 83 -23l-15 -78c-12 10 -26 14 -44 14c-44 0 -70 -24 -70 -82v-563h-106z" />
    <glyph glyph-name="t" unicode="t" horiz-adv-x="424" 
d="M382 111l25 -78c-32 -27 -79 -43 -133 -43c-86 0 -152 39 -153 142v284h-95v84h95v117l107 30v-147h175v-84h-175v-266c0 -49 29 -71 73 -71c34 0 59 12 81 32z" />
    <glyph glyph-name="tcaron" unicode="&#x165;" horiz-adv-x="424" 
d="M397 767l-44 -204h-68l20 204h92zM382 111l25 -78c-32 -27 -79 -43 -133 -43c-86 0 -152 39 -153 142v284h-95v84h95v117l107 30v-147h175v-84h-175v-266c0 -49 29 -71 73 -71c34 0 59 12 81 32z" />
    <glyph glyph-name="u" unicode="u" horiz-adv-x="619" 
d="M429 500h107v-500h-95l-4 81c-35 -63 -98 -91 -178 -91c-100 0 -180 51 -180 181v329h107v-301c0 -93 40 -121 103 -121c76 0 140 46 140 152v270z" />
    <glyph glyph-name="uacute" unicode="&#xfa;" horiz-adv-x="619" 
d="M431 746l-99 -168h-82l73 168h108zM429 500h107v-500h-95l-4 81c-35 -63 -98 -91 -178 -91c-100 0 -180 51 -180 181v329h107v-301c0 -93 40 -121 103 -121c76 0 140 46 140 152v270z" />
    <glyph glyph-name="ucircumflex" unicode="&#xfb;" horiz-adv-x="619" 
d="M307 674l-80 -103h-88l111 168h114l111 -168h-88zM429 500h107v-500h-95l-4 81c-35 -63 -98 -91 -178 -91c-100 0 -180 51 -180 181v329h107v-301c0 -93 40 -121 103 -121c76 0 140 46 140 152v270z" />
    <glyph glyph-name="udieresis" unicode="&#xfc;" horiz-adv-x="619" 
d="M206 574c-39 0 -65 25 -65 63c0 39 26 63 65 63c40 0 66 -24 66 -63c0 -38 -26 -63 -66 -63zM408 574c-40 0 -65 25 -65 63c0 39 25 63 65 63s66 -24 66 -63c0 -38 -26 -63 -66 -63zM429 500h107v-500h-95l-4 81c-35 -63 -98 -91 -178 -91c-100 0 -180 51 -180 181v329
h107v-301c0 -93 40 -121 103 -121c76 0 140 46 140 152v270z" />
    <glyph glyph-name="ugrave" unicode="&#xf9;" horiz-adv-x="619" 
d="M356 578h-82l-99 168h108zM429 500h107v-500h-95l-4 81c-35 -63 -98 -91 -178 -91c-100 0 -180 51 -180 181v329h107v-301c0 -93 40 -121 103 -121c76 0 140 46 140 152v270z" />
    <glyph glyph-name="uhungarumlaut" unicode="&#x171;" horiz-adv-x="619" 
d="M333 746l-97 -168h-81l74 168h104zM519 746l-97 -168h-80l74 168h103zM429 500h107v-500h-95l-4 81c-35 -63 -98 -91 -178 -91c-100 0 -180 51 -180 181v329h107v-301c0 -93 40 -121 103 -121c76 0 140 46 140 152v270z" />
    <glyph glyph-name="umacron" unicode="&#x16b;" horiz-adv-x="619" 
d="M485 666v-78h-356v78h356zM429 500h107v-500h-95l-4 81c-35 -63 -98 -91 -178 -91c-100 0 -180 51 -180 181v329h107v-301c0 -93 40 -121 103 -121c76 0 140 46 140 152v270z" />
    <glyph glyph-name="uni0123" unicode="&#x123;" horiz-adv-x="540" 
d="M365 776l-40 -196h-104l70 196h74zM374 78c101 0 160 -48 160 -128c0 -104 -112 -165 -257 -165c-165 0 -238 54 -238 128c0 45 32 81 89 96c-39 18 -70 49 -70 95c0 52 31 84 78 100c-50 29 -77 77 -77 137c0 102 87 169 217 169c38 0 72 -6 101 -16
c18 71 65 113 147 111l18 -83c-65 2 -104 -17 -118 -51c44 -30 69 -75 69 -130c0 -102 -86 -169 -217 -169c-31 0 -58 3 -83 9c-34 -8 -48 -26 -48 -55c0 -31 24 -48 62 -48h167zM276 435c-61 0 -108 -38 -108 -94c0 -57 47 -95 108 -95c62 0 108 38 108 95
c0 56 -46 94 -108 94zM287 -135c102 0 155 34 155 73c0 32 -21 51 -87 51h-135c-61 0 -90 -20 -90 -53c0 -44 51 -71 157 -71z" />
    <glyph glyph-name="uni0137" unicode="&#x137;" horiz-adv-x="583" 
d="M364 304l203 -304h-124l-154 235l-99 -102v-133h-107v725h107v-470l239 245h126zM220 -238l40 167h104l-67 -167h-77z" />
    <glyph glyph-name="uni013C" unicode="&#x13c;" horiz-adv-x="312" 
d="M187 725v-579c0 -49 12 -66 52 -66c25 0 40 3 66 13l-12 -86c-22 -11 -54 -17 -83 -17c-89 0 -130 44 -130 141v594h107zM251 -71l-67 -167h-77l40 167h104z" />
    <glyph glyph-name="uni0146" unicode="&#x146;" horiz-adv-x="619" 
d="M352 510c106 0 188 -61 188 -186v-324h-107v290c0 99 -46 132 -107 132c-66 0 -136 -42 -136 -157v-265h-107v500h95l5 -83c34 65 97 93 169 93zM236 -238l40 167h104l-67 -167h-77z" />
    <glyph glyph-name="uni0157" unicode="&#x157;" horiz-adv-x="414" 
d="M341 510c20 0 41 -3 55 -10l-17 -98c-14 8 -36 13 -63 13c-60 0 -126 -48 -126 -150v-265h-107v500h91l9 -90c27 65 80 100 158 100zM52 -238l40 167h104l-67 -167h-77z" />
    <glyph glyph-name="uni015F" unicode="&#x15f;" horiz-adv-x="529" 
d="M482 141c0 -73 -54 -128 -150 -145c38 -28 57 -64 57 -101c0 -63 -48 -110 -124 -110c-52 0 -87 12 -115 37l33 62c16 -17 41 -30 70 -30c32 0 56 22 56 56s-16 56 -72 81c-85 5 -158 38 -196 104l72 62c26 -60 85 -83 155 -83c71 0 107 26 107 60c0 31 -29 49 -116 66
c-149 28 -201 71 -201 155c0 81 76 155 210 155c111 0 174 -36 210 -113l-78 -58c-23 61 -66 87 -131 87c-62 0 -104 -30 -104 -61c0 -36 29 -55 123 -72c143 -26 194 -69 194 -152z" />
    <glyph glyph-name="uni0163" unicode="&#x163;" horiz-adv-x="440" 
d="M318 -6c36 -28 54 -63 54 -99c0 -63 -48 -110 -125 -110c-51 0 -87 12 -114 36l33 63c16 -17 41 -30 69 -30c33 0 57 22 57 56c0 37 -18 59 -80 88c-54 17 -90 58 -91 134v284h-95v84h95v117l107 30v-147h175v-84h-175v-266c0 -49 29 -71 73 -71c34 0 59 12 81 32l25 -78
c-23 -19 -53 -33 -89 -39z" />
    <glyph glyph-name="uni0219" unicode="&#x219;" horiz-adv-x="529" 
d="M264 -10c-97 0 -181 32 -223 105l72 62c26 -60 85 -83 155 -83c71 0 107 26 107 60c0 31 -29 49 -116 66c-149 28 -201 71 -201 155c0 81 76 155 210 155c111 0 174 -36 210 -113l-78 -58c-23 61 -66 87 -131 87c-62 0 -104 -30 -104 -61c0 -36 29 -55 123 -72
c143 -26 194 -69 194 -152c0 -88 -80 -151 -218 -151zM323 -71l-67 -167h-77l40 167h104z" />
    <glyph glyph-name="uni021B" unicode="&#x21b;" horiz-adv-x="424" 
d="M274 -10c-86 0 -152 39 -153 142v284h-95v84h95v117l107 30v-147h175v-84h-175v-266c0 -49 29 -71 73 -71c34 0 59 12 81 32l25 -78c-32 -27 -79 -43 -133 -43zM156 -238l40 167h104l-67 -167h-77z" />
    <glyph glyph-name="uogonek" unicode="&#x173;" horiz-adv-x="619" 
d="M527 -134l18 -60c-21 -13 -54 -21 -87 -21c-74 0 -114 37 -114 98c0 56 34 93 101 123l-10 86c-37 -65 -105 -102 -176 -102c-100 0 -180 51 -180 181v329h107v-301c0 -93 40 -121 99 -121c76 0 144 58 144 159v263h107v-500c-81 -36 -114 -64 -114 -100
c0 -32 20 -46 53 -46c17 0 38 2 52 12z" />
    <glyph glyph-name="uring" unicode="&#x16f;" horiz-adv-x="619" 
d="M306 568c-78 0 -129 47 -129 120c0 71 51 118 129 118c77 0 127 -47 127 -118c0 -73 -50 -120 -127 -120zM306 751c-39 0 -66 -26 -66 -63c0 -38 27 -64 66 -64c38 0 65 26 65 64c0 37 -27 63 -65 63zM429 500h107v-500h-95l-4 81c-35 -63 -98 -91 -178 -91
c-100 0 -180 51 -180 181v329h107v-301c0 -93 40 -121 103 -121c76 0 140 46 140 152v270z" />
    <glyph glyph-name="v" unicode="v" horiz-adv-x="532" 
d="M412 500h112l-199 -500h-117l-200 500h118l141 -413z" />
    <glyph glyph-name="w" unicode="w" horiz-adv-x="871" 
d="M727 500h116l-167 -500h-117l-126 378l-120 -378h-117l-167 500h116l113 -400l125 400h106l124 -400z" />
    <glyph glyph-name="x" unicode="x" horiz-adv-x="550" 
d="M525 0h-126l-126 188l-130 -188h-121l188 252l-178 248h128l120 -181l119 181h123l-179 -245z" />
    <glyph glyph-name="y" unicode="y" horiz-adv-x="546" 
d="M533 500l-219 -559c-44 -116 -95 -156 -185 -156c-52 0 -88 12 -118 40l31 82c23 -28 51 -36 82 -36c37 0 65 14 87 72l22 54l-52 124l-156 379h120l110 -314l29 -94l34 103l104 305h111z" />
    <glyph glyph-name="yacute" unicode="&#xfd;" horiz-adv-x="546" 
d="M298 746h108l-99 -168h-82zM533 500l-219 -559c-44 -116 -95 -156 -185 -156c-52 0 -88 12 -118 40l31 82c23 -28 51 -36 82 -36c37 0 65 14 87 72l22 54l-52 124l-156 379h120l110 -314l29 -94l34 103l104 305h111z" />
    <glyph glyph-name="ydieresis" unicode="&#xff;" horiz-adv-x="546" 
d="M181 700c40 0 66 -24 66 -63c0 -38 -26 -63 -66 -63c-39 0 -65 25 -65 63c0 39 26 63 65 63zM383 700c40 0 66 -24 66 -63c0 -38 -26 -63 -66 -63s-65 25 -65 63c0 39 25 63 65 63zM533 500l-219 -559c-44 -116 -95 -156 -185 -156c-52 0 -88 12 -118 40l31 82
c23 -28 51 -36 82 -36c37 0 65 14 87 72l22 54l-52 124l-156 379h120l110 -314l29 -94l34 103l104 305h111z" />
    <glyph glyph-name="z" unicode="z" horiz-adv-x="528" 
d="M51 0v74l243 282l60 62l-86 -2h-215v84h419v-74l-242 -282l-60 -62l95 2h216v-84h-430z" />
    <glyph glyph-name="zacute" unicode="&#x17a;" horiz-adv-x="528" 
d="M268 746h108l-99 -168h-82zM51 0v74l243 282l60 62l-86 -2h-215v84h419v-74l-242 -282l-60 -62l95 2h216v-84h-430z" />
    <glyph glyph-name="zcaron" unicode="&#x17e;" horiz-adv-x="528" 
d="M419 746l-111 -168h-114l-111 168h88l80 -103l80 103h88zM51 0v74l243 282l60 62l-86 -2h-215v84h419v-74l-242 -282l-60 -62l95 2h216v-84h-430z" />
    <glyph glyph-name="zdotaccent" unicode="&#x17c;" horiz-adv-x="528" 
d="M252 718c43 0 70 -25 70 -66s-27 -66 -70 -66s-69 25 -69 66s26 66 69 66zM51 0v74l243 282l60 62l-86 -2h-215v84h419v-74l-242 -282l-60 -62l95 2h216v-84h-430z" />
    <glyph glyph-name="germandbls.calt" horiz-adv-x="699" 
d="M458 368c121 0 207 -62 207 -182c0 -119 -88 -191 -208 -191c-87 0 -149 27 -175 62l37 72c25 -28 71 -46 122 -46c70 0 116 42 116 104c0 65 -49 104 -135 104h-81v77l166 201h-163c-78 0 -139 -58 -139 -141v-428h-107v436c0 136 98 224 237 224h288v-91l-173 -201h8z
" />
    <glyph glyph-name="longs.component" horiz-adv-x="266" 
d="M80 0v572c0 101 40 160 142 160c25 0 45 -4 61 -16l-8 -84c-10 9 -21 13 -34 13c-35 0 -55 -23 -55 -78v-567h-106z" />
    <glyph glyph-name="iacute_j.loclNLD" horiz-adv-x="547" 
d="M161 746h108l-99 -168h-82zM435 746h108l-99 -168h-82zM190 500v-500h-107v500h107zM464 500v-544c0 -128 -81 -171 -165 -171c-45 0 -83 13 -109 33l19 86c18 -15 44 -28 76 -28c43 0 72 23 72 90v534h107z" />
    <glyph glyph-name="g.ss01" horiz-adv-x="629" 
d="M455 500h91v-460c0 -176 -94 -255 -262 -255c-107 0 -195 36 -213 130l102 36c10 -57 49 -85 125 -85c82 0 140 59 140 149v67c-32 -47 -89 -78 -161 -78c-136 0 -222 94 -222 253s86 253 222 253c80 0 139 -37 169 -92zM301 91c83 0 137 60 137 161v11
c0 99 -53 160 -137 160c-86 0 -138 -61 -138 -166s52 -166 138 -166z" />
    <glyph glyph-name="gbreve.ss01" horiz-adv-x="629" 
d="M294 570c-93 0 -154 61 -154 153h79c0 -45 31 -82 75 -82s75 37 75 82h79c0 -92 -61 -153 -154 -153zM455 500h91v-460c0 -176 -94 -255 -262 -255c-107 0 -195 36 -213 130l102 36c10 -57 49 -85 125 -85c82 0 140 59 140 149v67c-32 -47 -89 -78 -161 -78
c-136 0 -222 94 -222 253s86 253 222 253c80 0 139 -37 169 -92zM301 91c83 0 137 60 137 161v11c0 99 -53 160 -137 160c-86 0 -138 -61 -138 -166s52 -166 138 -166z" />
    <glyph glyph-name="gcommaaccent.ss01" horiz-adv-x="629" 
d="M409 776l-41 -196h-104l70 196h75zM455 500h91v-460c0 -176 -94 -255 -262 -255c-107 0 -195 36 -213 130l102 36c10 -57 49 -85 125 -85c82 0 140 59 140 149v67c-32 -47 -89 -78 -161 -78c-136 0 -222 94 -222 253s86 253 222 253c80 0 139 -37 169 -92zM301 91
c83 0 137 60 137 161v11c0 99 -53 160 -137 160c-86 0 -138 -61 -138 -166s52 -166 138 -166z" />
    <glyph glyph-name="l.ss02" horiz-adv-x="277" 
d="M192 725v-725h-107v725h107z" />
    <glyph glyph-name="lacute.ss02" horiz-adv-x="277" 
d="M132 927h107l-67 -137h-81zM192 725v-725h-107v725h107z" />
    <glyph glyph-name="lcaron.ss02" horiz-adv-x="309" 
d="M359 725l-45 -210h-68l21 210h92zM192 725v-725h-107v725h107z" />
    <glyph glyph-name="lcommaaccent.ss02" horiz-adv-x="277" 
d="M192 725v-725h-107v725h107zM193 -71l-67 -167h-77l40 167h104z" />
    <glyph glyph-name="ldot.ss02" horiz-adv-x="453" 
d="M192 725v-725h-107v725h107zM365 427c46 0 75 -28 75 -72s-29 -73 -75 -73s-76 29 -76 73s30 72 76 72z" />
    <glyph glyph-name="lslash.ss02" horiz-adv-x="331" 
d="M299 484v-94l-79 -47v-343h-107v276l-79 -51v93l79 48v359h107v-292z" />
    <glyph glyph-name="n.swsh" horiz-adv-x="628" 
d="M586 -15c19 0 31 2 47 9l-12 -72c-20 -11 -37 -16 -73 -16c-73 0 -115 48 -115 126v258c0 99 -46 132 -107 132c-66 0 -136 -42 -136 -157v-265h-107v500h95l5 -83c34 65 97 93 169 93c106 0 188 -61 188 -186v-287c0 -39 21 -52 46 -52z" />
    <glyph glyph-name="nacute.swsh" horiz-adv-x="628" 
d="M440 746l-99 -168h-82l73 168h108zM586 -15c19 0 31 2 47 9l-12 -72c-20 -11 -37 -16 -73 -16c-73 0 -115 48 -115 126v258c0 99 -46 132 -107 132c-66 0 -136 -42 -136 -157v-265h-107v500h95l5 -83c34 65 97 93 169 93c106 0 188 -61 188 -186v-287
c0 -39 21 -52 46 -52z" />
    <glyph glyph-name="ncaron.swsh" horiz-adv-x="628" 
d="M372 578h-114l-111 168h88l80 -103l80 103h88zM586 -15c19 0 31 2 47 9l-12 -72c-20 -11 -37 -16 -73 -16c-73 0 -115 48 -115 126v258c0 99 -46 132 -107 132c-66 0 -136 -42 -136 -157v-265h-107v500h95l5 -83c34 65 97 93 169 93c106 0 188 -61 188 -186v-287
c0 -39 21 -52 46 -52z" />
    <glyph glyph-name="ncommaaccent.swsh" horiz-adv-x="628" 
d="M586 -15c19 0 31 2 47 9l-12 -72c-20 -11 -37 -16 -73 -16c-73 0 -115 48 -115 126v258c0 99 -46 132 -107 132c-66 0 -136 -42 -136 -157v-265h-107v500h95l5 -83c34 65 97 93 169 93c106 0 188 -61 188 -186v-287c0 -39 21 -52 46 -52zM227 -238l40 167h104l-67 -167
h-77z" />
    <glyph glyph-name="ntilde.swsh" horiz-adv-x="628" 
d="M248 641c-27 0 -39 -24 -45 -66h-73c6 94 44 142 119 142c74 0 94 -65 134 -65c28 0 40 24 46 65h73c-6 -93 -45 -141 -118 -141c-76 0 -94 65 -136 65zM586 -15c19 0 31 2 47 9l-12 -72c-20 -11 -37 -16 -73 -16c-73 0 -115 48 -115 126v258c0 99 -46 132 -107 132
c-66 0 -136 -42 -136 -157v-265h-107v500h95l5 -83c34 65 97 93 169 93c106 0 188 -61 188 -186v-287c0 -39 21 -52 46 -52z" />
    <glyph glyph-name="r.swsh" horiz-adv-x="527" 
d="M329 510c108 0 122 -58 207 -72l-54 -79c-69 15 -91 57 -160 57c-72 0 -132 -55 -132 -155v-261h-107v500h91l9 -90c28 69 82 100 146 100z" />
    <glyph glyph-name="racute.swsh" horiz-adv-x="527" 
d="M359 746l-99 -168h-82l73 168h108zM329 510c108 0 122 -58 207 -72l-54 -79c-69 15 -91 57 -160 57c-72 0 -132 -55 -132 -155v-261h-107v500h91l9 -90c28 69 82 100 146 100z" />
    <glyph glyph-name="rcaron.swsh" horiz-adv-x="527" 
d="M291 578h-114l-111 168h88l80 -103l80 103h88zM329 510c108 0 122 -58 207 -72l-54 -79c-69 15 -91 57 -160 57c-72 0 -132 -55 -132 -155v-261h-107v500h91l9 -90c28 69 82 100 146 100z" />
    <glyph glyph-name="rcommaaccent.swsh" horiz-adv-x="527" 
d="M329 510c108 0 122 -58 207 -72l-54 -79c-69 15 -91 57 -160 57c-72 0 -132 -55 -132 -155v-261h-107v500h91l9 -90c28 69 82 100 146 100zM52 -238l40 167h104l-67 -167h-77z" />
    <glyph glyph-name="t.swsh" horiz-adv-x="462" 
d="M365 416h-137v-266c0 -49 29 -71 73 -71c34 0 59 12 81 32l25 -78c-32 -27 -79 -43 -133 -43c-86 0 -152 39 -153 142v284h-95v84h95v117l107 30v-147h137c80 0 122 12 155 47l40 -65c-41 -48 -93 -66 -195 -66z" />
    <glyph glyph-name="tcaron.swsh" horiz-adv-x="462" 
d="M397 767l-44 -204h-68l20 204h92zM365 416h-137v-266c0 -49 29 -71 73 -71c34 0 59 12 81 32l25 -78c-32 -27 -79 -43 -133 -43c-86 0 -152 39 -153 142v284h-95v84h95v117l107 30v-147h137c80 0 122 12 155 47l40 -65c-41 -48 -93 -66 -195 -66z" />
    <glyph glyph-name="uni0163.swsh" horiz-adv-x="456" 
d="M365 416h-137v-266c0 -49 29 -71 73 -71c34 0 59 12 81 32l25 -78c-20 -17 -46 -30 -76 -37c38 -27 56 -64 56 -101c0 -63 -47 -110 -124 -110c-51 0 -87 12 -114 36l33 63c16 -17 40 -30 69 -30c33 0 57 22 57 56s-16 55 -68 82c-69 10 -118 51 -119 140v284h-95v84h95
v117l107 30v-147h137c80 0 122 12 155 47l40 -65c-41 -48 -93 -66 -195 -66z" />
    <glyph glyph-name="uni021B.swsh" horiz-adv-x="462" 
d="M365 416h-137v-266c0 -49 29 -71 73 -71c34 0 59 12 81 32l25 -78c-32 -27 -79 -43 -133 -43c-86 0 -152 39 -153 142v284h-95v84h95v117l107 30v-147h137c80 0 122 12 155 47l40 -65c-41 -48 -93 -66 -195 -66zM156 -238l40 167h104l-67 -167h-77z" />
    <glyph glyph-name="y.swsh" horiz-adv-x="567" 
d="M129 -215c-52 0 -88 12 -118 40l31 82c23 -28 51 -36 82 -36c37 0 65 14 87 72l22 54l-52 124l-156 379h120l110 -314l29 -94l34 103l97 265c32 90 78 129 149 129c42 0 68 -8 89 -28l-21 -68c-13 10 -23 14 -46 14c-38 0 -61 -18 -79 -68l-193 -498
c-42 -116 -95 -156 -185 -156z" />
    <glyph glyph-name="yacute.swsh" horiz-adv-x="567" 
d="M298 746h108l-99 -168h-82zM129 -215c-52 0 -88 12 -118 40l31 82c23 -28 51 -36 82 -36c37 0 65 14 87 72l22 54l-52 124l-156 379h120l110 -314l29 -94l34 103l97 265c32 90 78 129 149 129c42 0 68 -8 89 -28l-21 -68c-13 10 -23 14 -46 14c-38 0 -61 -18 -79 -68
l-193 -498c-42 -116 -95 -156 -185 -156z" />
    <glyph glyph-name="ydieresis.swsh" horiz-adv-x="567" 
d="M181 700c40 0 66 -24 66 -63c0 -38 -26 -63 -66 -63c-39 0 -65 25 -65 63c0 39 26 63 65 63zM383 700c40 0 66 -24 66 -63c0 -38 -26 -63 -66 -63s-65 25 -65 63c0 39 25 63 65 63zM129 -215c-52 0 -88 12 -118 40l31 82c23 -28 51 -36 82 -36c37 0 65 14 87 72l22 54
l-52 124l-156 379h120l110 -314l29 -94l34 103l97 265c32 90 78 129 149 129c42 0 68 -8 89 -28l-21 -68c-13 10 -23 14 -46 14c-38 0 -61 -18 -79 -68l-193 -498c-42 -116 -95 -156 -185 -156z" />
    <glyph glyph-name="c_t" horiz-adv-x="920" 
d="M878 111l25 -78c-31 -27 -78 -43 -132 -43c-86 0 -153 39 -153 142v401c0 80 -32 112 -77 112c-44 0 -75 -23 -75 -99c0 -63 27 -128 52 -176l-100 -40c-17 61 -56 95 -115 95c-89 0 -141 -63 -141 -176s53 -174 141 -174c65 0 106 35 123 97l96 -32
c-26 -91 -101 -150 -217 -150c-158 0 -251 97 -251 260s93 260 249 260c33 0 62 -6 88 -18c-8 19 -13 42 -13 71c0 117 77 166 171 166c91 0 176 -48 176 -166v-63h174v-84h-174v-266c0 -49 29 -71 72 -71c35 0 59 12 81 32z" />
    <glyph glyph-name="s_t" horiz-adv-x="877" 
d="M835 111l25 -78c-32 -27 -79 -43 -133 -43c-86 0 -152 39 -152 142v399c0 81 -36 112 -79 112c-48 0 -74 -33 -74 -89c0 -45 9 -87 54 -155l-72 -46c-24 53 -74 75 -134 75c-62 0 -105 -31 -105 -63c0 -37 29 -55 123 -72c141 -23 194 -65 194 -149
c0 -89 -80 -154 -218 -154c-97 0 -182 33 -224 106l72 59c26 -56 86 -83 156 -83c71 0 107 28 107 64c0 32 -29 53 -121 69c-142 24 -196 70 -196 151s76 154 210 154c29 0 57 -3 83 -10c-11 18 -18 39 -18 60c0 119 78 169 175 169c94 0 174 -48 174 -167v-62h174v-84h-174
v-266c0 -49 29 -71 72 -71c34 0 59 12 81 32z" />
    <glyph glyph-name="longs_i" horiz-adv-x="539" 
d="M80 0v572c0 101 40 160 142 160c25 0 45 -4 61 -16l-8 -84c-10 9 -21 13 -34 13c-35 0 -55 -23 -55 -78v-567h-106zM403 584c-46 0 -72 25 -72 67s26 66 72 66s71 -24 71 -66s-25 -67 -71 -67zM456 500v-500h-107v500h107z" />
    <glyph glyph-name="longs_l" horiz-adv-x="592" 
d="M80 0v572c0 101 50 160 152 160c40 0 66 -8 83 -23l-15 -78c-12 10 -26 14 -44 14c-44 0 -70 -24 -70 -82v-563h-106zM467 725v-579c0 -49 12 -66 51 -66c25 0 41 3 67 13l-13 -86c-22 -11 -53 -17 -83 -17c-89 0 -129 44 -129 141v594h107z" />
    <glyph glyph-name="longs_s" horiz-adv-x="790" 
d="M80 0v572c0 101 50 160 152 160c40 0 66 -8 83 -23l-15 -78c-12 10 -26 14 -44 14c-44 0 -70 -24 -70 -82v-563h-106zM525 -10c-97 0 -181 32 -223 105l72 62c26 -60 85 -83 155 -83c71 0 107 26 107 60c0 31 -29 49 -116 66c-149 28 -201 71 -201 155
c0 81 76 155 210 155c111 0 174 -36 210 -113l-78 -58c-23 61 -66 87 -131 87c-62 0 -104 -30 -104 -61c0 -36 29 -55 123 -72c143 -26 194 -69 194 -152c0 -88 -80 -151 -218 -151z" />
    <glyph glyph-name="g.ss01_j" horiz-adv-x="884" 
d="M766 717c44 0 72 -26 72 -66s-28 -67 -72 -67c-43 0 -71 27 -71 67s28 66 71 66zM446 418l9 82h91v-460c0 -176 -94 -255 -262 -255c-107 0 -195 36 -213 130l102 36c10 -57 49 -85 125 -85c82 0 140 59 140 149v67c-32 -47 -89 -78 -161 -78c-136 0 -222 94 -222 253
s86 253 222 253c80 0 139 -37 169 -92zM713 -38v538h107v-546c0 -132 -89 -169 -166 -169c-40 0 -73 12 -98 30l20 89c17 -15 41 -27 72 -27c38 0 65 22 65 85zM301 91c83 0 137 60 137 161v11c0 99 -53 160 -137 160c-86 0 -138 -61 -138 -166s52 -166 138 -166z" />
    <glyph glyph-name="fl.ss02" horiz-adv-x="677" 
d="M313 645c-56 0 -88 -24 -88 -81v-64h162v-84h-159v-416h-107v416h-94v84h94v72c0 101 64 160 175 160c40 0 75 -9 94 -24l-20 -78c-15 10 -33 15 -57 15zM485 725h107v-725h-107v725z" />
    <glyph glyph-name="longs_l.ss02" horiz-adv-x="552" 
d="M80 0v572c0 101 50 160 152 160c40 0 66 -8 83 -23l-15 -78c-12 10 -26 14 -44 14c-44 0 -70 -24 -70 -82v-563h-106zM467 725v-725h-107v725h107z" />
    <glyph glyph-name="Gcommaaccent.sc" horiz-adv-x="645" 
d="M327 294h257v-294h-75l-4 83c-29 -53 -86 -91 -179 -91c-165 0 -272 108 -272 288c0 179 110 288 282 288c122 0 203 -46 244 -141l-93 -44c-24 68 -76 99 -149 99c-106 0 -176 -73 -176 -202c0 -130 62 -203 179 -203c90 0 145 46 145 126v12h-159v79zM253 -238l40 167
h104l-67 -167h-77z" />
    <glyph glyph-name="Kcommaaccent.sc" horiz-adv-x="610" 
d="M365 329l226 -329h-127l-176 263l-94 -94v-169h-107v560h107v-274l268 274h123zM236 -238l40 167h104l-67 -167h-77z" />
    <glyph glyph-name="Lcommaaccent.sc" horiz-adv-x="586" 
d="M194 87h321v-87h-428v560h107v-473zM226 -238l40 167h104l-67 -167h-77z" />
    <glyph glyph-name="Ncommaaccent.sc" horiz-adv-x="670" 
d="M583 560v-560h-132l-220 362l-47 86h-1l4 -86v-362h-100v560h132l220 -363l47 -85h1l-5 86v362h101zM396 -71l-67 -167h-77l40 167h104z" />
    <glyph glyph-name="Rcommaaccent.sc" horiz-adv-x="608" 
d="M422 229l155 -229h-119l-140 218h-125v-218h-106v560h248c129 0 210 -64 210 -171c0 -81 -45 -137 -123 -160zM193 476v-179h134c75 0 112 30 112 89c0 60 -37 90 -112 90h-134zM230 -238l40 167h104l-67 -167h-77z" />
    <glyph glyph-name="Scedilla.sc" horiz-adv-x="573" 
d="M530 159c0 -87 -69 -147 -177 -163c38 -27 58 -64 58 -101c0 -63 -48 -110 -124 -110c-52 0 -87 12 -115 37l33 62c16 -17 41 -30 70 -30c32 0 56 22 56 56c0 35 -17 57 -77 83c-105 8 -175 48 -219 108l65 76c37 -66 98 -98 190 -98c80 0 131 24 131 73
c0 121 -368 20 -368 243c0 98 89 173 235 173c113 0 185 -35 239 -108l-67 -73c-39 67 -86 94 -170 94c-81 0 -128 -32 -128 -77c0 -122 368 -25 368 -245z" />
    <glyph glyph-name="Scommaaccent.sc" horiz-adv-x="573" 
d="M288 568c113 0 185 -35 239 -108l-67 -73c-39 67 -86 94 -170 94c-81 0 -128 -32 -128 -77c0 -122 368 -25 368 -245c0 -103 -96 -167 -239 -167c-125 0 -207 42 -256 109l65 76c37 -66 98 -98 190 -98c80 0 131 24 131 73c0 121 -368 20 -368 243c0 98 89 173 235 173z
M359 -71l-67 -167h-77l40 167h104z" />
    <glyph glyph-name="uni0162.sc" horiz-adv-x="568" 
d="M538 473h-200v-471c45 -28 64 -64 64 -106c0 -64 -50 -111 -125 -111c-52 0 -88 12 -115 37l34 63c16 -17 40 -30 69 -30c31 0 57 21 57 56c0 37 -23 57 -79 89h-12v473h-202v87h509v-87z" />
    <glyph glyph-name="uni021A.sc" horiz-adv-x="568" 
d="M538 560v-87h-200v-473h-107v473h-202v87h509zM191 -238l40 167h104l-67 -167h-77z" />
    <glyph glyph-name="a.sc" horiz-adv-x="605" 
d="M478 0l-55 142h-243l-55 -142h-107l221 560h127l221 -560h-109zM212 224h179l-56 146l-32 103h-2l-33 -103z" />
    <glyph glyph-name="aacute.sc" horiz-adv-x="605" 
d="M422 788l-88 -151h-82l56 151h114zM478 0l-55 142h-243l-55 -142h-107l221 560h127l221 -560h-109zM212 224h179l-56 146l-32 103h-2l-33 -103z" />
    <glyph glyph-name="abreve.sc" horiz-adv-x="605" 
d="M302 630c-93 0 -154 61 -154 153h79c0 -45 31 -82 75 -82s75 37 75 82h79c0 -92 -61 -153 -154 -153zM478 0l-55 142h-243l-55 -142h-107l221 560h127l221 -560h-109zM212 224h179l-56 146l-32 103h-2l-33 -103z" />
    <glyph glyph-name="acircumflex.sc" horiz-adv-x="605" 
d="M302 738l-80 -107h-89l113 167h112l113 -167h-89zM478 0l-55 142h-243l-55 -142h-107l221 560h127l221 -560h-109zM212 224h179l-56 146l-32 103h-2l-33 -103z" />
    <glyph glyph-name="adieresis.sc" horiz-adv-x="605" 
d="M201 634c-39 0 -65 25 -65 63c0 39 26 63 65 63c40 0 66 -24 66 -63c0 -38 -26 -63 -66 -63zM403 634c-40 0 -65 25 -65 63c0 39 25 63 65 63s66 -24 66 -63c0 -38 -26 -63 -66 -63zM478 0l-55 142h-243l-55 -142h-107l221 560h127l221 -560h-109zM212 224h179l-56 146
l-32 103h-2l-33 -103z" />
    <glyph glyph-name="agrave.sc" horiz-adv-x="605" 
d="M341 637h-82l-88 151h114zM478 0l-55 142h-243l-55 -142h-107l221 560h127l221 -560h-109zM212 224h179l-56 146l-32 103h-2l-33 -103z" />
    <glyph glyph-name="amacron.sc" horiz-adv-x="605" 
d="M480 726v-78h-356v78h356zM478 0l-55 142h-243l-55 -142h-107l221 560h127l221 -560h-109zM212 224h179l-56 146l-32 103h-2l-33 -103z" />
    <glyph glyph-name="aogonek.sc" horiz-adv-x="605" 
d="M580 -134l18 -61c-22 -14 -56 -20 -89 -20c-74 0 -125 37 -125 107c0 53 30 92 90 119l-51 131h-243l-55 -142h-107l221 560h127l221 -560c-98 -28 -122 -60 -122 -97c0 -31 24 -49 62 -49c16 0 38 2 53 12zM212 224h179l-56 146l-32 103h-2l-33 -103z" />
    <glyph glyph-name="aring.sc" horiz-adv-x="605" 
d="M478 0l-55 142h-242l-55 -142h-108l211 530c-37 20 -59 56 -59 103c0 72 52 122 133 122s132 -50 132 -122c0 -47 -22 -83 -58 -103l210 -530h-109zM302 697c-39 0 -67 -27 -67 -65c0 -39 28 -65 67 -65c40 0 67 26 67 65c0 38 -27 65 -67 65zM212 224h179l-56 146
l-32 101h-2l-32 -101z" />
    <glyph glyph-name="atilde.sc" horiz-adv-x="605" 
d="M233 701c-27 0 -39 -24 -45 -66h-73c6 94 44 142 119 142c74 0 94 -65 134 -65c28 0 40 24 46 65h73c-6 -93 -45 -141 -118 -141c-76 0 -94 65 -136 65zM478 0l-55 142h-243l-55 -142h-107l221 560h127l221 -560h-109zM212 224h179l-56 146l-32 103h-2l-33 -103z" />
    <glyph glyph-name="ae.sc" horiz-adv-x="826" 
d="M468 83h316v-83h-417v174h-184l-87 -174h-105l290 560h491v-83h-304v-153h232v-83h-232v-158zM224 256h143v222h-32z" />
    <glyph glyph-name="b.sc" horiz-adv-x="603" 
d="M87 0v560h247c139 0 202 -56 202 -152c0 -62 -38 -110 -105 -125v-1c81 -8 121 -64 121 -129c0 -96 -74 -153 -213 -153h-252zM192 321h136c68 0 103 25 103 78s-35 79 -103 79h-136v-157zM192 81h146c71 0 109 27 109 80c0 52 -38 79 -109 79h-146v-159z" />
    <glyph glyph-name="c.sc" horiz-adv-x="612" 
d="M582 156c-25 -105 -121 -164 -252 -164c-167 0 -276 109 -276 288s108 288 280 288c121 0 211 -54 239 -159l-99 -37c-16 76 -61 109 -142 109c-102 0 -171 -72 -171 -201s70 -201 168 -201c92 0 141 35 153 108z" />
    <glyph glyph-name="cacute.sc" horiz-adv-x="612" 
d="M339 788h114l-88 -151h-82zM582 156c-25 -105 -121 -164 -252 -164c-167 0 -276 109 -276 288s108 288 280 288c121 0 211 -54 239 -159l-99 -37c-16 76 -61 109 -142 109c-102 0 -171 -72 -171 -201s70 -201 168 -201c92 0 141 35 153 108z" />
    <glyph glyph-name="ccaron.sc" horiz-adv-x="612" 
d="M502 800l-113 -167h-112l-113 167h89l80 -107l80 107h89zM582 156c-25 -105 -121 -164 -252 -164c-167 0 -276 109 -276 288s108 288 280 288c121 0 211 -54 239 -159l-99 -37c-16 76 -61 109 -142 109c-102 0 -171 -72 -171 -201s70 -201 168 -201c92 0 141 35 153 108z
" />
    <glyph glyph-name="ccedilla.sc" horiz-adv-x="612" 
d="M582 156c-21 -88 -91 -143 -190 -159c39 -28 59 -65 59 -102c0 -63 -48 -110 -124 -110c-52 0 -87 12 -115 37l33 62c16 -17 41 -30 70 -30c32 0 56 22 56 56c0 35 -17 57 -79 84c-145 15 -238 121 -238 286c0 179 108 288 280 288c121 0 211 -54 239 -159l-99 -37
c-16 76 -61 109 -142 109c-102 0 -171 -72 -171 -201s70 -201 168 -201c92 0 141 35 153 108z" />
    <glyph glyph-name="d.sc" horiz-adv-x="652" 
d="M302 560c186 0 294 -101 294 -279c0 -180 -108 -281 -294 -281h-215v560h215zM306 86c119 0 183 70 183 195c0 124 -64 193 -183 193h-112v-388h112z" />
    <glyph glyph-name="eth.sc" horiz-adv-x="668" 
d="M321 560c186 0 294 -101 294 -279c0 -180 -108 -281 -294 -281h-215v250h-86v63h86v247h215zM325 86c119 0 183 70 183 195c0 124 -64 193 -183 193h-112v-161h147v-63h-147v-164h112z" />
    <glyph glyph-name="dcaron.sc" horiz-adv-x="652" 
d="M350 633h-112l-113 167h89l80 -107l80 107h89zM302 560c186 0 294 -101 294 -279c0 -180 -108 -281 -294 -281h-215v560h215zM306 86c119 0 183 70 183 195c0 124 -64 193 -183 193h-112v-388h112z" />
    <glyph glyph-name="dcroat.sc" horiz-adv-x="668" 
d="M321 560c186 0 294 -101 294 -279c0 -180 -108 -281 -294 -281h-215v250h-86v63h86v247h215zM325 86c119 0 183 70 183 195c0 124 -64 193 -183 193h-112v-161h147v-63h-147v-164h112z" />
    <glyph glyph-name="e.sc" horiz-adv-x="575" 
d="M194 84h339v-84h-446v560h436v-84h-329v-152h257v-82h-257v-158z" />
    <glyph glyph-name="eacute.sc" horiz-adv-x="575" 
d="M425 788l-88 -151h-82l56 151h114zM194 84h339v-84h-446v560h436v-84h-329v-152h257v-82h-257v-158z" />
    <glyph glyph-name="ecaron.sc" horiz-adv-x="575" 
d="M354 633h-112l-113 167h89l80 -107l80 107h89zM194 84h339v-84h-446v560h436v-84h-329v-152h257v-82h-257v-158z" />
    <glyph glyph-name="ecircumflex.sc" horiz-adv-x="575" 
d="M299 738l-80 -107h-89l113 167h112l113 -167h-89zM194 84h339v-84h-446v560h436v-84h-329v-152h257v-82h-257v-158z" />
    <glyph glyph-name="edieresis.sc" horiz-adv-x="575" 
d="M197 634c-39 0 -65 25 -65 63c0 39 26 63 65 63c40 0 66 -24 66 -63c0 -38 -26 -63 -66 -63zM399 634c-40 0 -65 25 -65 63c0 39 25 63 65 63s66 -24 66 -63c0 -38 -26 -63 -66 -63zM194 84h339v-84h-446v560h436v-84h-329v-152h257v-82h-257v-158z" />
    <glyph glyph-name="edotaccent.sc" horiz-adv-x="575" 
d="M299 646c-43 0 -69 25 -69 66s26 66 69 66s70 -25 70 -66s-27 -66 -70 -66zM194 84h339v-84h-446v560h436v-84h-329v-152h257v-82h-257v-158z" />
    <glyph glyph-name="egrave.sc" horiz-adv-x="575" 
d="M347 637h-82l-88 151h114zM194 84h339v-84h-446v560h436v-84h-329v-152h257v-82h-257v-158z" />
    <glyph glyph-name="emacron.sc" horiz-adv-x="575" 
d="M477 726v-78h-356v78h356zM194 84h339v-84h-446v560h436v-84h-329v-152h257v-82h-257v-158z" />
    <glyph glyph-name="eogonek.sc" horiz-adv-x="575" 
d="M526 -134l18 -61c-21 -14 -56 -20 -89 -20c-74 0 -125 37 -125 102c0 54 31 89 86 113h-329v560h436v-84h-329v-152h257v-82h-257v-158h339v-84h1c-99 -29 -123 -60 -123 -97c0 -31 24 -49 62 -49c16 0 38 2 53 12z" />
    <glyph glyph-name="f.sc" horiz-adv-x="555" 
d="M523 476h-329v-154h257v-84h-257v-238h-107v560h436v-84z" />
    <glyph glyph-name="g.sc" horiz-adv-x="645" 
d="M327 294h257v-294h-75l-4 83c-29 -53 -86 -91 -179 -91c-165 0 -272 108 -272 288c0 179 110 288 282 288c122 0 203 -46 244 -141l-93 -44c-24 68 -76 99 -149 99c-106 0 -176 -73 -176 -202c0 -130 62 -203 179 -203c90 0 145 46 145 126v12h-159v79z" />
    <glyph glyph-name="gbreve.sc" horiz-adv-x="645" 
d="M338 630c-93 0 -154 61 -154 153h79c0 -45 31 -82 75 -82s75 37 75 82h79c0 -92 -61 -153 -154 -153zM327 294h257v-294h-75l-4 83c-29 -53 -86 -91 -179 -91c-165 0 -272 108 -272 288c0 179 110 288 282 288c122 0 203 -46 244 -141l-93 -44c-24 68 -76 99 -149 99
c-106 0 -176 -73 -176 -202c0 -130 62 -203 179 -203c90 0 145 46 145 126v12h-159v79z" />
    <glyph glyph-name="h.sc" horiz-adv-x="667" 
d="M473 560h107v-560h-107v240h-279v-240h-107v560h107v-233h279v233z" />
    <glyph glyph-name="i.sc" horiz-adv-x="280" 
d="M194 560v-560h-107v560h107z" />
    <glyph glyph-name="iacute.sc" horiz-adv-x="280" 
d="M149 788h114l-88 -151h-82zM194 560v-560h-107v560h107z" />
    <glyph glyph-name="iacute_j.loclNLD.sc" horiz-adv-x="813" 
d="M147 788h114l-87 -151h-83zM692 788h114l-88 -151h-83zM194 560v-560h-107v560h107zM734 560v-358c0 -136 -79 -210 -219 -210c-150 0 -218 86 -194 212l101 19c-14 -101 15 -144 92 -144c85 0 113 47 113 137v344h107z" />
    <glyph glyph-name="icircumflex.sc" horiz-adv-x="280" 
d="M309 631h-89l-80 107l-80 -107h-89l113 167h112zM194 560v-560h-107v560h107z" />
    <glyph glyph-name="idieresis.sc" horiz-adv-x="280" 
d="M53 760c39 0 65 -24 65 -63c0 -38 -26 -63 -65 -63s-64 25 -64 63c0 39 25 63 64 63zM227 760c39 0 65 -24 65 -63c0 -38 -26 -63 -65 -63c-40 0 -65 25 -65 63c0 39 25 63 65 63zM194 560v-560h-107v560h107z" />
    <glyph glyph-name="i.sc.loclTRK" horiz-adv-x="280" 
d="M140 741c44 0 70 -25 70 -66s-26 -66 -70 -66c-43 0 -69 25 -69 66s26 66 69 66zM194 560v-560h-107v560h107z" />
    <glyph glyph-name="igrave.sc" horiz-adv-x="280" 
d="M123 788l56 -151h-82l-88 151h114zM194 560v-560h-107v560h107z" />
    <glyph glyph-name="ij.sc" horiz-adv-x="813" 
d="M194 560v-560h-107v560h107zM734 560v-358c0 -136 -79 -210 -219 -210c-150 0 -219 86 -194 212l101 19c-14 -101 14 -144 92 -144c85 0 113 47 113 137v344h107z" />
    <glyph glyph-name="imacron.sc" horiz-adv-x="280" 
d="M255 726v-78h-230v78h230zM194 560v-560h-107v560h107z" />
    <glyph glyph-name="iogonek.sc" horiz-adv-x="280" 
d="M198 -132l21 -60c-24 -16 -52 -23 -91 -23c-73 0 -123 37 -123 102c0 48 27 88 82 116v557h107v-560c-87 -34 -108 -65 -108 -95c0 -33 19 -51 57 -51c23 0 40 4 55 14z" />
    <glyph glyph-name="j.sc" horiz-adv-x="533" 
d="M454 560v-358c0 -136 -79 -210 -219 -210c-150 0 -219 86 -194 212l101 19c-14 -101 14 -144 92 -144c85 0 113 47 113 137v344h107z" />
    <glyph glyph-name="k.sc" horiz-adv-x="610" 
d="M464 0l-176 263l-94 -94v-169h-107v560h107v-274l268 274h123l-220 -231l226 -329h-127z" />
    <glyph glyph-name="l.sc" horiz-adv-x="586" 
d="M194 87h321v-87h-428v560h107v-473z" />
    <glyph glyph-name="lacute.sc" horiz-adv-x="586" 
d="M266 788l-88 -151h-82l56 151h114zM194 87h321v-87h-428v560h107v-473z" />
    <glyph glyph-name="lcaron.sc" horiz-adv-x="586" 
d="M194 87h321v-87h-428v560h107v-473zM394 560l-47 -210h-70l21 210h96z" />
    <glyph glyph-name="ldot.sc" horiz-adv-x="601" 
d="M194 560v-473h321v-87h-428v560h107zM484 374c46 0 75 -28 75 -73c0 -44 -29 -72 -75 -72s-76 28 -76 72c0 45 30 73 76 73z" />
    <glyph glyph-name="lslash.sc" horiz-adv-x="560" 
d="M211 87h321v-87h-428v204l-98 -50v84l98 50v272h107v-218l154 79v-84l-154 -78v-172z" />
    <glyph glyph-name="m.sc" horiz-adv-x="794" 
d="M87 0v560h153l121 -335l35 -110h3l35 110l121 335h152v-560h-100v291l8 171h-2l-171 -462h-90l-171 462h-2l7 -171v-291h-99z" />
    <glyph glyph-name="n.sc" horiz-adv-x="670" 
d="M583 560v-560h-132l-220 362l-47 86h-1l4 -86v-362h-100v560h132l220 -363l47 -85h1l-5 86v362h101z" />
    <glyph glyph-name="nacute.sc" horiz-adv-x="670" 
d="M344 788h114l-88 -151h-82zM583 560v-560h-132l-220 362l-47 86h-1l4 -86v-362h-100v560h132l220 -363l47 -85h1l-5 86v362h101z" />
    <glyph glyph-name="ncaron.sc" horiz-adv-x="670" 
d="M507 800l-113 -167h-112l-113 167h89l80 -107l80 107h89zM583 560v-560h-132l-220 362l-47 86h-1l4 -86v-362h-100v560h132l220 -363l47 -85h1l-5 86v362h101z" />
    <glyph glyph-name="ntilde.sc" horiz-adv-x="670" 
d="M524 777c-6 -93 -45 -141 -118 -141c-76 0 -94 65 -136 65c-27 0 -39 -24 -45 -66h-73c6 94 44 142 119 142c74 0 94 -65 134 -65c28 0 40 24 46 65h73zM583 560v-560h-132l-220 362l-47 86h-1l4 -86v-362h-100v560h132l220 -363l47 -85h1l-5 86v362h101z" />
    <glyph glyph-name="o.sc" horiz-adv-x="670" 
d="M335 568c174 0 281 -109 281 -288s-107 -288 -281 -288s-281 109 -281 288s107 288 281 288zM335 481c-108 0 -174 -72 -174 -201s66 -201 174 -201s174 72 174 201s-66 201 -174 201z" />
    <glyph glyph-name="oacute.sc" horiz-adv-x="670" 
d="M340 788h114l-88 -151h-82zM335 568c174 0 281 -109 281 -288s-107 -288 -281 -288s-281 109 -281 288s107 288 281 288zM335 481c-108 0 -174 -72 -174 -201s66 -201 174 -201s174 72 174 201s-66 201 -174 201z" />
    <glyph glyph-name="ocircumflex.sc" horiz-adv-x="670" 
d="M504 631h-89l-80 107l-80 -107h-89l113 167h112zM335 568c174 0 281 -109 281 -288s-107 -288 -281 -288s-281 109 -281 288s107 288 281 288zM335 481c-108 0 -174 -72 -174 -201s66 -201 174 -201s174 72 174 201s-66 201 -174 201z" />
    <glyph glyph-name="odieresis.sc" horiz-adv-x="670" 
d="M233 760c40 0 66 -24 66 -63c0 -38 -26 -63 -66 -63c-39 0 -65 25 -65 63c0 39 26 63 65 63zM435 760c40 0 66 -24 66 -63c0 -38 -26 -63 -66 -63s-65 25 -65 63c0 39 25 63 65 63zM335 568c174 0 281 -109 281 -288s-107 -288 -281 -288s-281 109 -281 288
s107 288 281 288zM335 481c-108 0 -174 -72 -174 -201s66 -201 174 -201s174 72 174 201s-66 201 -174 201z" />
    <glyph glyph-name="ograve.sc" horiz-adv-x="670" 
d="M318 788l56 -151h-82l-88 151h114zM335 568c174 0 281 -109 281 -288s-107 -288 -281 -288s-281 109 -281 288s107 288 281 288zM335 481c-108 0 -174 -72 -174 -201s66 -201 174 -201s174 72 174 201s-66 201 -174 201z" />
    <glyph glyph-name="ohungarumlaut.sc" horiz-adv-x="670" 
d="M243 788h114l-88 -151h-82zM422 788h115l-88 -151h-83zM335 568c174 0 281 -109 281 -288s-107 -288 -281 -288s-281 109 -281 288s107 288 281 288zM335 481c-108 0 -174 -72 -174 -201s66 -201 174 -201s174 72 174 201s-66 201 -174 201z" />
    <glyph glyph-name="omacron.sc" horiz-adv-x="670" 
d="M513 726v-78h-356v78h356zM335 568c174 0 281 -109 281 -288s-107 -288 -281 -288s-281 109 -281 288s107 288 281 288zM335 481c-108 0 -174 -72 -174 -201s66 -201 174 -201s174 72 174 201s-66 201 -174 201z" />
    <glyph glyph-name="oslash.sc" horiz-adv-x="670" 
d="M535 497c52 -50 81 -124 81 -217c0 -179 -107 -288 -281 -288c-61 0 -114 13 -156 39l-42 -57h-63l65 86c-55 50 -85 125 -85 220c0 179 107 288 281 288c63 0 117 -14 161 -41l38 50h63zM335 481c-108 0 -174 -72 -174 -201c0 -60 15 -108 41 -142l234 314
c-27 19 -61 29 -101 29zM335 79c108 0 174 72 174 201c0 57 -13 103 -37 137l-232 -313c26 -16 58 -25 95 -25z" />
    <glyph glyph-name="otilde.sc" horiz-adv-x="670" 
d="M520 777c-6 -93 -45 -141 -118 -141c-76 0 -94 65 -136 65c-27 0 -39 -24 -45 -66h-73c6 94 44 142 119 142c74 0 94 -65 134 -65c28 0 40 24 46 65h73zM335 568c174 0 281 -109 281 -288s-107 -288 -281 -288s-281 109 -281 288s107 288 281 288zM335 481
c-108 0 -174 -72 -174 -201s66 -201 174 -201s174 72 174 201s-66 201 -174 201z" />
    <glyph glyph-name="oe.sc" horiz-adv-x="958" 
d="M596 84h321v-84h-403v82c-39 -59 -103 -90 -191 -90c-161 0 -269 109 -269 288s106 288 272 288c87 0 149 -31 188 -88v80h391v-84h-309v-152h240v-82h-240v-158zM334 79c100 0 162 71 162 201s-62 201 -162 201c-110 0 -174 -72 -174 -201s64 -201 174 -201z" />
    <glyph glyph-name="p.sc" horiz-adv-x="573" 
d="M324 560c129 0 210 -67 210 -179c0 -110 -81 -176 -210 -176h-130v-205h-107v560h237zM316 287c74 0 112 32 112 94c0 63 -38 95 -112 95h-122v-189h122z" />
    <glyph glyph-name="thorn.sc" horiz-adv-x="583" 
d="M314 464c147 0 225 -63 225 -179c0 -115 -78 -180 -225 -180h-120v-105h-107v560h107v-96h120zM318 189c74 0 115 30 115 96c0 65 -41 96 -115 96h-124v-192h124z" />
    <glyph glyph-name="q.sc" horiz-adv-x="670" 
d="M476 -85c45 0 81 15 104 36l29 -81c-30 -24 -83 -40 -135 -39c-102 1 -177 48 -179 163c-150 16 -241 121 -241 286c0 179 107 288 281 288s281 -109 281 -288c0 -167 -94 -273 -248 -287c8 -60 51 -78 108 -78zM161 280c0 -129 66 -201 174 -201s174 72 174 201
s-66 201 -174 201s-174 -72 -174 -201z" />
    <glyph glyph-name="r.sc" horiz-adv-x="608" 
d="M458 0l-140 218h-125v-218h-106v560h248c129 0 210 -64 210 -171c0 -81 -45 -137 -123 -160l155 -229h-119zM193 476v-179h134c75 0 112 30 112 89c0 60 -37 90 -112 90h-134z" />
    <glyph glyph-name="racute.sc" horiz-adv-x="608" 
d="M414 788l-88 -151h-82l56 151h114zM458 0l-140 218h-125v-218h-106v560h248c129 0 210 -64 210 -171c0 -81 -45 -137 -123 -160l155 -229h-119zM193 476v-179h134c75 0 112 30 112 89c0 60 -37 90 -112 90h-134z" />
    <glyph glyph-name="rcaron.sc" horiz-adv-x="608" 
d="M350 633h-112l-113 167h89l80 -107l80 107h89zM458 0l-140 218h-125v-218h-106v560h248c129 0 210 -64 210 -171c0 -81 -45 -137 -123 -160l155 -229h-119zM193 476v-179h134c75 0 112 30 112 89c0 60 -37 90 -112 90h-134z" />
    <glyph glyph-name="s.sc" horiz-adv-x="573" 
d="M288 568c113 0 185 -35 239 -108l-67 -73c-39 67 -86 94 -170 94c-81 0 -128 -32 -128 -77c0 -122 368 -25 368 -245c0 -103 -96 -167 -239 -167c-125 0 -207 42 -256 109l65 76c37 -66 98 -98 190 -98c80 0 131 24 131 73c0 121 -368 20 -368 243c0 98 89 173 235 173z
" />
    <glyph glyph-name="sacute.sc" horiz-adv-x="573" 
d="M295 788h114l-88 -151h-82zM288 568c113 0 185 -35 239 -108l-67 -73c-39 67 -86 94 -170 94c-81 0 -128 -32 -128 -77c0 -122 368 -25 368 -245c0 -103 -96 -167 -239 -167c-125 0 -207 42 -256 109l65 76c37 -66 98 -98 190 -98c80 0 131 24 131 73
c0 121 -368 20 -368 243c0 98 89 173 235 173z" />
    <glyph glyph-name="scaron.sc" horiz-adv-x="573" 
d="M458 800l-113 -167h-112l-113 167h89l80 -107l80 107h89zM288 568c113 0 185 -35 239 -108l-67 -73c-39 67 -86 94 -170 94c-81 0 -128 -32 -128 -77c0 -122 368 -25 368 -245c0 -103 -96 -167 -239 -167c-125 0 -207 42 -256 109l65 76c37 -66 98 -98 190 -98
c80 0 131 24 131 73c0 121 -368 20 -368 243c0 98 89 173 235 173z" />
    <glyph glyph-name="germandbls.sc" horiz-adv-x="638" 
d="M420 310c109 0 184 -49 184 -152c0 -101 -77 -162 -186 -162c-76 0 -128 22 -155 52l35 70c24 -22 60 -41 104 -41c61 0 101 32 101 82c0 65 -44 81 -114 81h-79v70l152 165h-146c-69 0 -122 -48 -122 -120v-355h-107v360c0 121 90 200 219 200h263v-84l-158 -166h9z" />
    <glyph glyph-name="t.sc" horiz-adv-x="568" 
d="M538 560v-87h-200v-473h-107v473h-202v87h509z" />
    <glyph glyph-name="tcaron.sc" horiz-adv-x="568" 
d="M339 633h-112l-113 167h89l80 -107l80 107h89zM538 560v-87h-200v-473h-107v473h-202v87h509z" />
    <glyph glyph-name="u.sc" horiz-adv-x="650" 
d="M571 560v-342c0 -149 -85 -226 -246 -226s-246 77 -246 226v342h107v-335c0 -99 45 -146 139 -146s139 47 139 146v335h107z" />
    <glyph glyph-name="uacute.sc" horiz-adv-x="650" 
d="M330 788h114l-88 -151h-82zM571 560v-342c0 -149 -85 -226 -246 -226s-246 77 -246 226v342h107v-335c0 -99 45 -146 139 -146s139 47 139 146v335h107z" />
    <glyph glyph-name="ucircumflex.sc" horiz-adv-x="650" 
d="M494 631h-89l-80 107l-80 -107h-89l113 167h112zM571 560v-342c0 -149 -85 -226 -246 -226s-246 77 -246 226v342h107v-335c0 -99 45 -146 139 -146s139 47 139 146v335h107z" />
    <glyph glyph-name="udieresis.sc" horiz-adv-x="650" 
d="M223 760c40 0 66 -24 66 -63c0 -38 -26 -63 -66 -63c-39 0 -65 25 -65 63c0 39 26 63 65 63zM425 760c40 0 66 -24 66 -63c0 -38 -26 -63 -66 -63s-65 25 -65 63c0 39 25 63 65 63zM571 560v-342c0 -149 -85 -226 -246 -226s-246 77 -246 226v342h107v-335
c0 -99 45 -146 139 -146s139 47 139 146v335h107z" />
    <glyph glyph-name="ugrave.sc" horiz-adv-x="650" 
d="M308 788l56 -151h-82l-88 151h114zM571 560v-342c0 -149 -85 -226 -246 -226s-246 77 -246 226v342h107v-335c0 -99 45 -146 139 -146s139 47 139 146v335h107z" />
    <glyph glyph-name="uhungarumlaut.sc" horiz-adv-x="650" 
d="M242 788h114l-87 -151h-83zM422 788h114l-88 -151h-83zM571 560v-342c0 -149 -85 -226 -246 -226s-246 77 -246 226v342h107v-335c0 -99 45 -146 139 -146s139 47 139 146v335h107z" />
    <glyph glyph-name="umacron.sc" horiz-adv-x="650" 
d="M503 726v-78h-356v78h356zM571 560v-342c0 -149 -85 -226 -246 -226s-246 77 -246 226v342h107v-335c0 -99 45 -146 139 -146s139 47 139 146v335h107z" />
    <glyph glyph-name="uogonek.sc" horiz-adv-x="650" 
d="M464 560h107v-342c0 -119 -55 -193 -159 -217c-74 -34 -101 -67 -101 -99s25 -50 61 -50c17 0 38 2 53 11l18 -61c-22 -13 -55 -19 -88 -19c-74 0 -125 40 -125 103c0 47 22 80 63 107c-140 10 -214 86 -214 225v342h107v-335c0 -99 45 -146 139 -146s139 47 139 146v335
z" />
    <glyph glyph-name="uring.sc" horiz-adv-x="650" 
d="M325 780c78 0 128 -47 128 -119s-50 -120 -128 -120c-77 0 -128 48 -128 120s51 119 128 119zM325 725c-38 0 -65 -26 -65 -64c0 -37 27 -63 65 -63c39 0 66 26 66 63c0 38 -27 64 -66 64zM571 560v-342c0 -149 -85 -226 -246 -226s-246 77 -246 226v342h107v-335
c0 -99 45 -146 139 -146s139 47 139 146v335h107z" />
    <glyph glyph-name="v.sc" horiz-adv-x="602" 
d="M583 560l-219 -560h-125l-220 560h114l133 -356l36 -117h1l36 116l134 357h110z" />
    <glyph glyph-name="w.sc" horiz-adv-x="890" 
d="M445 467l-37 -168l-81 -299h-133l-169 560h112l89 -328l40 -147l122 475h116l125 -476l39 148l89 328h108l-168 -560h-130l-82 299l-39 168h-1z" />
    <glyph glyph-name="x.sc" horiz-adv-x="561" 
d="M540 0h-125l-140 210l-142 -210h-121l206 287l-188 273h124l129 -197l132 197h116l-191 -272z" />
    <glyph glyph-name="y.sc" horiz-adv-x="547" 
d="M536 560l-209 -348v-212h-107v212l-210 348h116l101 -178l47 -87l48 87l101 178h113z" />
    <glyph glyph-name="yacute.sc" horiz-adv-x="547" 
d="M279 788h114l-88 -151h-82zM536 560l-209 -348v-212h-107v212l-210 348h116l101 -178l47 -87l48 87l101 178h113z" />
    <glyph glyph-name="ydieresis.sc" horiz-adv-x="547" 
d="M172 760c40 0 66 -24 66 -63c0 -38 -26 -63 -66 -63c-39 0 -65 25 -65 63c0 39 26 63 65 63zM374 760c40 0 66 -24 66 -63c0 -38 -26 -63 -66 -63s-65 25 -65 63c0 39 25 63 65 63zM536 560l-209 -348v-212h-107v212l-210 348h116l101 -178l47 -87l48 87l101 178h113z
" />
    <glyph glyph-name="z.sc" horiz-adv-x="572" 
d="M159 86h369v-86h-481v78l298 340l58 56h-359v86h473v-81l-282 -318z" />
    <glyph glyph-name="zacute.sc" horiz-adv-x="572" 
d="M400 788l-88 -151h-82l56 151h114zM159 86h369v-86h-481v78l298 340l58 56h-359v86h473v-81l-282 -318z" />
    <glyph glyph-name="zcaron.sc" horiz-adv-x="569" 
d="M340 633h-112l-113 167h88l81 -107l80 107h89zM159 86h369v-86h-481v78l298 340l58 56h-359v86h473v-81l-282 -318z" />
    <glyph glyph-name="zdotaccent.sc" horiz-adv-x="572" 
d="M280 646c-43 0 -69 25 -69 66s26 66 69 66s70 -25 70 -66s-27 -66 -70 -66zM159 86h369v-86h-481v78l298 340l58 56h-359v86h473v-81l-282 -318z" />
    <glyph glyph-name="Rcommaaccent.sc.ss03" 
d="M87 0v560h248c129 0 210 -64 210 -167c0 -78 -46 -127 -122 -144v-2c66 -11 97 -51 101 -105c7 -90 16 -116 30 -139v-3h-113c-10 25 -16 61 -22 131c-5 59 -42 87 -121 87h-105v-218h-106zM193 297h131c75 0 115 30 115 89c0 60 -40 90 -115 90h-131v-179zM373 -71
l-67 -167h-77l40 167h104z" />
    <glyph glyph-name="r.sc.ss03" 
d="M87 0v560h248c129 0 210 -64 210 -167c0 -78 -46 -127 -122 -144v-2c66 -11 97 -51 101 -105c7 -90 16 -116 30 -139v-3h-113c-10 25 -16 61 -22 131c-5 59 -42 87 -121 87h-105v-218h-106zM193 297h131c75 0 115 30 115 89c0 60 -40 90 -115 90h-131v-179z" />
    <glyph glyph-name="racute.sc.ss03" 
d="M311 806h108l-99 -168h-82zM87 0v560h248c129 0 210 -64 210 -167c0 -78 -46 -127 -122 -144v-2c66 -11 97 -51 101 -105c7 -90 16 -116 30 -139v-3h-113c-10 25 -16 61 -22 131c-5 59 -42 87 -121 87h-105v-218h-106zM193 297h131c75 0 115 30 115 89
c0 60 -40 90 -115 90h-131v-179z" />
    <glyph glyph-name="rcaron.sc.ss03" 
d="M462 806l-111 -168h-114l-111 168h88l80 -103l80 103h88zM87 0v560h248c129 0 210 -64 210 -167c0 -78 -46 -127 -122 -144v-2c66 -11 97 -51 101 -105c7 -90 16 -116 30 -139v-3h-113c-10 25 -16 61 -22 131c-5 59 -42 87 -121 87h-105v-218h-106zM193 297h131
c75 0 115 30 115 89c0 60 -40 90 -115 90h-131v-179z" />
    <glyph glyph-name="Gcommaaccent.sc.ss04" horiz-adv-x="643" 
d="M330 289h264v-40c0 -165 -89 -257 -258 -257c-173 0 -281 107 -281 288c0 179 110 288 283 288c121 0 203 -44 245 -141l-96 -38c-21 61 -72 93 -148 93c-107 0 -177 -74 -177 -202c0 -130 63 -204 181 -204c116 0 157 75 157 136v4h-170v73zM264 -238l40 167h104
l-67 -167h-77z" />
    <glyph glyph-name="g.sc.ss04" horiz-adv-x="643" 
d="M330 289h264v-40c0 -165 -89 -257 -258 -257c-173 0 -281 107 -281 288c0 179 110 288 283 288c121 0 203 -44 245 -141l-96 -38c-21 61 -72 93 -148 93c-107 0 -177 -74 -177 -202c0 -130 63 -204 181 -204c116 0 157 75 157 136v4h-170v73z" />
    <glyph glyph-name="gbreve.sc.ss04" horiz-adv-x="643" 
d="M337 630c-93 0 -154 61 -154 153h79c0 -45 31 -82 75 -82s75 37 75 82h79c0 -92 -61 -153 -154 -153zM330 289h264v-40c0 -165 -89 -257 -258 -257c-173 0 -281 107 -281 288c0 179 110 288 283 288c121 0 203 -44 245 -141l-96 -38c-21 61 -72 93 -148 93
c-107 0 -177 -74 -177 -202c0 -130 63 -204 181 -204c116 0 157 75 157 136v4h-170v73z" />
    <glyph glyph-name="iacute_j.loclNLD.sc.ss05" horiz-adv-x="577" 
d="M204 788h115l-88 -151h-83zM400 788h114l-88 -151h-82zM498 560v-356c0 -134 -84 -212 -216 -212c-148 0 -216 66 -202 185h105c-8 -67 29 -98 98 -98c70 0 108 45 108 134v347h107zM186 560v-313h-107v313h107z" />
    <glyph glyph-name="ij.sc.ss05" horiz-adv-x="577" 
d="M498 560v-356c0 -134 -84 -212 -216 -212c-148 0 -216 66 -202 185h105c-8 -67 29 -98 98 -98c70 0 108 45 108 134v347h107zM186 560v-313h-107v313h107z" />
    <glyph glyph-name="ordfeminine" unicode="&#xaa;" horiz-adv-x="399" 
d="M356 378c11 0 18 1 23 4l-6 -51c-12 -6 -26 -10 -44 -10c-38 0 -65 17 -73 51c-23 -31 -68 -51 -126 -51c-68 0 -110 29 -110 83c0 56 40 90 132 107l89 16v13c0 38 -24 61 -66 61c-38 0 -69 -13 -84 -58l-65 27c13 57 66 94 153 94c97 0 147 -42 147 -123v-132
c0 -24 13 -31 30 -31zM158 381c38 0 83 22 83 61v38l-62 -13c-50 -10 -73 -23 -73 -51c0 -26 18 -35 52 -35zM28 186v64h334v-64h-334z" />
    <glyph glyph-name="ordmasculine" unicode="&#xba;" horiz-adv-x="379" 
d="M189 321c-106 0 -164 64 -164 171c0 108 58 172 164 172c107 0 165 -64 165 -172c0 -107 -58 -171 -165 -171zM189 384c53 0 78 38 78 108c0 71 -25 110 -78 110s-77 -39 -77 -110c0 -70 24 -108 77 -108zM36 186v64h307v-64h-307z" />
    <glyph glyph-name="pi" unicode="&#x3c0;" horiz-adv-x="752" 
d="M714 418h-147v-268c0 -53 32 -71 106 -69l-16 -82c-147 -4 -197 33 -197 133v286h-193v-418h-107v418h-132v82h686v-82z" />
    <glyph glyph-name="zero" unicode="0" horiz-adv-x="628" 
d="M314 -10c-167 0 -254 118 -254 340s87 340 254 340s255 -118 255 -340s-88 -340 -255 -340zM314 81c96 0 146 83 146 249s-50 249 -146 249s-145 -83 -145 -249s49 -249 145 -249z" />
    <glyph glyph-name="one" unicode="1" horiz-adv-x="418" 
d="M234 660h90v-660h-105v488c0 16 0 34 1 53c-45 -44 -106 -78 -166 -91l-20 93c53 7 165 67 200 117z" />
    <glyph glyph-name="two" unicode="2" horiz-adv-x="587" 
d="M70 0v79c253 178 337 269 337 379c0 70 -47 119 -125 119c-83 0 -133 -59 -140 -155l-93 43c13 125 100 205 239 205c146 0 229 -92 229 -208c0 -126 -86 -232 -305 -372v-2c25 2 82 4 109 4h208v-92h-459z" />
    <glyph glyph-name="three" unicode="3" horiz-adv-x="586" 
d="M293 670c140 0 215 -79 215 -176c0 -99 -66 -160 -124 -160v-2c75 0 139 -60 139 -154c0 -109 -96 -188 -240 -188c-120 0 -198 53 -237 160l98 47c19 -73 57 -115 143 -115c82 0 129 45 128 110c-1 72 -45 97 -136 97h-30v85h27c82 0 123 32 124 99
c1 69 -39 105 -109 105c-71 0 -113 -36 -125 -98l-98 40c29 97 116 150 225 150z" />
    <glyph glyph-name="four" unicode="4" horiz-adv-x="622" 
d="M579 248v-83h-112v-165h-101v165h-325v65l295 430h131v-412h112zM304 471l-156 -223h218v226l4 107h-2c-16 -34 -43 -79 -64 -110z" />
    <glyph glyph-name="five" unicode="5" horiz-adv-x="582" 
d="M319 424c127 0 208 -85 208 -209c0 -145 -95 -225 -235 -225c-122 0 -195 50 -239 145l100 55c18 -66 51 -109 137 -109c82 0 133 47 132 128c-1 82 -46 127 -128 127c-58 0 -106 -17 -134 -57l-89 6l41 375h383v-92h-298l-23 -183l-2 -14h1c30 33 79 53 146 53z" />
    <glyph glyph-name="six" unicode="6" horiz-adv-x="617" 
d="M332 670c106 0 177 -40 216 -141l-94 -45c-18 58 -57 93 -128 93c-97 0 -163 -108 -163 -254v-18h4c22 77 101 111 174 111c131 0 220 -82 220 -211c0 -132 -90 -215 -235 -215c-169 0 -261 135 -261 340c0 225 115 340 267 340zM326 327c-78 0 -129 -49 -129 -121
c0 -75 51 -124 129 -124c82 0 129 46 129 124c0 75 -47 121 -129 121z" />
    <glyph glyph-name="seven" unicode="7" horiz-adv-x="577" 
d="M41 660h503v-89c-167 -171 -230 -354 -230 -571h-109c0 209 74 403 228 567h-392v93z" />
    <glyph glyph-name="eight" unicode="8" horiz-adv-x="619" 
d="M310 669c134 0 221 -68 221 -177c0 -68 -36 -121 -97 -147v-1c77 -28 124 -84 124 -167c0 -115 -97 -187 -248 -187s-249 72 -249 187c0 81 47 139 125 167v1c-61 25 -98 78 -98 147c0 109 87 177 222 177zM310 579c-71 0 -115 -36 -115 -97c0 -60 45 -96 115 -96
c69 0 115 36 115 96c0 61 -45 97 -115 97zM310 80c87 0 140 41 140 109c0 69 -55 110 -140 110s-141 -41 -141 -110c0 -68 54 -109 141 -109z" />
    <glyph glyph-name="nine" unicode="9" horiz-adv-x="621" 
d="M297 670c169 0 261 -133 261 -341c0 -226 -94 -339 -262 -339c-121 0 -194 50 -233 148l101 47c19 -62 46 -103 132 -103c122 0 164 100 164 260v11h-4c-20 -84 -102 -113 -176 -113c-128 0 -219 83 -219 213c0 134 90 217 236 217zM297 576c-82 0 -129 -46 -129 -124
c0 -75 47 -121 129 -121c77 0 129 49 129 121c0 75 -52 124 -129 124z" />
    <glyph glyph-name="zero.osf" horiz-adv-x="603" 
d="M302 570c163 0 246 -100 246 -290s-83 -290 -246 -290s-247 100 -247 290s84 290 247 290zM302 487c-92 0 -140 -69 -140 -207s48 -207 140 -207s140 69 140 207s-48 207 -140 207z" />
    <glyph glyph-name="one.osf" horiz-adv-x="393" 
d="M217 560h90v-560h-106v394c0 16 1 34 2 52c-44 -42 -102 -75 -160 -86l-18 88c61 13 156 62 192 112z" />
    <glyph glyph-name="two.osf" horiz-adv-x="544" 
d="M266 570c143 0 223 -71 223 -193c0 -133 -110 -207 -238 -273c-19 -10 -34 -16 -57 -24v-2c29 2 59 5 92 5h223v-83h-460v82c214 102 335 166 335 294c0 84 -59 111 -118 111c-79 0 -137 -59 -128 -152l-95 36c0 113 77 199 223 199z" />
    <glyph glyph-name="three.osf" horiz-adv-x="541" 
d="M258 570c142 0 213 -81 213 -178c0 -99 -51 -147 -121 -158v-2c85 -4 136 -62 136 -149c0 -115 -95 -193 -237 -193c-120 0 -198 53 -237 160l93 47c19 -77 59 -124 147 -124c84 0 131 49 131 117c0 74 -47 102 -138 102h-30v78h27c82 0 126 39 126 107
c0 75 -39 110 -112 110s-116 -40 -129 -106l-93 39c29 97 115 150 224 150z" />
    <glyph glyph-name="four.osf" horiz-adv-x="618" 
d="M575 148v-83h-112v-165h-101v165h-325v65l295 430h131v-412h112zM300 371l-156 -223h218v226l4 107h-2c-16 -34 -43 -79 -64 -110z" />
    <glyph glyph-name="five.osf" horiz-adv-x="564" 
d="M313 324c127 0 205 -84 205 -210c0 -143 -92 -224 -232 -224c-121 0 -198 50 -239 149l95 51c18 -69 58 -117 142 -117s132 51 132 134c0 84 -45 134 -129 134c-60 0 -106 -23 -134 -63l-88 7l41 375h383v-86h-300l-23 -191c-1 -6 -2 -10 -2 -13h1c30 33 81 54 148 54z
" />
    <glyph glyph-name="six.osf" horiz-adv-x="597" 
d="M323 670c105 0 175 -41 214 -144l-92 -40c-17 60 -51 99 -124 99c-106 0 -168 -109 -168 -264v-20h4c22 81 106 115 176 115c128 0 216 -81 216 -211c0 -133 -90 -215 -232 -215c-169 0 -262 136 -262 340c0 223 114 340 268 340zM317 335c-78 0 -131 -53 -131 -130
c0 -79 53 -132 131 -132c83 0 130 49 130 133c0 81 -47 129 -130 129z" />
    <glyph glyph-name="seven.osf" horiz-adv-x="549" 
d="M12 560h504v-89c-173 -179 -231 -356 -231 -571h-106c0 210 74 407 232 572h-399v88z" />
    <glyph glyph-name="eight.osf" horiz-adv-x="599" 
d="M300 669c132 0 217 -67 217 -177c0 -67 -34 -120 -94 -147v-1c75 -27 123 -85 123 -166c0 -116 -97 -188 -246 -188c-150 0 -246 72 -246 188c0 79 46 138 123 166v1c-60 26 -95 79 -95 147c0 110 85 177 218 177zM300 586c-71 0 -116 -37 -116 -100s45 -101 116 -101
c70 0 115 38 115 101s-45 100 -115 100zM300 73c86 0 140 43 140 114s-54 115 -140 115c-87 0 -141 -44 -141 -115s54 -114 141 -114z" />
    <glyph glyph-name="nine.osf" horiz-adv-x="613" 
d="M298 570c167 0 260 -133 260 -341c0 -205 -92 -339 -260 -339c-121 0 -195 47 -234 151l95 43c14 -68 50 -111 139 -111c102 0 164 94 164 248c0 11 0 22 -1 38h-3c-18 -81 -91 -118 -175 -118c-131 0 -220 83 -220 214c0 132 91 215 235 215zM298 485
c-85 0 -133 -48 -133 -131c0 -81 48 -130 133 -130c78 0 130 53 130 130c0 79 -52 131 -130 131z" />
    <glyph glyph-name="zero.tf" 
d="M302 -10c-165 0 -252 118 -252 340s87 340 252 340s252 -118 252 -340s-87 -340 -252 -340zM302 81c95 0 143 83 143 249s-48 249 -143 249s-143 -83 -143 -249s48 -249 143 -249z" />
    <glyph glyph-name="one.tf" 
d="M395 89h172v-89h-468v89h193v399c0 18 1 38 2 59c-51 -46 -121 -82 -185 -95l-20 91c54 7 180 67 216 117h90v-571z" />
    <glyph glyph-name="two.tf" 
d="M75 0v79c253 178 337 269 337 379c0 70 -47 119 -124 119c-83 0 -134 -59 -141 -155l-93 43c13 125 101 205 239 205c147 0 229 -92 229 -208c0 -126 -86 -232 -305 -372v-2c26 2 83 4 110 4h208v-92h-460z" />
    <glyph glyph-name="three.tf" 
d="M307 670c140 0 214 -79 214 -176c0 -99 -66 -160 -124 -160v-2c75 0 139 -60 139 -154c0 -109 -96 -188 -239 -188c-120 0 -198 53 -237 160l101 49c16 -76 53 -117 139 -117c82 0 129 46 128 110c-1 72 -46 97 -135 97h-30v85h27c80 0 122 32 123 99
c1 69 -39 105 -108 105c-72 0 -114 -36 -126 -98l-97 40c29 97 116 150 225 150z" />
    <glyph glyph-name="four.tf" 
d="M348 0v162h-311v68l278 430h134v-412h122v-86h-122v-162h-101zM139 248h211v188c0 42 1 92 3 140h-2c-15 -33 -37 -69 -56 -98z" />
    <glyph glyph-name="five.tf" 
d="M332 424c127 0 207 -85 207 -209c0 -145 -94 -225 -235 -225c-121 0 -194 50 -238 145l100 55c18 -66 50 -109 136 -109c82 0 133 47 133 128c-1 82 -46 127 -129 127c-58 0 -105 -17 -134 -57l-89 6l41 375h383v-92h-298l-23 -183c0 -5 -2 -12 -2 -14h1
c31 33 80 53 147 53z" />
    <glyph glyph-name="six.tf" 
d="M330 670c105 0 175 -40 216 -141l-94 -45c-18 58 -57 93 -129 93c-95 0 -160 -108 -160 -254v-18h4c22 76 102 111 175 111c130 0 217 -82 217 -211c0 -132 -89 -215 -232 -215c-171 0 -262 137 -262 340c0 225 115 340 265 340zM325 327c-77 0 -128 -49 -128 -121
c0 -75 51 -124 128 -124c81 0 128 46 128 124c0 75 -47 121 -128 121z" />
    <glyph glyph-name="seven.tf" 
d="M48 660h517v-89c-168 -173 -241 -344 -241 -571h-109c0 214 83 406 241 567h-408v93z" />
    <glyph glyph-name="eight.tf" 
d="M302 669c130 0 214 -68 214 -177c0 -68 -37 -121 -94 -147v-1c72 -27 120 -84 120 -165c0 -117 -94 -189 -240 -189s-240 72 -240 189c0 79 47 137 121 165v1c-57 25 -95 78 -95 147c0 109 84 177 214 177zM302 579c-68 0 -110 -36 -110 -97c0 -60 44 -96 110 -96
s110 36 110 96c0 61 -42 97 -110 97zM302 80c83 0 134 41 134 109c0 69 -52 110 -134 110c-81 0 -134 -41 -134 -110c0 -68 52 -109 134 -109z" />
    <glyph glyph-name="nine.tf" 
d="M285 670c168 0 260 -133 260 -341c0 -226 -91 -339 -260 -339c-123 0 -195 50 -233 148l102 47c18 -63 46 -103 133 -103c121 0 162 100 162 260v11h-4c-21 -85 -100 -112 -175 -113c-130 -1 -219 81 -219 213c0 133 90 217 234 217zM285 576c-81 0 -128 -46 -128 -124
c0 -75 47 -121 128 -121c78 0 129 49 129 121c0 75 -51 124 -129 124z" />
    <glyph glyph-name="zero.tosf" 
d="M302 570c160 0 244 -100 244 -290s-84 -290 -244 -290s-244 100 -244 290s84 290 244 290zM302 487c-91 0 -138 -69 -138 -207s47 -207 138 -207s138 69 138 207s-47 207 -138 207z" />
    <glyph glyph-name="one.tosf" 
d="M396 87h172v-87h-469v87h194v291c0 21 2 46 3 73c-48 -45 -114 -80 -178 -93l-19 85c54 7 174 67 210 117h87v-473z" />
    <glyph glyph-name="two.tosf" 
d="M284 570c143 0 223 -71 223 -193c0 -133 -109 -207 -238 -273c-18 -10 -34 -16 -57 -24v-2c29 2 59 5 92 5h224v-83h-460v82c214 102 335 166 335 294c0 84 -59 111 -118 111c-80 0 -137 -59 -129 -152l-94 36c0 113 77 199 222 199z" />
    <glyph glyph-name="three.tosf" 
d="M306 570c142 0 213 -81 213 -178c0 -99 -52 -147 -122 -158v-2c86 -4 136 -62 136 -149c0 -115 -95 -193 -236 -193c-120 0 -198 53 -238 160l94 47c19 -77 59 -124 146 -124c84 0 131 49 131 117c0 74 -46 102 -138 102h-29v78h27c81 0 126 39 126 107
c0 75 -40 110 -112 110c-73 0 -116 -40 -129 -106l-94 39c29 97 115 150 225 150z" />
    <glyph glyph-name="four.tosf" 
d="M362 -100v165h-318v65l287 430h133v-412h109v-83h-109v-165h-102zM146 148h218v188c0 42 1 93 4 141h-2c-15 -34 -37 -67 -56 -95z" />
    <glyph glyph-name="five.tosf" 
d="M340 324c127 0 205 -84 205 -210c0 -143 -91 -224 -232 -224c-121 0 -197 50 -238 149l95 51c18 -69 58 -117 142 -117s131 51 131 134c0 84 -44 134 -129 134c-60 0 -105 -23 -134 -63l-87 7l40 375h384v-86h-300l-23 -191c-1 -6 -2 -10 -3 -13h1c31 33 81 54 148 54z
" />
    <glyph glyph-name="six.tosf" 
d="M329 670c105 0 176 -41 214 -144l-92 -40c-17 60 -50 99 -123 99c-106 0 -168 -109 -168 -264v-20h3c23 81 106 115 176 115c129 0 216 -81 216 -211c0 -133 -89 -215 -231 -215c-169 0 -263 136 -263 340c0 223 114 340 268 340zM324 335c-79 0 -132 -53 -132 -130
c0 -79 53 -132 132 -132c82 0 130 49 130 133c0 81 -48 129 -130 129z" />
    <glyph glyph-name="seven.tosf" 
d="M54 560h498v-89c-167 -171 -230 -354 -230 -571h-107c0 211 74 407 231 572h-392v88z" />
    <glyph glyph-name="eight.tosf" 
d="M300 669c132 0 218 -67 218 -177c0 -67 -35 -120 -95 -147v-1c75 -27 123 -85 123 -166c0 -116 -97 -188 -246 -188s-246 72 -246 188c0 79 46 138 123 166v1c-60 26 -95 79 -95 147c0 110 85 177 218 177zM300 586c-71 0 -116 -37 -116 -100s45 -101 116 -101
c70 0 115 38 115 101s-45 100 -115 100zM300 73c86 0 140 43 140 114s-54 115 -140 115c-87 0 -141 -44 -141 -115s54 -114 141 -114z" />
    <glyph glyph-name="nine.tosf" 
d="M279 570c167 0 260 -133 260 -341c0 -205 -92 -339 -260 -339c-121 0 -195 47 -234 151l95 43c13 -68 50 -111 139 -111c102 0 164 94 164 248c0 11 0 22 -1 38h-4c-17 -81 -90 -118 -174 -118c-131 0 -220 83 -220 214c0 132 91 215 235 215zM278 485
c-84 0 -132 -48 -132 -131c0 -81 48 -130 132 -130c79 0 131 53 131 130c0 79 -52 131 -131 131z" />
    <glyph glyph-name="zero.zero" horiz-adv-x="628" 
d="M314 670c167 0 255 -118 255 -340s-88 -340 -255 -340s-254 118 -254 340s87 340 254 340zM314 579c-96 0 -145 -83 -145 -249c0 -81 12 -143 35 -184l175 417c-19 11 -40 16 -65 16zM314 81c96 0 146 83 146 249c0 79 -12 139 -34 181l-173 -416c17 -10 38 -14 61 -14z
" />
    <glyph glyph-name="zero.osf.zero" horiz-adv-x="603" 
d="M302 570c163 0 246 -100 246 -290s-83 -290 -246 -290s-247 100 -247 290s84 290 247 290zM302 487c-92 0 -140 -69 -140 -207c0 -66 11 -116 32 -151l173 342c-18 10 -40 16 -65 16zM302 73c92 0 140 69 140 207c0 60 -9 107 -27 141l-171 -336c17 -8 36 -12 58 -12z
" />
    <glyph glyph-name="zero.tf.zero" 
d="M302 670c165 0 252 -118 252 -340s-87 -340 -252 -340s-252 118 -252 340s87 340 252 340zM302 579c-95 0 -143 -83 -143 -249c0 -84 12 -147 37 -189l168 423c-17 10 -38 15 -62 15zM302 81c95 0 143 83 143 249c0 81 -11 143 -34 184l-167 -420c17 -9 36 -13 58 -13z
" />
    <glyph glyph-name="zero.tosf.zero" 
d="M302 570c160 0 244 -100 244 -290s-84 -290 -244 -290s-244 100 -244 290s84 290 244 290zM302 487c-91 0 -138 -69 -138 -207c0 -70 12 -122 36 -157l174 344c-20 13 -44 20 -72 20zM302 73c91 0 138 69 138 207c0 55 -7 99 -22 132l-167 -330c15 -6 32 -9 51 -9z" />
    <glyph glyph-name="fraction" unicode="&#x2044;" horiz-adv-x="253" 
d="M-158 0l477 660h91l-477 -660h-91z" />
    <glyph glyph-name="onehalf" unicode="&#xbd;" horiz-adv-x="884" 
d="M123 509c0 18 1 43 3 69c-32 -28 -72 -50 -113 -55v73c38 6 100 38 121 69h75v-397h-86v241zM578 660h91l-477 -660h-91zM731 65h126v-69h-310v57c31 20 61 40 91 62c93 71 121 106 121 149c0 38 -23 65 -68 65c-47 0 -75 -33 -76 -88l-80 25c4 83 66 132 159 132
c107 0 155 -63 155 -128c0 -56 -41 -110 -130 -171c-19 -13 -39 -24 -60 -36v-1c15 1 53 3 72 3z" />
    <glyph glyph-name="onequarter" unicode="&#xbc;" horiz-adv-x="817" 
d="M123 509c0 18 1 43 3 69c-32 -28 -72 -50 -113 -55v73c38 6 100 38 121 69h75v-397h-86v241zM578 660h91l-477 -660h-91zM731 150h67v-59h-67v-95h-74v95h-199v43l175 259h98v-243zM657 253c0 26 1 53 3 78h-3c-8 -16 -21 -40 -31 -56l-89 -125h120v103z" />
    <glyph glyph-name="threequarters" unicode="&#xbe;" horiz-adv-x="925" 
d="M183 670c92 0 144 -43 144 -109c0 -59 -41 -91 -80 -93v-2c45 -1 89 -31 89 -89c0 -70 -63 -115 -154 -115c-85 0 -140 30 -162 97l81 34c6 -44 32 -64 78 -64c42 0 69 23 69 59c0 33 -23 50 -69 50h-24v54h21c42 0 63 20 63 54c0 36 -22 55 -60 55s-63 -18 -70 -57
l-78 27c16 68 77 99 152 99zM209 0l477 660h91l-477 -660h-91zM906 150v-59h-67v-95h-74v95h-199v43l175 259h98v-243h67zM645 150h120v103c0 26 1 53 3 78h-3c-8 -16 -21 -40 -31 -56z" />
    <glyph glyph-name="zero.dnom" horiz-adv-x="401" 
d="M201 -10c-113 0 -170 69 -170 204s57 204 170 204c112 0 169 -69 169 -204s-57 -204 -169 -204zM201 56c57 0 83 45 83 138s-26 138 -83 138c-58 0 -84 -45 -84 -138s26 -138 84 -138z" />
    <glyph glyph-name="one.dnom" horiz-adv-x="259" 
d="M134 393h75v-397h-86v241c0 18 1 43 3 69c-32 -28 -72 -50 -113 -55v73c38 6 100 38 121 69z" />
    <glyph glyph-name="two.dnom" horiz-adv-x="373" 
d="M36 -4v57c31 20 61 40 91 62c93 71 121 106 121 149c0 38 -23 65 -68 65c-47 0 -75 -33 -76 -88l-80 25c4 83 66 132 159 132c107 0 155 -63 155 -128c0 -56 -41 -110 -130 -171c-19 -13 -39 -24 -60 -36v-1c15 1 53 3 72 3h126v-69h-310z" />
    <glyph glyph-name="three.dnom" horiz-adv-x="367" 
d="M183 398c92 0 144 -43 144 -109c0 -59 -41 -91 -80 -93v-2c45 -1 89 -31 89 -89c0 -70 -63 -115 -154 -115c-85 0 -140 30 -162 97l81 34c6 -44 32 -64 78 -64c42 0 69 23 69 59c0 33 -23 50 -69 50h-24v54h21c42 0 63 20 63 54c0 36 -22 55 -60 55s-63 -18 -70 -57
l-78 27c16 68 77 99 152 99z" />
    <glyph glyph-name="four.dnom" horiz-adv-x="369" 
d="M350 150v-59h-67v-95h-74v95h-199v43l175 259h98v-243h67zM89 150h120v103c0 26 1 53 3 78h-3c-8 -16 -21 -40 -31 -56z" />
    <glyph glyph-name="five.dnom" horiz-adv-x="368" 
d="M208 252c82 0 131 -53 131 -124c0 -92 -68 -137 -156 -137c-76 0 -130 22 -161 84l78 40c9 -36 33 -57 80 -57c45 0 75 27 75 68c0 43 -23 66 -72 66c-40 0 -62 -12 -76 -34l-68 3l20 232h260v-68h-194l-7 -78c-1 -12 -3 -20 -6 -27h1c17 19 40 32 95 32z" />
    <glyph glyph-name="six.dnom" horiz-adv-x="385" 
d="M202 -10c-108 0 -170 70 -170 204c0 137 77 204 179 204c69 0 115 -24 140 -83l-69 -35c-9 30 -31 51 -71 51c-64 0 -97 -61 -97 -129v-12h1c26 38 57 53 106 53c81 0 136 -46 136 -126c0 -79 -58 -127 -155 -127zM203 57c46 0 73 22 73 61c0 38 -27 63 -73 63
c-44 0 -72 -29 -72 -63c0 -38 28 -61 72 -61z" />
    <glyph glyph-name="seven.dnom" horiz-adv-x="325" 
d="M5 393h313v-64c-97 -99 -130 -204 -130 -333h-86c0 118 41 233 132 327h-229v70z" />
    <glyph glyph-name="eight.dnom" horiz-adv-x="395" 
d="M197 397c92 0 150 -42 150 -109c0 -42 -24 -74 -70 -88v-1c53 -15 84 -47 84 -95c0 -71 -63 -114 -164 -114c-100 0 -164 43 -164 114c0 47 30 80 83 95v1c-44 13 -69 45 -69 88c0 67 57 109 150 109zM197 337c-42 0 -67 -20 -67 -53s26 -54 67 -54s67 21 67 54
s-25 53 -67 53zM197 51c48 0 78 23 78 58c0 37 -30 59 -78 59c-47 0 -78 -22 -78 -59c0 -35 30 -58 78 -58z" />
    <glyph glyph-name="nine.dnom" horiz-adv-x="390" 
d="M187 398c107 0 171 -72 171 -205c0 -136 -68 -203 -174 -203c-75 0 -129 27 -150 88l78 31c7 -34 27 -52 73 -52c68 0 91 59 91 118c0 6 0 12 -1 18h-1c-11 -26 -55 -50 -99 -50c-90 0 -144 49 -144 125c0 81 60 130 156 130zM190 331c-47 0 -74 -23 -74 -63
c0 -38 27 -62 73 -62c44 0 74 27 74 62c0 38 -30 63 -73 63z" />
    <glyph glyph-name="zero.numr" horiz-adv-x="401" 
d="M201 262c-113 0 -170 69 -170 204s57 204 170 204c112 0 169 -69 169 -204s-57 -204 -169 -204zM201 328c57 0 83 45 83 138s-26 138 -83 138c-58 0 -84 -45 -84 -138s26 -138 84 -138z" />
    <glyph glyph-name="one.numr" horiz-adv-x="259" 
d="M134 665h75v-397h-86v241c0 18 1 43 3 69c-32 -28 -72 -50 -113 -55v73c38 6 100 38 121 69z" />
    <glyph glyph-name="two.numr" horiz-adv-x="373" 
d="M36 268v57c31 20 61 40 91 62c93 71 121 106 121 149c0 38 -23 65 -68 65c-47 0 -75 -33 -76 -88l-80 25c4 83 66 132 159 132c107 0 155 -63 155 -128c0 -56 -41 -110 -130 -171c-19 -13 -39 -24 -60 -36v-1c15 1 53 3 72 3h126v-69h-310z" />
    <glyph glyph-name="three.numr" horiz-adv-x="367" 
d="M183 670c92 0 144 -43 144 -109c0 -59 -41 -91 -80 -93v-2c45 -1 89 -31 89 -89c0 -70 -63 -115 -154 -115c-85 0 -140 30 -162 97l81 34c6 -44 32 -64 78 -64c42 0 69 23 69 59c0 33 -23 50 -69 50h-24v54h21c42 0 63 20 63 54c0 36 -22 55 -60 55s-63 -18 -70 -57
l-78 27c16 68 77 99 152 99z" />
    <glyph glyph-name="four.numr" horiz-adv-x="369" 
d="M350 422v-59h-67v-95h-74v95h-199v43l175 259h98v-243h67zM89 422h120v103c0 26 1 53 3 78h-3c-8 -16 -21 -40 -31 -56z" />
    <glyph glyph-name="five.numr" horiz-adv-x="368" 
d="M208 524c82 0 131 -53 131 -124c0 -92 -68 -137 -156 -137c-76 0 -130 22 -161 84l78 40c9 -36 33 -57 80 -57c45 0 75 27 75 68c0 43 -23 66 -72 66c-40 0 -62 -12 -76 -34l-68 3l20 232h260v-68h-194l-7 -78c-1 -12 -3 -20 -6 -27h1c17 19 40 32 95 32z" />
    <glyph glyph-name="six.numr" horiz-adv-x="385" 
d="M202 262c-108 0 -170 70 -170 204c0 137 77 204 179 204c69 0 115 -24 140 -83l-69 -35c-9 30 -31 51 -71 51c-64 0 -97 -61 -97 -129v-12h1c26 38 57 53 106 53c81 0 136 -46 136 -126c0 -79 -58 -127 -155 -127zM203 329c46 0 73 22 73 61c0 38 -27 63 -73 63
c-44 0 -72 -29 -72 -63c0 -38 28 -61 72 -61z" />
    <glyph glyph-name="seven.numr" horiz-adv-x="325" 
d="M5 665h313v-64c-97 -99 -130 -204 -130 -333h-86c0 118 41 233 132 327h-229v70z" />
    <glyph glyph-name="eight.numr" horiz-adv-x="395" 
d="M197 669c92 0 150 -42 150 -109c0 -42 -24 -74 -70 -88v-1c53 -15 84 -47 84 -95c0 -71 -63 -114 -164 -114c-100 0 -164 43 -164 114c0 47 30 80 83 95v1c-44 13 -69 45 -69 88c0 67 57 109 150 109zM197 609c-42 0 -67 -20 -67 -53s26 -54 67 -54s67 21 67 54
s-25 53 -67 53zM197 323c48 0 78 23 78 58c0 37 -30 59 -78 59c-47 0 -78 -22 -78 -59c0 -35 30 -58 78 -58z" />
    <glyph glyph-name="nine.numr" horiz-adv-x="390" 
d="M187 670c107 0 171 -72 171 -205c0 -136 -68 -203 -174 -203c-75 0 -129 27 -150 88l78 31c7 -34 27 -52 73 -52c68 0 91 59 91 118c0 6 0 12 -1 18h-1c-11 -26 -55 -50 -99 -50c-90 0 -144 49 -144 125c0 81 60 130 156 130zM190 603c-47 0 -74 -23 -74 -63
c0 -38 27 -62 73 -62c44 0 74 27 74 62c0 38 -30 63 -73 63z" />
    <glyph glyph-name="uni2780" unicode="&#x2780;" horiz-adv-x="910" 
d="M455 700c225 0 376 -149 376 -370s-151 -370 -376 -370s-376 149 -376 370s151 370 376 370zM455 26c180 0 303 122 303 304s-123 304 -303 304s-303 -122 -303 -304s123 -304 303 -304zM325 464c38 6 100 38 121 69h75v-397h-86v241c0 18 1 43 3 69
c-32 -28 -72 -50 -113 -55v73z" />
    <glyph glyph-name="uni2781" unicode="&#x2781;" horiz-adv-x="910" 
d="M455 -40c-225 0 -376 149 -376 370s151 370 376 370s376 -149 376 -370s-151 -370 -376 -370zM455 26c180 0 303 122 303 304s-123 304 -303 304s-303 -122 -303 -304s123 -304 303 -304zM304 146v57c31 20 61 40 91 62c93 71 121 106 121 149c0 38 -23 65 -68 65
c-47 0 -75 -33 -76 -88l-80 25c4 83 66 132 159 132c107 0 155 -63 155 -128c0 -56 -41 -110 -130 -171c-19 -13 -39 -24 -60 -36v-1c15 1 53 3 72 3h126v-69h-310z" />
    <glyph glyph-name="uni2782" unicode="&#x2782;" horiz-adv-x="910" 
d="M455 -40c-225 0 -376 149 -376 370s151 370 376 370s376 -149 376 -370s-151 -370 -376 -370zM455 26c180 0 303 122 303 304s-123 304 -303 304s-303 -122 -303 -304s123 -304 303 -304zM461 535c92 0 144 -43 144 -109c0 -59 -41 -91 -80 -93v-2c45 -1 89 -31 89 -89
c0 -70 -63 -115 -154 -115c-85 0 -140 30 -162 97l81 34c6 -44 32 -64 78 -64c42 0 69 23 69 59c0 33 -23 50 -69 50h-24v54h21c42 0 63 20 63 54c0 36 -22 55 -60 55s-63 -18 -70 -57l-78 27c16 68 77 99 152 99z" />
    <glyph glyph-name="uni2783" unicode="&#x2783;" horiz-adv-x="910" 
d="M455 -40c-225 0 -376 149 -376 370s151 370 376 370s376 -149 376 -370s-151 -370 -376 -370zM455 26c180 0 303 122 303 304s-123 304 -303 304s-303 -122 -303 -304s123 -304 303 -304zM601 290v-59h-67v-95h-74v95h-199v43l175 259h98v-243h67zM340 290h120v103
c0 26 1 53 3 78h-3c-8 -16 -21 -40 -31 -56z" />
    <glyph glyph-name="uni2784" unicode="&#x2784;" horiz-adv-x="910" 
d="M455 -40c-225 0 -376 149 -376 370s151 370 376 370s376 -149 376 -370s-151 -370 -376 -370zM455 26c180 0 303 122 303 304s-123 304 -303 304s-303 -122 -303 -304s123 -304 303 -304zM480 383c82 0 131 -53 131 -124c0 -92 -68 -137 -156 -137c-76 0 -130 22 -161 84
l78 40c9 -36 33 -57 80 -57c45 0 75 27 75 68c0 43 -23 66 -72 66c-40 0 -62 -12 -76 -34l-68 3l20 232h260v-68h-194l-7 -78c-1 -12 -3 -20 -6 -27h1c17 19 40 32 95 32z" />
    <glyph glyph-name="uni2785" unicode="&#x2785;" horiz-adv-x="910" 
d="M455 -40c-225 0 -376 149 -376 370s151 370 376 370s376 -149 376 -370s-151 -370 -376 -370zM455 26c180 0 303 122 303 304s-123 304 -303 304s-303 -122 -303 -304s123 -304 303 -304zM452 126c-108 0 -170 70 -170 204c0 137 77 204 179 204c69 0 115 -24 140 -83
l-69 -35c-9 30 -31 51 -71 51c-64 0 -97 -61 -97 -129v-12h1c26 38 57 53 106 53c81 0 136 -46 136 -126c0 -79 -58 -127 -155 -127zM453 193c46 0 73 22 73 61c0 38 -27 63 -73 63c-44 0 -72 -29 -72 -63c0 -38 28 -61 72 -61z" />
    <glyph glyph-name="uni2786" unicode="&#x2786;" horiz-adv-x="910" 
d="M455 700c225 0 376 -149 376 -370s-151 -370 -376 -370s-376 149 -376 370s151 370 376 370zM455 26c180 0 303 122 303 304s-123 304 -303 304s-303 -122 -303 -304s123 -304 303 -304zM306 447v70h313v-64c-97 -99 -130 -204 -130 -333h-86c0 118 41 233 132 327h-229z
" />
    <glyph glyph-name="uni2787" unicode="&#x2787;" horiz-adv-x="910" 
d="M455 -40c-225 0 -376 149 -376 370s151 370 376 370s376 -149 376 -370s-151 -370 -376 -370zM455 26c180 0 303 122 303 304s-123 304 -303 304s-303 -122 -303 -304s123 -304 303 -304zM455 534c92 0 150 -42 150 -109c0 -42 -24 -74 -70 -88v-1c53 -15 84 -47 84 -95
c0 -71 -63 -114 -164 -114c-100 0 -164 43 -164 114c0 47 30 80 83 95v1c-44 13 -69 45 -69 88c0 67 57 109 150 109zM455 474c-42 0 -67 -20 -67 -53s26 -54 67 -54s67 21 67 54s-25 53 -67 53zM455 188c48 0 78 23 78 58c0 37 -30 59 -78 59c-47 0 -78 -22 -78 -59
c0 -35 30 -58 78 -58z" />
    <glyph glyph-name="uni2788" unicode="&#x2788;" horiz-adv-x="910" 
d="M455 -40c-225 0 -376 149 -376 370s151 370 376 370s376 -149 376 -370s-151 -370 -376 -370zM455 26c180 0 303 122 303 304s-123 304 -303 304s-303 -122 -303 -304s123 -304 303 -304zM457 535c107 0 171 -72 171 -205c0 -136 -68 -203 -174 -203
c-75 0 -129 27 -150 88l78 31c7 -34 27 -52 73 -52c68 0 91 59 91 118c0 6 0 12 -1 18h-1c-11 -26 -55 -50 -99 -50c-90 0 -144 49 -144 125c0 81 60 130 156 130zM460 468c-47 0 -74 -23 -74 -63c0 -38 27 -62 73 -62c44 0 74 27 74 62c0 38 -30 63 -73 63z" />
    <glyph glyph-name="uni2080" unicode="&#x2080;" horiz-adv-x="401" 
d="M201 -195c-113 0 -170 69 -170 204s57 204 170 204c112 0 169 -69 169 -204s-57 -204 -169 -204zM201 -129c57 0 83 45 83 138s-26 138 -83 138c-58 0 -84 -45 -84 -138s26 -138 84 -138z" />
    <glyph glyph-name="uni2081" unicode="&#x2081;" horiz-adv-x="259" 
d="M134 208h75v-397h-86v241c0 18 1 43 3 69c-32 -28 -72 -50 -113 -55v73c38 6 100 38 121 69z" />
    <glyph glyph-name="uni2082" unicode="&#x2082;" horiz-adv-x="373" 
d="M36 -189v57c31 20 61 40 91 62c93 71 121 106 121 149c0 38 -23 65 -68 65c-47 0 -75 -33 -76 -88l-80 25c4 83 66 132 159 132c107 0 155 -63 155 -128c0 -56 -41 -110 -130 -171c-19 -13 -39 -24 -60 -36v-1c15 1 53 3 72 3h126v-69h-310z" />
    <glyph glyph-name="uni2083" unicode="&#x2083;" horiz-adv-x="367" 
d="M183 213c92 0 144 -43 144 -109c0 -59 -41 -91 -80 -93v-2c45 -1 89 -31 89 -89c0 -70 -63 -115 -154 -115c-85 0 -140 30 -162 97l81 34c6 -44 32 -64 78 -64c42 0 69 23 69 59c0 33 -23 50 -69 50h-24v54h21c42 0 63 20 63 54c0 36 -22 55 -60 55s-63 -18 -70 -57
l-78 27c16 68 77 99 152 99z" />
    <glyph glyph-name="uni2084" unicode="&#x2084;" horiz-adv-x="369" 
d="M350 -35v-59h-67v-95h-74v95h-199v43l175 259h98v-243h67zM89 -35h120v103c0 26 1 53 3 78h-3c-8 -16 -21 -40 -31 -56z" />
    <glyph glyph-name="uni2085" unicode="&#x2085;" horiz-adv-x="368" 
d="M208 67c82 0 131 -53 131 -124c0 -92 -68 -137 -156 -137c-76 0 -130 22 -161 84l78 40c9 -36 33 -57 80 -57c45 0 75 27 75 68c0 43 -23 66 -72 66c-40 0 -62 -12 -76 -34l-68 3l20 232h260v-68h-194l-7 -78c-1 -12 -3 -20 -6 -27h1c17 19 40 32 95 32z" />
    <glyph glyph-name="uni2086" unicode="&#x2086;" horiz-adv-x="385" 
d="M202 -195c-108 0 -170 69 -170 204c0 137 77 204 179 204c69 0 115 -24 140 -83l-69 -35c-9 30 -31 51 -71 51c-64 0 -97 -61 -97 -129v-12h1c26 38 57 53 106 53c81 0 136 -46 136 -126c0 -79 -58 -127 -155 -127zM203 -129c46 0 73 23 73 62c0 38 -27 62 -73 62
c-44 0 -72 -29 -72 -62c0 -38 28 -62 72 -62z" />
    <glyph glyph-name="uni2087" unicode="&#x2087;" horiz-adv-x="325" 
d="M5 208h313v-64c-97 -99 -130 -204 -130 -333h-86c0 118 41 233 132 327h-229v70z" />
    <glyph glyph-name="uni2088" unicode="&#x2088;" horiz-adv-x="395" 
d="M197 212c92 0 150 -42 150 -109c0 -42 -24 -74 -70 -88v-1c53 -15 84 -47 84 -95c0 -71 -63 -114 -164 -114c-100 0 -164 43 -164 114c0 47 30 80 83 95v1c-44 13 -69 45 -69 88c0 67 57 109 150 109zM197 152c-42 0 -67 -20 -67 -53s26 -54 67 -54s67 21 67 54
s-25 53 -67 53zM197 -134c48 0 78 23 78 58c0 37 -30 59 -78 59c-47 0 -78 -22 -78 -59c0 -35 30 -58 78 -58z" />
    <glyph glyph-name="uni2089" unicode="&#x2089;" horiz-adv-x="390" 
d="M187 213c107 0 171 -72 171 -205c0 -136 -68 -203 -174 -203c-75 0 -129 26 -150 88l78 31c7 -34 27 -52 73 -52c68 0 91 59 91 117c0 7 0 13 -1 19h-1c-11 -26 -55 -50 -99 -50c-90 0 -144 49 -144 125c0 81 60 130 156 130zM190 146c-47 0 -74 -23 -74 -63
c0 -38 27 -62 73 -62c44 0 74 27 74 62c0 38 -30 63 -73 63z" />
    <glyph glyph-name="uni2070" unicode="&#x2070;" horiz-adv-x="401" 
d="M201 327c-113 0 -170 69 -170 204s57 204 170 204c112 0 169 -69 169 -204s-57 -204 -169 -204zM201 393c57 0 83 45 83 138s-26 138 -83 138c-58 0 -84 -45 -84 -138s26 -138 84 -138z" />
    <glyph glyph-name="uni00B9" unicode="&#xb9;" horiz-adv-x="259" 
d="M134 730h75v-397h-86v241c0 18 1 43 3 69c-32 -27 -72 -50 -113 -55v73c38 6 100 38 121 69z" />
    <glyph glyph-name="uni00B2" unicode="&#xb2;" horiz-adv-x="373" 
d="M36 333v57c31 20 61 40 91 62c93 71 121 106 121 149c0 38 -23 65 -68 65c-47 0 -75 -33 -76 -88l-80 25c4 83 66 132 159 132c107 0 155 -63 155 -128c0 -56 -41 -110 -130 -171c-19 -13 -39 -24 -60 -36v-1c15 1 53 3 72 3h126v-69h-310z" />
    <glyph glyph-name="uni00B3" unicode="&#xb3;" horiz-adv-x="367" 
d="M183 735c92 0 144 -43 144 -109c0 -59 -41 -91 -80 -93v-2c45 -1 89 -31 89 -89c0 -70 -63 -115 -154 -115c-85 0 -140 30 -162 97l81 34c6 -44 32 -64 78 -64c42 0 69 23 69 59c0 33 -23 50 -69 50h-24v54h21c42 0 63 20 63 54c0 36 -22 55 -60 55s-63 -18 -70 -57
l-78 27c16 68 77 99 152 99z" />
    <glyph glyph-name="uni2074" unicode="&#x2074;" horiz-adv-x="369" 
d="M350 487v-59h-67v-95h-74v95h-199v43l175 259h98v-243h67zM89 487h120v103c0 26 1 53 3 78h-3c-8 -16 -21 -40 -31 -56z" />
    <glyph glyph-name="uni2075" unicode="&#x2075;" horiz-adv-x="368" 
d="M208 589c82 0 131 -53 131 -124c0 -92 -68 -137 -156 -137c-76 0 -130 22 -161 84l78 40c9 -36 33 -57 80 -57c45 0 75 27 75 68c0 43 -23 66 -72 66c-40 0 -62 -12 -76 -34l-68 3l20 232h260v-68h-194l-7 -78c-1 -12 -3 -20 -6 -27h1c17 19 40 32 95 32z" />
    <glyph glyph-name="uni2076" unicode="&#x2076;" horiz-adv-x="385" 
d="M202 327c-108 0 -170 70 -170 204c0 137 77 204 179 204c69 0 115 -24 140 -83l-69 -35c-9 30 -31 51 -71 51c-64 0 -97 -61 -97 -129v-12h1c26 38 57 53 106 53c81 0 136 -46 136 -126c0 -79 -58 -127 -155 -127zM203 394c46 0 73 22 73 61c0 38 -27 63 -73 63
c-44 0 -72 -29 -72 -63c0 -38 28 -61 72 -61z" />
    <glyph glyph-name="uni2077" unicode="&#x2077;" horiz-adv-x="325" 
d="M5 730h313v-64c-97 -99 -130 -204 -130 -333h-86c0 118 41 234 131 327h-228v70z" />
    <glyph glyph-name="uni2078" unicode="&#x2078;" horiz-adv-x="395" 
d="M197 734c92 0 150 -42 150 -109c0 -42 -24 -74 -70 -88v-1c53 -15 84 -47 84 -95c0 -71 -63 -114 -164 -114c-100 0 -164 43 -164 114c0 47 30 80 83 95v1c-44 13 -69 45 -69 88c0 67 57 109 150 109zM197 674c-42 0 -67 -20 -67 -53s26 -54 67 -54s67 21 67 54
s-25 53 -67 53zM197 388c48 0 78 23 78 58c0 37 -30 59 -78 59c-47 0 -78 -22 -78 -59c0 -35 30 -58 78 -58z" />
    <glyph glyph-name="uni2079" unicode="&#x2079;" horiz-adv-x="390" 
d="M187 735c107 0 171 -72 171 -205c0 -136 -68 -203 -174 -203c-75 0 -129 27 -150 88l78 31c7 -34 27 -52 73 -52c68 0 91 59 91 118c0 6 0 12 -1 18h-1c-11 -26 -55 -50 -99 -50c-90 0 -144 49 -144 125c0 81 60 130 156 130zM190 668c-47 0 -74 -23 -74 -63
c0 -38 27 -62 73 -62c44 0 74 27 74 62c0 38 -30 63 -73 63z" />
    <glyph glyph-name="zero.sc" horiz-adv-x="577" 
d="M289 570c155 0 239 -102 239 -290s-84 -290 -239 -290c-156 0 -240 102 -240 290s84 290 240 290zM289 482c-89 0 -134 -65 -134 -202s45 -202 134 -202c88 0 133 65 133 202s-45 202 -133 202z" />
    <glyph glyph-name="one.sc" horiz-adv-x="382" 
d="M205 560h92v-560h-107v360c0 25 1 54 3 84c-44 -37 -100 -64 -158 -76l-18 89c52 7 150 54 188 103z" />
    <glyph glyph-name="two.sc" horiz-adv-x="528" 
d="M260 568c142 0 211 -79 211 -169c0 -138 -127 -233 -267 -317v-1c29 3 65 4 92 4h186v-85h-426v77c214 129 310 214 310 306c0 56 -36 98 -110 98c-78 0 -123 -60 -116 -139l-92 37c-1 104 68 189 212 189z" />
    <glyph glyph-name="three.sc" horiz-adv-x="532" 
d="M267 568c127 0 196 -67 196 -150c0 -87 -59 -133 -111 -135v-1c64 -1 124 -39 124 -120c0 -104 -88 -170 -215 -170c-113 0 -186 43 -221 136l99 44c13 -62 46 -95 122 -95c69 0 111 35 111 89c0 56 -38 78 -114 78h-32v74h28c68 0 104 28 105 81c1 54 -34 84 -96 84
s-98 -30 -108 -81l-96 35c24 85 106 131 208 131z" />
    <glyph glyph-name="four.sc" horiz-adv-x="565" 
d="M333 0v133h-293v62l261 365h132v-346h101v-81h-101v-133h-100zM146 214h188l1 269h-3c-13 -25 -34 -58 -49 -79z" />
    <glyph glyph-name="five.sc" horiz-adv-x="524" 
d="M290 359c110 0 182 -71 182 -176c0 -121 -82 -191 -212 -191c-110 0 -179 39 -218 121l93 49c17 -52 48 -85 122 -85c71 0 115 40 114 102c-1 65 -42 102 -112 102c-47 0 -93 -15 -117 -47l-84 7l36 319h352v-84h-271l-16 -137c-1 -11 -2 -19 -5 -28h1
c27 27 61 48 135 48z" />
    <glyph glyph-name="six.sc" horiz-adv-x="539" 
d="M289 -8c-159 0 -243 103 -243 289c0 189 104 287 242 287c100 0 159 -36 197 -119l-87 -41c-16 46 -49 75 -111 75c-87 0 -144 -87 -144 -207v-16h4c19 57 90 91 155 91c113 0 192 -66 192 -177c1 -110 -77 -182 -205 -182zM284 76c69 0 109 36 109 96s-40 96 -109 96
c-68 0 -112 -40 -112 -96c0 -58 44 -96 112 -96z" />
    <glyph glyph-name="seven.sc" horiz-adv-x="523" 
d="M38 560h453v-83c-148 -139 -200 -301 -202 -477h-105c1 172 64 340 198 473h-344v87z" />
    <glyph glyph-name="eight.sc" horiz-adv-x="561" 
d="M281 -8c-139 0 -227 61 -227 159c0 66 42 116 113 139v1c-61 22 -95 68 -95 124c0 95 82 152 209 152c126 0 208 -57 208 -152c0 -56 -34 -102 -95 -124v-1c71 -23 113 -73 113 -139c0 -98 -88 -159 -226 -159zM281 328c63 0 105 30 105 79c0 50 -41 79 -105 79
c-65 0 -106 -29 -106 -79c0 -49 42 -79 106 -79zM281 73c75 0 122 34 122 89s-49 89 -122 89c-74 0 -122 -34 -122 -89s46 -89 122 -89z" />
    <glyph glyph-name="nine.sc" horiz-adv-x="543" 
d="M259 -8c-109 0 -176 40 -212 123l95 46c11 -53 42 -85 116 -85c105 0 143 80 143 206v17h-3c-17 -65 -89 -92 -148 -92c-121 0 -203 65 -203 178c-1 111 79 183 215 183c149 0 234 -110 234 -290c0 -187 -84 -286 -237 -286zM261 288c66 0 111 40 111 96
c0 59 -44 98 -111 98c-70 0 -113 -36 -113 -97s43 -97 113 -97z" />
    <glyph glyph-name="asterisk" unicode="*" horiz-adv-x="577" 
d="M336 475l52 -52l74 -102l-66 -48l-74 102l-34 65l-34 -65l-73 -102l-66 48l74 102l51 52l-72 13l-119 38l24 77l120 -39l66 -32l-11 72l-1 126h83l-1 -126l-11 -72l66 32l120 39l24 -77l-119 -38z" />
    <glyph glyph-name="backslash" unicode="\" horiz-adv-x="447" 
d="M25 725h100l298 -795h-100z" />
    <glyph glyph-name="periodcentered" unicode="&#xb7;" horiz-adv-x="240" 
d="M120 427c46 0 76 -28 76 -73c0 -44 -30 -72 -76 -72s-75 28 -75 72c0 45 29 73 75 73z" />
    <glyph glyph-name="bullet" unicode="&#x2022;" horiz-adv-x="430" 
d="M215 465c80 0 134 -53 134 -129c0 -77 -54 -130 -134 -130c-79 0 -134 53 -134 130c0 76 55 129 134 129z" />
    <glyph glyph-name="colon" unicode=":" horiz-adv-x="298" 
d="M149 510c46 0 75 -28 75 -73c0 -44 -29 -72 -75 -72s-76 28 -76 72c0 45 30 73 76 73zM149 135c46 0 75 -28 75 -72s-29 -73 -75 -73s-76 29 -76 73s30 72 76 72z" />
    <glyph glyph-name="comma" unicode="," horiz-adv-x="273" 
d="M136 135c55 0 85 -45 85 -106c0 -72 -37 -142 -118 -179l-52 44c56 19 94 59 106 103l-5 2c-5 -5 -13 -8 -28 -8c-29 0 -64 22 -64 70c0 43 33 74 76 74z" />
    <glyph glyph-name="ellipsis" unicode="&#x2026;" horiz-adv-x="877" 
d="M143 135c46 0 75 -28 75 -72s-29 -73 -75 -73s-76 29 -76 73s30 72 76 72zM439 135c46 0 75 -28 75 -72s-29 -73 -75 -73s-76 29 -76 73s30 72 76 72zM734 135c46 0 76 -28 76 -72s-30 -73 -76 -73s-75 29 -75 73s29 72 75 72z" />
    <glyph glyph-name="exclam" unicode="!" horiz-adv-x="281" 
d="M196 660v-264l-14 -186h-84l-14 186v264h112zM140 132c46 0 75 -28 75 -71s-29 -70 -75 -70c-45 0 -74 27 -74 70s29 71 74 71z" />
    <glyph glyph-name="exclamdown" unicode="&#xa1;" horiz-adv-x="274" 
d="M137 368c-45 0 -74 28 -74 71s29 70 74 70c46 0 75 -27 75 -70s-29 -71 -75 -71zM81 -160v264l14 186h84l14 -186v-264h-112z" />
    <glyph glyph-name="numbersign" unicode="#" horiz-adv-x="655" 
d="M632 412h-134l-26 -160h116v-73h-128l-30 -179h-82l29 179h-155l-29 -179h-83l30 179h-118v73h130l26 160h-113v73h126l28 175h83l-29 -175h155l29 175h82l-29 -175h122v-73zM390 252l26 160h-155l-27 -160h156z" />
    <glyph glyph-name="period" unicode="." horiz-adv-x="273" 
d="M137 135c46 0 75 -28 75 -72s-29 -73 -75 -73s-76 29 -76 73s30 72 76 72z" />
    <glyph glyph-name="question" unicode="?" horiz-adv-x="562" 
d="M283 670c135 0 231 -62 231 -173c0 -120 -84 -175 -189 -186l-3 -101h-102l-2 151c131 16 182 52 182 121c0 57 -40 94 -124 94c-79 0 -132 -46 -140 -125l-99 47c20 101 104 172 246 172zM271 133c45 0 74 -28 74 -71c0 -44 -29 -71 -74 -71c-46 0 -75 27 -75 71
c0 43 29 71 75 71z" />
    <glyph glyph-name="questiondown" unicode="&#xbf;" horiz-adv-x="558" 
d="M288 367c-45 0 -74 28 -74 71c0 44 29 71 74 71c46 0 75 -27 75 -71c0 -43 -29 -71 -75 -71zM276 -170c-135 0 -231 62 -231 174c0 119 84 175 189 186l3 100h102l3 -150c-132 -17 -183 -53 -183 -122c0 -57 41 -94 124 -94c79 0 132 47 140 125l99 -47
c-20 -101 -104 -172 -246 -172z" />
    <glyph glyph-name="quotedbl" unicode="&#x22;" horiz-adv-x="416" 
d="M181 686l-27 -256h-78v256h105zM358 686l-27 -256h-77v256h104z" />
    <glyph glyph-name="quotesingle" unicode="'" horiz-adv-x="239" 
d="M181 686l-27 -256h-78v256h105z" />
    <glyph glyph-name="semicolon" unicode=";" horiz-adv-x="298" 
d="M153 365c-46 0 -75 28 -75 72c0 45 29 73 75 73s76 -28 76 -73c0 -44 -30 -72 -76 -72zM150 135c55 0 85 -45 85 -106c0 -72 -37 -142 -118 -179l-52 44c56 19 94 59 106 103l-5 2c-5 -5 -13 -8 -28 -8c-29 0 -64 22 -64 70c0 43 33 74 76 74z" />
    <glyph glyph-name="slash" unicode="/" horiz-adv-x="447" 
d="M422 725l-298 -795h-100l298 795h100z" />
    <glyph glyph-name="underscore" unicode="_" horiz-adv-x="539" 
d="M539 -88v-93h-539v93h539z" />
    <glyph glyph-name="periodcentered.case" horiz-adv-x="240" 
d="M120 419c46 0 76 -29 76 -73s-30 -73 -76 -73s-75 29 -75 73s29 73 75 73z" />
    <glyph glyph-name="exclamdown.case" horiz-adv-x="274" 
d="M137 528c-45 0 -74 28 -74 71s29 70 74 70c46 0 75 -27 75 -70s-29 -71 -75 -71zM81 0v264l14 186h84l14 -186v-264h-112z" />
    <glyph glyph-name="periodcentered.loclCAT.case" horiz-adv-x="26" 
d="M-70 419c46 0 75 -29 75 -73s-29 -73 -75 -73s-76 29 -76 73s30 73 76 73z" />
    <glyph glyph-name="questiondown.case" horiz-adv-x="558" 
d="M288 527c-45 0 -74 28 -74 71c0 44 29 71 74 71c46 0 75 -27 75 -71c0 -43 -29 -71 -75 -71zM276 -10c-135 0 -231 62 -231 174c0 119 84 175 189 186l3 100h102l3 -150c-132 -17 -183 -53 -183 -122c0 -57 41 -94 124 -94c79 0 132 47 140 125l99 -47
c-20 -101 -104 -172 -246 -172z" />
    <glyph glyph-name="periodcentered.loclCAT" horiz-adv-x="122" 
d="M40 427c46 0 75 -28 75 -73c0 -44 -29 -72 -75 -72s-76 28 -76 72c0 45 30 73 76 73z" />
    <glyph glyph-name="periodcentered.loclCAT.ss02" horiz-adv-x="240" 
d="M120 427c46 0 76 -28 76 -73c0 -44 -30 -72 -76 -72s-75 28 -75 72c0 45 29 73 75 73z" />
    <glyph glyph-name="colon.tf" horiz-adv-x="302" 
d="M151 510c46 0 75 -28 75 -73c0 -44 -29 -72 -75 -72s-75 28 -75 72c0 45 29 73 75 73zM151 135c46 0 75 -28 75 -72s-29 -73 -75 -73s-75 29 -75 73s29 72 75 72z" />
    <glyph glyph-name="comma.tf" horiz-adv-x="303" 
d="M152 135c55 0 85 -45 85 -106c0 -72 -37 -142 -118 -179l-52 44c56 19 94 59 106 103l-4 2c-6 -5 -14 -8 -29 -8c-29 0 -64 22 -64 70c0 43 33 74 76 74z" />
    <glyph glyph-name="numbersign.tf" 
d="M586 412h-114l-24 -160h93v-73h-104l-27 -179h-79l27 179h-148l-27 -179h-79l27 179h-113v73h125l24 160h-104v73h115l26 175h79l-27 -175h148l27 175h78l-26 -175h103v-73zM369 252l24 160h-148l-24 -160h148z" />
    <glyph glyph-name="period.tf" horiz-adv-x="302" 
d="M151 135c46 0 75 -28 75 -72s-29 -73 -75 -73s-75 29 -75 73s29 72 75 72z" />
    <glyph glyph-name="semicolon.tf" horiz-adv-x="302" 
d="M155 365c-46 0 -75 28 -75 72c0 45 29 73 75 73s76 -28 76 -73c0 -44 -30 -72 -76 -72zM151 135c55 0 85 -45 85 -106c0 -72 -37 -142 -118 -179l-52 44c57 19 95 59 106 103l-4 2c-6 -5 -13 -8 -29 -8c-28 0 -63 22 -63 70c0 43 33 74 75 74z" />
    <glyph glyph-name="uni208D" unicode="&#x208d;" horiz-adv-x="235" 
d="M193 297l48 -41c-70 -68 -96 -139 -96 -247s26 -179 96 -247l-48 -41c-84 70 -129 168 -129 288s45 218 129 288z" />
    <glyph glyph-name="uni208E" unicode="&#x208e;" horiz-adv-x="235" 
d="M42 297c84 -70 129 -168 129 -288s-45 -218 -129 -288l-48 41c70 68 96 139 96 247s-26 179 -96 247z" />
    <glyph glyph-name="braceleft" unicode="{" horiz-adv-x="372" 
d="M237 -50c0 -43 29 -62 99 -62l-11 -78c-132 0 -181 46 -181 138v185c0 75 -31 104 -112 104v82c81 0 112 29 112 104v186c0 92 49 138 181 138l11 -78c-70 0 -99 -20 -99 -62v-199c0 -71 -39 -112 -111 -130c72 -17 111 -58 111 -129v-199z" />
    <glyph glyph-name="braceright" unicode="}" horiz-adv-x="372" 
d="M228 423c0 -75 31 -104 112 -104v-82c-81 0 -112 -29 -112 -104v-185c0 -92 -49 -138 -181 -138l-11 78c70 0 98 19 98 62v199c0 71 39 112 111 129c-72 18 -111 59 -111 130v199c0 42 -28 62 -98 62l11 78c132 0 181 -46 181 -138v-186z" />
    <glyph glyph-name="bracketleft" unicode="[" horiz-adv-x="361" 
d="M330 640h-147v-723h147v-85h-244v893h244v-85z" />
    <glyph glyph-name="bracketright" unicode="]" horiz-adv-x="361" 
d="M275 725v-893h-244v85h147v723h-147v85h244z" />
    <glyph glyph-name="parenleft" unicode="(" horiz-adv-x="362" 
d="M283 747l56 -56c-126 -115 -173 -232 -173 -413s47 -297 173 -412l-56 -56c-145 117 -220 275 -220 468c0 194 75 352 220 469z" />
    <glyph glyph-name="parenright" unicode=")" horiz-adv-x="362" 
d="M80 747c144 -117 219 -275 219 -469c0 -193 -75 -351 -219 -468l-57 56c127 115 173 231 173 412s-46 298 -173 413z" />
    <glyph glyph-name="uni207D" unicode="&#x207d;" horiz-adv-x="235" 
d="M193 819l48 -41c-70 -68 -96 -139 -96 -247s26 -178 96 -247l-48 -41c-84 70 -129 168 -129 288s45 218 129 288z" />
    <glyph glyph-name="uni207E" unicode="&#x207e;" horiz-adv-x="235" 
d="M42 819c84 -70 129 -168 129 -288s-45 -218 -129 -288l-47 41c69 69 95 139 95 247s-26 179 -95 247z" />
    <glyph glyph-name="braceleft.case" horiz-adv-x="372" 
d="M237 21c0 -42 29 -61 99 -61l-11 -78c-132 0 -181 45 -181 138v163c0 75 -31 104 -112 104v82c81 0 112 29 112 104v163c0 93 49 138 181 138l11 -78c-70 0 -99 -19 -99 -61v-177c0 -71 -39 -112 -111 -130c72 -17 111 -58 111 -129v-178z" />
    <glyph glyph-name="braceright.case" horiz-adv-x="372" 
d="M228 473c0 -75 31 -104 112 -104v-82c-81 0 -112 -29 -112 -104v-163c0 -93 -49 -138 -181 -138l-11 78c70 0 98 19 98 61v178c0 71 39 112 111 129c-72 18 -111 59 -111 130v177c0 42 -28 61 -98 61l11 78c132 0 181 -45 181 -138v-163z" />
    <glyph glyph-name="bracketleft.case" horiz-adv-x="361" 
d="M330 667h-147v-679h147v-85h-244v849h244v-85z" />
    <glyph glyph-name="bracketright.case" horiz-adv-x="361" 
d="M275 752v-849h-244v85h147v679h-147v85h244z" />
    <glyph glyph-name="parenleft.case" horiz-adv-x="362" 
d="M283 795l56 -56c-126 -115 -173 -231 -173 -412s47 -297 173 -412l-56 -56c-145 116 -220 274 -220 468s75 352 220 468z" />
    <glyph glyph-name="parenright.case" horiz-adv-x="362" 
d="M79 795c145 -116 220 -274 220 -468s-75 -352 -220 -468l-56 56c126 115 173 231 173 412s-47 297 -173 412z" />
    <glyph glyph-name="emdash" unicode="&#x2014;" horiz-adv-x="1011" 
d="M931 310v-93h-850v93h850z" />
    <glyph glyph-name="endash" unicode="&#x2013;" horiz-adv-x="672" 
d="M592 310v-93h-511v93h511z" />
    <glyph glyph-name="hyphen" unicode="-" horiz-adv-x="515" 
d="M428 313v-99h-341v99h341z" />
    <glyph glyph-name="uni00AD" unicode="&#xad;" horiz-adv-x="515" 
d="M428 313v-99h-341v99h341z" />
    <glyph glyph-name="emdash.case" horiz-adv-x="1011" 
d="M931 380v-93h-850v93h850z" />
    <glyph glyph-name="endash.case" horiz-adv-x="672" 
d="M592 380v-93h-511v93h511z" />
    <glyph glyph-name="hyphen.case" horiz-adv-x="515" 
d="M428 384v-100h-341v100h341z" />
    <glyph glyph-name="guillemotleft" unicode="&#xab;" horiz-adv-x="521" 
d="M277 461l-126 -196l126 -196h-105l-126 196l126 196h105zM474 461l-126 -196l126 -196h-105l-126 196l126 196h105z" />
    <glyph glyph-name="guillemotright" unicode="&#xbb;" horiz-adv-x="520" 
d="M46 461h105l126 -196l-126 -196h-105l126 196zM243 461h105l126 -196l-126 -196h-105l126 196z" />
    <glyph glyph-name="guilsinglleft" unicode="&#x2039;" horiz-adv-x="324" 
d="M277 461l-126 -196l126 -196h-105l-126 196l126 196h105z" />
    <glyph glyph-name="guilsinglright" unicode="&#x203a;" horiz-adv-x="324" 
d="M47 461h105l126 -196l-126 -196h-105l126 196z" />
    <glyph glyph-name="quotedblbase" unicode="&#x201e;" horiz-adv-x="476" 
d="M134 135c55 0 85 -45 85 -106c0 -72 -37 -142 -118 -179l-52 44c56 19 94 59 106 103l-4 2c-6 -5 -13 -8 -29 -8c-29 0 -63 22 -63 70c0 43 32 74 75 74zM338 135c55 0 85 -45 85 -106c0 -72 -37 -142 -118 -179l-52 44c56 19 94 59 106 103l-5 2c-5 -5 -13 -8 -28 -8
c-29 0 -64 22 -64 70c0 43 33 74 76 74z" />
    <glyph glyph-name="quotedblleft" unicode="&#x201c;" horiz-adv-x="472" 
d="M134 413c-55 0 -85 45 -85 106c0 72 37 142 118 179l52 -44c-56 -19 -94 -59 -106 -103l5 -2c5 5 13 8 28 8c29 0 64 -22 64 -70c0 -43 -33 -74 -76 -74zM339 413c-55 0 -85 45 -85 106c0 72 37 142 118 179l52 -44c-56 -19 -94 -59 -106 -103l5 -2c5 5 13 8 28 8
c29 0 64 -22 64 -70c0 -43 -33 -74 -76 -74z" />
    <glyph glyph-name="quotedblright" unicode="&#x201d;" horiz-adv-x="470" 
d="M137 696c55 0 85 -45 85 -106c0 -72 -37 -142 -118 -179l-52 44c56 19 94 59 106 103l-5 2c-5 -5 -13 -8 -28 -8c-29 0 -64 22 -64 70c0 43 33 74 76 74zM341 696c55 0 85 -45 85 -106c0 -72 -37 -142 -118 -179l-52 44c56 19 94 59 106 103l-5 2c-5 -5 -13 -8 -28 -8
c-29 0 -64 22 -64 70c0 43 33 74 76 74z" />
    <glyph glyph-name="quoteleft" unicode="&#x2018;" horiz-adv-x="267" 
d="M134 412c-55 0 -85 45 -85 107c0 72 37 141 118 178l52 -43c-56 -19 -94 -59 -106 -103l5 -2c5 5 13 8 28 8c29 0 64 -22 64 -70c0 -43 -33 -75 -76 -75z" />
    <glyph glyph-name="quoteright" unicode="&#x2019;" horiz-adv-x="267" 
d="M137 697c55 0 85 -45 85 -106c0 -73 -37 -142 -118 -179l-52 43c56 20 94 60 106 103l-4 3c-6 -5 -14 -8 -29 -8c-29 0 -64 22 -64 69c0 43 33 75 76 75z" />
    <glyph glyph-name="quotesinglbase" unicode="&#x201a;" horiz-adv-x="272" 
d="M134 135c55 0 85 -45 85 -106c0 -72 -37 -142 -118 -179l-52 44c56 19 94 59 106 103l-4 2c-6 -5 -13 -8 -29 -8c-29 0 -63 22 -63 70c0 43 32 74 75 74z" />
    <glyph glyph-name="guillemotleft.case" horiz-adv-x="528" 
d="M277 522l-126 -196l126 -196h-105l-126 196l126 196h105zM474 522l-126 -196l126 -196h-105l-126 196l126 196h105z" />
    <glyph glyph-name="guillemotright.case" horiz-adv-x="528" 
d="M46 522h105l126 -196l-126 -196h-105l126 196zM243 522h105l126 -196l-126 -196h-105l126 196z" />
    <glyph glyph-name="guilsinglleft.case" horiz-adv-x="331" 
d="M277 522l-126 -196l126 -196h-105l-126 196l126 196h105z" />
    <glyph glyph-name="guilsinglright.case" horiz-adv-x="331" 
d="M47 522h105l126 -196l-126 -196h-105l126 196z" />
    <glyph glyph-name="periodcentered.sc" horiz-adv-x="240" 
d="M120 372c46 0 76 -28 76 -72c0 -45 -30 -73 -76 -73s-75 28 -75 73c0 44 29 72 75 72z" />
    <glyph glyph-name="exclam.sc" horiz-adv-x="257" 
d="M184 560v-208l-13 -172h-84l-13 172v208h110zM129 123c43 0 70 -26 70 -66s-27 -66 -70 -66s-71 26 -71 66s28 66 71 66z" />
    <glyph glyph-name="exclamdown.sc" horiz-adv-x="257" 
d="M128 437c-43 0 -70 26 -70 66s27 66 70 66s71 -26 71 -66s-28 -66 -71 -66zM73 0v208l13 172h85l12 -172v-208h-110z" />
    <glyph glyph-name="periodcentered.loclCAT.sc" horiz-adv-x="14" 
d="M-102 374c46 0 76 -28 76 -73c0 -44 -30 -72 -76 -72s-75 28 -75 72c0 45 29 73 75 73z" />
    <glyph glyph-name="question.sc" horiz-adv-x="489" 
d="M248 568c124 0 212 -52 212 -148c0 -100 -77 -146 -170 -156l-2 -77h-101l-1 116c124 17 165 45 165 102c0 47 -36 77 -108 77s-116 -36 -123 -101l-98 41c18 90 94 146 226 146zM235 123c42 0 70 -26 70 -66s-28 -66 -70 -66c-43 0 -71 26 -71 66s28 66 71 66z" />
    <glyph glyph-name="questiondown.sc" horiz-adv-x="476" 
d="M247 438c-42 0 -70 26 -70 66s28 66 70 66c43 0 71 -26 71 -66s-28 -66 -71 -66zM234 -7c-123 0 -212 51 -212 148c0 100 77 146 171 156l1 76h101l1 -115c-123 -17 -165 -45 -165 -102c0 -48 36 -78 108 -78s116 37 123 101l98 -40c-18 -90 -94 -146 -226 -146z" />
    <glyph glyph-name="quotedbl.sc" horiz-adv-x="419" 
d="M358 592l-27 -256h-77v256h104zM181 592l-27 -256h-78v256h105z" />
    <glyph glyph-name="quotedblleft.sc" horiz-adv-x="487" 
d="M142 320c-55 0 -85 45 -85 106c0 72 37 142 118 179l52 -44c-56 -19 -94 -59 -106 -103l5 -2c5 5 13 8 28 8c29 0 64 -22 64 -70c0 -43 -33 -74 -76 -74zM346 320c-55 0 -85 45 -85 106c0 72 37 142 118 179l52 -44c-56 -19 -94 -59 -106 -103l5 -2c5 5 13 8 28 8
c29 0 64 -22 64 -70c0 -43 -33 -74 -76 -74z" />
    <glyph glyph-name="quotedblright.sc" horiz-adv-x="486" 
d="M145 597c55 0 85 -45 85 -106c0 -72 -37 -142 -118 -179l-52 44c56 19 94 59 106 103l-5 2c-5 -5 -13 -8 -28 -8c-29 0 -64 22 -64 70c0 43 33 74 76 74zM348 597c55 0 85 -45 85 -106c0 -72 -37 -142 -118 -179l-52 44c56 19 94 59 106 103l-5 2c-5 -5 -13 -8 -28 -8
c-29 0 -64 22 -64 70c0 43 33 74 76 74z" />
    <glyph glyph-name="quoteleft.sc" horiz-adv-x="283" 
d="M143 319c-55 0 -85 46 -85 107c0 72 37 141 118 179l52 -44c-57 -19 -95 -59 -106 -103l4 -2c5 5 13 8 28 8c29 0 64 -22 64 -70c0 -43 -33 -75 -75 -75z" />
    <glyph glyph-name="quoteright.sc" horiz-adv-x="283" 
d="M145 598c55 0 85 -46 85 -107c0 -72 -37 -141 -118 -179l-52 44c56 19 94 59 106 103l-4 2c-6 -5 -14 -8 -29 -8c-29 0 -63 22 -63 70c0 43 32 75 75 75z" />
    <glyph glyph-name="quotesingle.sc" horiz-adv-x="241" 
d="M181 592l-27 -256h-78v256h105z" />
    <glyph glyph-name="uni00A0" unicode="&#xa0;" horiz-adv-x="325" 
 />
    <glyph glyph-name="space.tf" horiz-adv-x="302" 
 />
    <glyph glyph-name="Euro" unicode="&#x20ac;" horiz-adv-x="701" 
d="M575 201l90 -30c-35 -116 -135 -181 -251 -181c-145 0 -241 83 -274 223h-89v68h78c-1 16 -2 32 -2 49c0 10 0 20 1 30h-77v69h85c29 151 128 241 276 241c118 0 209 -55 244 -155l-89 -41c-19 73 -78 111 -147 111c-90 0 -154 -57 -179 -156h237l-22 -69h-225
c-1 -10 -1 -20 -1 -30c0 -17 1 -33 2 -49h206l-21 -68h-172c26 -88 85 -138 171 -138c70 0 137 43 159 126z" />
    <glyph glyph-name="cent" unicode="&#xa2;" horiz-adv-x="570" 
d="M528 140c-23 -84 -87 -139 -186 -149v-91h-74v93c-131 16 -207 110 -207 257c0 148 77 242 207 258v92h74v-91c100 -10 157 -64 182 -139l-91 -39c-15 54 -46 88 -91 98v-359c51 10 84 44 98 100zM158 249c0 -101 40 -161 110 -177v356c-71 -16 -110 -77 -110 -179z" />
    <glyph glyph-name="currency" unicode="&#xa4;" horiz-adv-x="659" 
d="M541 329c0 -45 -12 -85 -33 -119l92 -86l-66 -65l-89 91c-32 -20 -71 -31 -115 -31c-45 0 -85 12 -118 32l-87 -92l-65 65l91 88c-21 33 -33 73 -33 117c0 45 12 85 34 118l-92 86l65 65l89 -91c32 20 72 31 116 31c45 0 85 -11 118 -31l86 91l66 -65l-90 -88
c20 -33 31 -72 31 -116zM330 205c68 0 116 52 116 124s-48 123 -116 123s-117 -51 -117 -123s49 -124 117 -124z" />
    <glyph glyph-name="dollar" unicode="$" horiz-adv-x="622" 
d="M279 -96v97c-119 10 -198 64 -238 157l77 56c19 -70 85 -117 161 -130v208c-105 22 -214 51 -214 174c0 101 79 181 214 193v97h77v-98c107 -8 167 -53 215 -132l-71 -65c-34 72 -75 106 -144 114v-211c105 -22 214 -53 214 -178c0 -106 -86 -174 -214 -185v-97h-77z
M279 380v195c-75 -8 -114 -45 -114 -102c0 -56 50 -78 114 -93zM356 83c71 7 115 36 115 96c0 58 -51 80 -115 96v-192z" />
    <glyph glyph-name="florin" unicode="&#x192;" horiz-adv-x="496" 
d="M407 646c-44 0 -70 -27 -79 -83l-25 -158h144v-84h-158l-47 -291c-17 -104 -73 -158 -164 -158c-43 0 -65 5 -97 25l15 82c20 -14 41 -21 68 -21c43 0 70 27 78 84l46 279h-139v84h152l28 169c17 104 72 159 164 159c43 0 64 -6 97 -25l-15 -83c-21 15 -41 21 -68 21z
" />
    <glyph glyph-name="sterling" unicode="&#xa3;" horiz-adv-x="625" 
d="M590 160c5 -104 -44 -170 -136 -170c-63 0 -111 29 -155 58c-33 -35 -80 -58 -141 -58c-68 0 -113 35 -113 88c0 51 47 90 121 90c44 0 78 -10 106 -24c1 8 2 17 2 26c0 34 -10 64 -34 102h-164v75h108c-37 50 -50 83 -50 122c0 114 86 201 219 201
c113 0 182 -53 210 -162l-89 -45c-19 78 -53 119 -125 119c-73 0 -119 -42 -119 -104c0 -35 13 -63 54 -122l7 -9h190v-75h-147c12 -30 17 -58 17 -87c0 -27 -5 -54 -16 -79c31 -20 61 -37 102 -37c54 0 77 28 77 94zM167 47c36 0 62 13 80 35c-26 14 -52 25 -81 25
c-30 0 -44 -11 -44 -29c0 -20 18 -31 45 -31z" />
    <glyph glyph-name="uni20BA" unicode="&#x20ba;" horiz-adv-x="668" 
d="M520 279h104c-6 -186 -96 -279 -264 -279h-183v262l-122 -35v59l122 35v88l-122 -35v60l122 35v191h104v-162l200 57v-59l-200 -57v-88l200 57v-59l-200 -57v-206h68c113 0 171 60 171 193z" />
    <glyph glyph-name="uni20BD" unicode="&#x20bd;" horiz-adv-x="658" 
d="M386 264h-144v-68h179v-77h-179v-119h-103v119h-92v77h92v68h-92v84h92v312h247c144 0 232 -74 232 -199c0 -123 -88 -197 -232 -197zM242 570v-222h127c95 0 138 36 138 111s-43 111 -138 111h-127z" />
    <glyph glyph-name="yen" unicode="&#xa5;" horiz-adv-x="637" 
d="M385 295l49 4h127v-59h-193v-73h193v-56h-193v-111h-98v111h-192v56h192v73h-192v59h125l49 -4l-222 365h118l123 -232l47 -100h2l47 101l123 231h118z" />
    <glyph glyph-name="cent.tf" 
d="M530 140c-23 -84 -87 -139 -186 -149v-91h-73v92c-131 17 -208 110 -208 258s77 242 208 258v92h73v-92c100 -9 157 -63 183 -138l-92 -39c-15 55 -46 88 -91 98v-359c51 10 84 44 99 100zM160 249c0 -102 40 -162 111 -178v358c-72 -16 -111 -78 -111 -180z" />
    <glyph glyph-name="currency.tf" 
d="M513 329c0 -45 -12 -86 -33 -119l91 -86l-65 -65l-89 91c-32 -20 -72 -31 -115 -31c-45 0 -85 12 -118 32l-87 -92l-65 65l90 88c-20 33 -32 73 -32 117c0 45 12 85 33 118l-91 86l65 65l89 -91c32 20 72 31 116 31c45 0 84 -11 117 -32l87 92l65 -65l-90 -88
c21 -33 32 -72 32 -116zM302 205c67 0 116 52 116 124s-49 123 -116 123c-68 0 -117 -51 -117 -123s49 -124 117 -124z" />
    <glyph glyph-name="dollar.tf" 
d="M352 363c102 -22 208 -53 208 -177c0 -106 -84 -173 -208 -184v-98h-77v98c-116 9 -194 63 -233 156l79 56c17 -69 82 -116 154 -130v208c-102 22 -207 52 -207 174c0 100 77 180 207 192v98h77v-98c103 -9 160 -53 209 -132l-71 -65c-32 71 -72 105 -138 114v-212z
M164 473c0 -55 48 -77 111 -93v195c-74 -9 -111 -46 -111 -102zM352 83c71 7 112 37 112 96c0 57 -48 80 -112 96v-192z" />
    <glyph glyph-name="Euro.tf" 
d="M498 199l89 -30c-25 -112 -112 -179 -234 -179c-132 0 -219 83 -249 223h-87v68h77c-1 16 -2 32 -2 49c0 10 0 20 1 30h-76v69h83c28 151 121 241 258 241c117 0 193 -52 218 -153l-88 -41c-11 71 -57 109 -124 109c-78 0 -139 -57 -162 -156h210l-20 -69h-200
c-1 -10 -1 -20 -1 -30c0 -17 1 -33 2 -49h181l-20 -68h-149c24 -88 77 -138 150 -138c78 0 131 42 143 124z" />
    <glyph glyph-name="florin.tf" 
d="M490 646c-51 0 -81 -28 -91 -83l-28 -158h166v-84h-181l-52 -291c-18 -103 -78 -158 -176 -158c-45 0 -68 5 -101 25l16 82c20 -14 43 -21 71 -21c50 0 81 28 91 84l50 279h-153v84h168l31 169c19 104 78 159 174 159c46 0 69 -6 101 -25l-14 -83c-22 15 -44 21 -72 21z
" />
    <glyph glyph-name="uni20BA.tf" 
d="M471 273h97c-5 -180 -91 -273 -254 -273h-173v262l-121 -34v59l121 35v88l-121 -35v60l121 34v191h101v-162l200 57v-59l-200 -57v-88l200 57v-59l-200 -57v-207h60c114 0 169 61 169 188z" />
    <glyph glyph-name="uni20BD.tf" 
d="M350 263h-131v-67h179v-77h-179v-119h-100v119h-84v77h84v67h-84v84h84v313h231c141 0 229 -77 229 -200s-88 -197 -229 -197zM219 571v-224h119c92 0 133 36 133 112c0 75 -41 112 -133 112h-119z" />
    <glyph glyph-name="sterling.tf" 
d="M560 160c2 -107 -44 -170 -132 -170c-59 0 -104 29 -146 58c-31 -35 -76 -58 -135 -58c-67 0 -111 35 -111 88c0 51 46 90 118 90c42 0 74 -10 101 -23c1 8 1 16 1 25c0 35 -9 65 -35 105h-156v73h103c-34 49 -47 83 -47 121c0 114 84 201 213 201
c109 0 172 -53 200 -161l-89 -43c-16 75 -48 116 -116 116c-69 0 -112 -42 -112 -105c0 -36 11 -63 51 -121l5 -8h184v-73h-143c14 -33 20 -63 19 -97c-1 -25 -6 -50 -15 -73c28 -20 56 -36 94 -36c50 0 71 28 71 94zM155 47c35 0 60 13 76 35c-24 15 -49 25 -76 25
c-30 0 -42 -11 -42 -29c0 -20 17 -31 42 -31z" />
    <glyph glyph-name="yen.tf" 
d="M369 296l45 3h123v-59h-187v-73h187v-56h-187v-111h-96v111h-186v56h186v73h-186v59h122l45 -3l-212 364h114l120 -233l44 -100h2l44 101l120 232h114z" />
    <glyph glyph-name="approxequal" unicode="&#x2248;" 
d="M190 506c87 0 154 -67 226 -67c45 0 83 11 129 54v-89c-40 -37 -80 -54 -128 -54c-82 0 -150 68 -227 68c-58 0 -91 -17 -131 -55v89c43 39 75 54 131 54zM190 296c87 0 154 -67 226 -67c45 0 83 10 129 54v-89c-40 -37 -80 -54 -128 -54c-82 0 -150 68 -227 68
c-58 0 -91 -17 -131 -55v89c43 38 75 54 131 54z" />
    <glyph glyph-name="asciitilde" unicode="~" horiz-adv-x="557" 
d="M514 396c-7 -106 -54 -162 -139 -162c-92 0 -123 71 -181 71c-33 0 -51 -26 -58 -70h-93c7 107 53 163 140 163c90 0 123 -71 181 -71c32 0 50 26 57 69h93z" />
    <glyph glyph-name="divide" unicode="&#xf7;" 
d="M303 591c44 0 72 -27 72 -71c0 -43 -28 -70 -72 -70c-45 0 -73 27 -73 70c0 44 28 71 73 71zM548 364v-89h-492v89h492zM303 188c44 0 72 -27 72 -70s-28 -71 -72 -71c-45 0 -73 28 -73 71s28 70 73 70z" />
    <glyph glyph-name="equal" unicode="=" 
d="M540 454v-88h-476v88h476zM540 249v-88h-476v88h476z" />
    <glyph glyph-name="uni208C" unicode="&#x208c;" horiz-adv-x="389" 
d="M54 44v64h281v-64h-281zM54 -90v63h281v-63h-281z" />
    <glyph glyph-name="uni207C" unicode="&#x207c;" horiz-adv-x="389" 
d="M54 566v64h281v-64h-281zM54 432v63h281v-63h-281z" />
    <glyph glyph-name="greater" unicode="&#x3e;" 
d="M55 576l481 -223v-109l-481 -223v107l402 171l-402 171v106z" />
    <glyph glyph-name="greaterequal" unicode="&#x2265;" 
d="M54 639l483 -188v-126l-483 -188v102l416 149l-416 149v102zM54 0v89h483v-89h-483z" />
    <glyph glyph-name="infinity" unicode="&#x221e;" horiz-adv-x="903" 
d="M669 508c92 0 172 -69 172 -209c0 -139 -79 -208 -177 -208c-77 0 -133 42 -221 139c-109 -123 -140 -139 -209 -139c-93 0 -173 69 -173 208c0 140 81 209 173 209c75 0 135 -35 226 -138c115 129 150 137 209 138zM667 198c46 -1 83 43 83 118c0 76 -36 119 -80 119
c-42 0 -62 -13 -159 -125c68 -78 113 -111 156 -112zM233 164c43 0 62 15 157 125c-75 83 -109 111 -155 111c-44 0 -82 -41 -82 -118s38 -118 80 -118z" />
    <glyph glyph-name="integral" unicode="&#x222b;" horiz-adv-x="465" 
d="M345 758c53 0 76 -12 99 -26l-12 -82c-18 12 -38 22 -71 22c-42 0 -77 -24 -77 -82v-558c0 -100 -66 -160 -163 -160c-54 0 -77 12 -99 26l12 82c17 -12 37 -22 70 -22c42 0 77 24 77 82v558c0 100 67 160 164 160z" />
    <glyph glyph-name="less" unicode="&#x3c;" 
d="M549 576v-106l-402 -171l402 -171v-107l-481 223v109z" />
    <glyph glyph-name="lessequal" unicode="&#x2264;" 
d="M550 639v-102l-416 -149l416 -149v-102l-483 188v126zM67 0v89h483v-89h-483z" />
    <glyph glyph-name="logicalnot" unicode="&#xac;" 
d="M59 364h486v-243h-97v154h-389v89z" />
    <glyph glyph-name="minus" unicode="&#x2212;" 
d="M545 365v-92h-486v92h486z" />
    <glyph glyph-name="uni208B" unicode="&#x208b;" horiz-adv-x="345" 
d="M29 -23v62h288v-62h-288z" />
    <glyph glyph-name="uni207B" unicode="&#x207b;" horiz-adv-x="345" 
d="M29 499v62h288v-62h-288z" />
    <glyph glyph-name="multiply" unicode="&#xd7;" 
d="M530 484l-164 -164l164 -164l-64 -65l-164 164l-164 -164l-65 65l164 164l-164 164l65 65l164 -164l164 164z" />
    <glyph glyph-name="notequal" unicode="&#x2260;" 
d="M543 372h-166l-63 -129h229v-84h-269l-52 -106h-87l52 106h-126v84h166l63 129h-229v83h269l52 108h88l-52 -108h125v-83z" />
    <glyph glyph-name="partialdiff" unicode="&#x2202;" horiz-adv-x="632" 
d="M291 670c190 0 273 -126 273 -337c0 -228 -95 -343 -269 -343c-135 0 -230 87 -230 222c0 132 97 221 225 221c75 0 138 -33 175 -91c-4 173 -70 239 -183 239c-59 0 -95 -17 -138 -59l-50 74c56 48 116 74 197 74zM303 80c84 0 137 51 155 155c-20 65 -71 112 -158 112
c-81 0 -127 -51 -127 -133c0 -83 45 -134 130 -134z" />
    <glyph glyph-name="percent" unicode="%" horiz-adv-x="880" 
d="M204 670c102 0 167 -73 167 -184s-65 -184 -167 -184c-101 0 -167 73 -167 184s66 184 167 184zM178 0l432 660h92l-431 -660h-93zM204 592c-51 0 -79 -39 -79 -106c0 -66 28 -105 79 -105c52 0 80 39 80 105c0 67 -28 106 -80 106zM676 358c102 0 167 -73 167 -184
s-65 -184 -167 -184c-101 0 -167 73 -167 184s66 184 167 184zM676 279c-51 0 -79 -39 -79 -105c0 -67 28 -106 79 -106c52 0 80 39 80 106c0 66 -28 105 -80 105z" />
    <glyph glyph-name="perthousand" unicode="&#x2030;" horiz-adv-x="1277" 
d="M204 670c102 0 167 -73 167 -184s-65 -184 -167 -184c-101 0 -167 73 -167 184s66 184 167 184zM178 0l432 660h92l-431 -660h-93zM204 592c-51 0 -79 -39 -79 -106c0 -66 28 -105 79 -105c52 0 80 39 80 105c0 67 -28 106 -80 106zM676 358c102 0 167 -73 167 -184
s-65 -184 -167 -184c-101 0 -167 73 -167 184s66 184 167 184zM1073 358c102 0 167 -73 167 -184s-65 -184 -167 -184c-101 0 -167 73 -167 184s66 184 167 184zM676 279c-51 0 -79 -39 -79 -105c0 -67 28 -106 79 -106c52 0 80 39 80 106c0 66 -28 105 -80 105zM1073 279
c-51 0 -79 -39 -79 -105c0 -67 28 -106 79 -106c52 0 80 39 80 106c0 66 -28 105 -80 105z" />
    <glyph glyph-name="plus" unicode="+" 
d="M548 364v-89h-199v-209h-93v209h-200v89h200v208h93v-208h199z" />
    <glyph glyph-name="uni208A" unicode="&#x208a;" horiz-adv-x="345" 
d="M320 38v-60h-113v-117h-67v117h-114v60h114v117h67v-117h113z" />
    <glyph glyph-name="plusminus" unicode="&#xb1;" 
d="M347 447h201v-88h-201v-196h-89v196h-202v88h202v197h89v-197zM56 0v87h492v-87h-492z" />
    <glyph glyph-name="uni207A" unicode="&#x207a;" horiz-adv-x="345" 
d="M320 560v-60h-113v-117h-67v117h-114v60h114v117h67v-117h113z" />
    <glyph glyph-name="product" unicode="&#x220f;" horiz-adv-x="699" 
d="M616 660v-788h-104v696h-324v-696h-104v788h532z" />
    <glyph glyph-name="radical" unicode="&#x221a;" horiz-adv-x="677" 
d="M591 818h98l-322 -818h-106l-139 343h-104v92h162l105 -256l30 -94l32 99z" />
    <glyph glyph-name="summation" unicode="&#x2211;" horiz-adv-x="648" 
d="M586 660v-90h-400l303 -293v-19l-304 -297h401v-89h-529v89l310 307l-310 302v90h529z" />
    <glyph glyph-name="uni00B5" unicode="&#xb5;" horiz-adv-x="613" 
d="M428 500h107v-500h-90l-7 85c-32 -63 -91 -95 -173 -95c-30 0 -57 7 -80 22v-222h-107v710h107v-301c0 -93 40 -121 104 -121c77 0 129 42 139 116v306z" />
    <glyph glyph-name="uni2126" unicode="&#x2126;" horiz-adv-x="775" 
d="M560 82h148v-82h-269v82c94 23 152 108 152 247c0 157 -79 248 -203 248c-125 0 -203 -91 -203 -248c0 -139 57 -224 151 -247v-82h-269v82h148c-89 51 -139 139 -139 255c0 205 120 333 312 333c191 0 311 -128 311 -333c0 -116 -50 -204 -139 -255z" />
    <glyph glyph-name="uni2206" unicode="&#x2206;" horiz-adv-x="709" 
d="M414 660l255 -582v-78h-629v78l255 582h119zM354 587l-222 -504h445z" />
    <glyph glyph-name="uni2215" unicode="&#x2215;" horiz-adv-x="253" 
d="M-158 0l477 660h91l-477 -660h-91z" />
    <glyph glyph-name="uni2219" unicode="&#x2219;" horiz-adv-x="240" 
d="M120 414c46 0 76 -28 76 -72c0 -45 -30 -73 -76 -73s-75 28 -75 73c0 44 29 72 75 72z" />
    <glyph glyph-name="arrowup" unicode="&#x2191;" horiz-adv-x="750" 
d="M377 666c81 -112 175 -199 333 -295l-63 -82c-104 69 -181 141 -231 210c7 -50 12 -110 12 -180v-319h-107v319c0 70 4 130 11 180c-50 -69 -127 -141 -231 -210l-63 82c159 96 252 183 333 295h6z" />
    <glyph glyph-name="uni2197" unicode="&#x2197;" horiz-adv-x="750" 
d="M630 592c-23 -155 -30 -317 -3 -475l-99 -8c-15 114 -9 239 11 338c-33 -42 -76 -89 -126 -138l-226 -226l-71 71l226 226c49 50 96 93 138 126c-99 -20 -223 -27 -337 -12l7 100c158 -27 320 -20 476 3z" />
    <glyph glyph-name="arrowright" unicode="&#x2192;" horiz-adv-x="750" 
d="M422 667c96 -158 183 -252 295 -333v-6c-112 -81 -199 -174 -295 -333l-82 63c69 104 142 181 211 231c-51 -7 -111 -11 -181 -11h-319v107h319c70 0 130 -5 181 -12c-69 50 -142 127 -211 231z" />
    <glyph glyph-name="uni2198" unicode="&#x2198;" horiz-adv-x="750" 
d="M619 575c-27 -158 -20 -320 3 -475l-4 -5c-156 23 -318 30 -476 3l-7 100c114 15 239 8 337 -12c-42 33 -89 76 -138 126l-226 226l71 71l226 -225c50 -50 93 -97 126 -139c-20 99 -26 224 -11 338z" />
    <glyph glyph-name="arrowdown" unicode="&#x2193;" horiz-adv-x="750" 
d="M649 371l63 -82c-158 -96 -252 -183 -333 -295h-6c-81 112 -174 199 -333 295l63 82c104 -69 181 -142 231 -211c-7 51 -11 111 -11 181v319h107v-319c0 -70 -5 -130 -12 -181c50 69 127 142 231 211z" />
    <glyph glyph-name="uni2199" unicode="&#x2199;" horiz-adv-x="750" 
d="M278 186c99 20 223 27 337 12l-7 -100c-159 27 -321 20 -476 -3l-5 4c23 155 30 318 3 476l100 7c15 -114 9 -238 -11 -337c33 42 75 89 125 138l226 226l72 -71l-226 -226c-49 -51 -96 -93 -138 -126z" />
    <glyph glyph-name="arrowleft" unicode="&#x2190;" horiz-adv-x="750" 
d="M699 278h-319c-70 0 -130 4 -181 11c69 -50 142 -127 211 -231l-82 -63c-96 159 -183 252 -295 333v6c112 81 199 175 295 333l82 -63c-69 -104 -142 -181 -211 -231c51 7 111 12 181 12h319v-107z" />
    <glyph glyph-name="uni2196" unicode="&#x2196;" horiz-adv-x="750" 
d="M408 380l226 -226l-71 -71l-226 226c-50 49 -93 96 -126 137c20 -98 27 -223 12 -337l-100 8c27 158 20 320 -3 475l4 5c156 -23 318 -30 476 -3l7 -100c-114 -15 -239 -8 -337 12c42 -33 89 -76 138 -126z" />
    <glyph glyph-name="arrowboth" unicode="&#x2194;" horiz-adv-x="1073" 
d="M745 685c96 -158 183 -252 295 -333v-6c-112 -81 -199 -174 -295 -333l-88 55c72 109 146 188 215 238c-42 -6 -90 -10 -147 -10h-378c-56 0 -104 4 -146 10c69 -50 143 -129 215 -238l-88 -55c-96 159 -183 252 -295 333v6c112 81 199 175 295 333l88 -54
c-72 -109 -146 -188 -216 -238c43 6 91 10 147 10h378c57 0 105 -4 147 -10c-69 50 -143 129 -215 238z" />
    <glyph glyph-name="arrowupdn" unicode="&#x2195;" horiz-adv-x="750" 
d="M418 -6c50 70 129 144 238 216l54 -88c-158 -96 -252 -183 -333 -295h-6c-81 112 -174 199 -333 295l55 88c109 -72 188 -146 238 -216c-6 42 -10 91 -10 147v378c0 56 4 105 10 147c-50 -70 -129 -144 -238 -216l-55 88c159 96 252 183 333 295h6
c81 -112 175 -199 333 -295l-54 -88c-109 72 -188 146 -238 216c6 -42 10 -91 10 -147v-378c0 -56 -4 -105 -10 -147z" />
    <glyph glyph-name="uni25CF" unicode="&#x25cf;" horiz-adv-x="600" 
d="M300 -10c-148 0 -260 112 -260 260s112 260 260 260s260 -112 260 -260s-112 -260 -260 -260z" />
    <glyph glyph-name="circle" unicode="&#x25cb;" horiz-adv-x="600" 
d="M300 -10c-149 0 -263 112 -263 260s114 260 263 260s263 -112 263 -260s-114 -260 -263 -260zM300 77c97 0 169 75 169 173s-72 173 -169 173s-169 -75 -169 -173s72 -173 169 -173z" />
    <glyph glyph-name="uni25C6" unicode="&#x25c6;" horiz-adv-x="600" 
d="M300 -6l-265 265l265 265l265 -265z" />
    <glyph glyph-name="uni25C7" unicode="&#x25c7;" horiz-adv-x="600" 
d="M300 -6l-265 265l265 265l265 -265zM300 115l144 144l-144 144l-144 -144z" />
    <glyph glyph-name="lozenge" unicode="&#x25ca;" horiz-adv-x="607" 
d="M363 660l197 -330l-197 -330h-119l-196 330l196 330h119zM304 68l144 262l-144 262l-145 -262z" />
    <glyph glyph-name="uni25AA" unicode="&#x25aa;" horiz-adv-x="600" 
d="M50 500h500v-500h-500v500z" />
    <glyph glyph-name="uni25AB" unicode="&#x25ab;" horiz-adv-x="600" 
d="M48 0v500h504v-500h-504zM140 81h320v338h-320v-338z" />
    <glyph glyph-name="uni25CF.case" horiz-adv-x="787" 
d="M394 -10c-194 0 -340 146 -340 340s146 340 340 340s340 -146 340 -340s-146 -340 -340 -340z" />
    <glyph glyph-name="circle.case" horiz-adv-x="787" 
d="M394 -10c-195 0 -342 146 -342 340s147 340 342 340s341 -146 341 -340s-146 -340 -341 -340zM394 77c143 0 248 106 248 253s-105 253 -248 253c-144 0 -248 -106 -248 -253s104 -253 248 -253z" />
    <glyph glyph-name="uni25C6.case" horiz-adv-x="787" 
d="M394 -11l-341 341l341 341l341 -341z" />
    <glyph glyph-name="uni25C7.case" horiz-adv-x="787" 
d="M394 -11l-341 341l341 341l341 -341zM394 114l215 216l-215 216l-216 -216z" />
    <glyph glyph-name="uni25AA.case" horiz-adv-x="787" 
d="M64 660h660v-660h-660v660z" />
    <glyph glyph-name="uni25AB.case" horiz-adv-x="787" 
d="M65 0v660h658v-660h-658zM157 82h474v496h-474v-496z" />
    <glyph glyph-name="uni275B" unicode="&#x275b;" horiz-adv-x="721" 
d="M579 665l49 -77c-266 0 -380 -65 -445 -171l7 -5c47 36 93 56 189 56c168 0 276 -86 276 -237c0 -155 -107 -241 -283 -241c-223 0 -307 114 -307 290c0 229 144 385 514 385z" />
    <glyph glyph-name="uni275C" unicode="&#x275c;" horiz-adv-x="721" 
d="M142 -135l-49 77c266 0 380 65 445 171l-7 5c-47 -36 -93 -56 -189 -56c-168 0 -275 86 -275 237c0 155 106 241 282 241c223 0 307 -114 307 -290c0 -229 -144 -385 -514 -385z" />
    <glyph glyph-name="uni275D" unicode="&#x275d;" horiz-adv-x="1251" 
d="M909 468c168 0 275 -86 275 -237c0 -155 -106 -241 -282 -241c-143 0 -229 47 -272 127c-41 -83 -131 -127 -258 -127c-223 0 -307 114 -307 290c0 229 144 385 514 385l49 -77c-266 0 -380 -65 -445 -171l7 -5c47 36 93 56 189 56c101 0 179 -31 226 -88
c40 173 191 285 504 285l49 -77c-266 0 -380 -65 -445 -171l7 -5c47 36 93 56 189 56z" />
    <glyph glyph-name="uni275E" unicode="&#x275e;" horiz-adv-x="1251" 
d="M879 540c222 0 307 -114 307 -290c0 -229 -144 -385 -515 -385l-48 77c266 0 380 65 445 171l-7 5c-48 -36 -94 -56 -189 -56c-100 0 -179 31 -227 88c-39 -173 -190 -285 -503 -285l-49 77c266 0 380 65 445 171l-7 5c-47 -36 -93 -56 -189 -56c-168 0 -275 86 -275 237
c0 155 106 241 282 241c143 0 228 -47 272 -126c41 82 131 126 258 126z" />
    <glyph glyph-name="uni2761" unicode="&#x2761;" horiz-adv-x="668" 
d="M600 660v-587c0 -144 -69 -288 -315 -288c-142 0 -235 80 -202 208l69 16c-23 -97 28 -150 95 -150c74 0 99 51 99 131v222h-46c-139 0 -242 87 -242 223c0 134 102 225 262 225h280zM512 580h-83v-603c0 -49 -21 -99 -52 -119l3 -4c93 32 132 112 132 205v521z" />
    <glyph glyph-name="bar" unicode="|" horiz-adv-x="266" 
d="M180 725v-893h-94v893h94z" />
    <glyph glyph-name="brokenbar" unicode="&#xa6;" horiz-adv-x="260" 
d="M177 725v-368h-94v368h94zM177 200v-368h-94v368h94z" />
    <glyph glyph-name="at" unicode="@" horiz-adv-x="973" 
d="M503 660c271 0 406 -171 406 -400c0 -169 -82 -263 -192 -263c-73 0 -109 42 -123 89c-35 -53 -93 -85 -170 -85c-95 0 -168 76 -168 198c0 173 113 267 231 267c84 0 122 -40 139 -84l20 77h73l-41 -304c-7 -54 5 -94 59 -94c66 0 105 67 105 199
c0 202 -118 336 -339 336c-228 0 -370 -144 -370 -373c0 -221 153 -351 343 -351c114 0 167 30 212 62l37 -50c-57 -40 -120 -76 -250 -76c-246 0 -414 162 -414 415c0 260 177 437 442 437zM498 391c-88 0 -148 -67 -148 -183c0 -82 38 -131 107 -131c64 0 126 41 136 125
l8 59c9 74 -16 130 -103 130z" />
    <glyph glyph-name="ampersand" unicode="&#x26;" horiz-adv-x="630" 
d="M632 68l-19 -78c-56 0 -94 11 -160 72c-48 -44 -114 -72 -195 -72c-128 0 -217 70 -217 174c0 74 38 141 152 195c-56 70 -74 108 -74 158c0 76 56 153 169 153c94 0 166 -47 166 -142c0 -72 -27 -128 -134 -184c17 -21 37 -46 61 -74c30 -36 55 -66 77 -91
c25 45 39 102 35 171l79 -6c3 -81 -19 -159 -64 -220c49 -48 78 -58 124 -56zM288 589c-49 0 -73 -33 -73 -73c0 -32 9 -53 61 -119c79 47 88 86 88 127c0 44 -28 65 -76 65zM137 171c0 -60 56 -102 124 -102c53 0 101 16 141 46c-24 26 -52 57 -84 95c-30 35 -56 65 -78 92
c-85 -52 -103 -86 -103 -131z" />
    <glyph glyph-name="paragraph" unicode="&#xb6;" horiz-adv-x="668" 
d="M584 660v-760h-90v674h-123v-674h-92v338c-151 2 -240 80 -240 210c0 133 89 212 261 212h284z" />
    <glyph glyph-name="copyright" unicode="&#xa9;" horiz-adv-x="806" 
d="M403 670c208 0 343 -134 343 -340s-135 -340 -343 -340s-343 134 -343 340s135 340 343 340zM403 599c-162 0 -267 -106 -267 -269s105 -269 267 -269s266 106 266 269s-104 269 -266 269zM407 515c86 0 137 -38 163 -100l-70 -34c-16 39 -44 57 -91 57
c-63 0 -101 -40 -101 -110c0 -69 38 -110 101 -110c49 0 81 19 97 61l66 -29c-27 -70 -78 -108 -165 -108c-112 0 -181 71 -181 186c0 116 69 187 181 187z" />
    <glyph glyph-name="registered" unicode="&#xae;" horiz-adv-x="806" 
d="M403 670c208 0 343 -134 343 -340s-135 -340 -343 -340s-343 134 -343 340s135 340 343 340zM403 61c162 0 266 106 266 269s-104 269 -266 269s-267 -106 -267 -269s105 -269 267 -269zM566 395c0 -56 -33 -96 -87 -111l95 -138h-90l-81 131h-56v-131h-77v368h159
c80 0 137 -47 137 -119zM347 453v-120h74c43 0 67 19 67 60s-24 60 -67 60h-74z" />
    <glyph glyph-name="section" unicode="&#xa7;" horiz-adv-x="605" 
d="M579 273c0 -65 -38 -110 -86 -139c18 -24 26 -53 26 -88c0 -90 -84 -156 -216 -156c-110 0 -174 37 -220 100l68 58c31 -52 76 -76 151 -76c78 0 123 23 123 65c0 50 -39 75 -165 91c-168 20 -231 66 -231 157c0 64 38 110 87 139c-18 23 -26 52 -26 87
c0 90 83 159 221 159c116 0 173 -41 215 -100l-66 -57c-33 48 -74 75 -150 75c-81 0 -126 -26 -126 -67c0 -51 38 -76 164 -91c169 -20 231 -66 231 -157zM122 297c0 -45 37 -66 155 -80c60 -7 108 -17 144 -32c36 15 66 38 66 76c0 44 -38 66 -156 79
c-60 7 -108 17 -144 32c-35 -15 -65 -38 -65 -75z" />
    <glyph glyph-name="trademark" unicode="&#x2122;" horiz-adv-x="835" 
d="M325 660v-60h-100v-270h-79v270h-102v60h281zM656 660h103v-330h-78v150l6 91h-1l-12 -40l-74 -201h-59l-74 201l-12 40h-1l6 -91v-150h-78v330h105l62 -171l21 -64h2l21 64z" />
    <glyph glyph-name="degree" unicode="&#xb0;" horiz-adv-x="471" 
d="M235 327c-106 0 -179 70 -179 172c0 101 73 171 179 171c107 0 180 -70 180 -171c0 -102 -73 -172 -180 -172zM235 406c55 0 94 38 94 93c0 54 -39 93 -94 93c-54 0 -93 -39 -93 -93c0 -55 39 -93 93 -93z" />
    <glyph glyph-name="estimated" unicode="&#x212e;" horiz-adv-x="796" 
d="M403 670c212 0 338 -128 337 -370h-541v-166c51 -54 128 -85 223 -85c118 0 215 48 288 164v-82c-59 -96 -161 -141 -287 -141c-226 0 -360 134 -360 340s134 340 340 340zM403 611c-87 0 -156 -30 -204 -84v-166h407v168c-48 52 -117 82 -203 82z" />
    <glyph glyph-name="uni2113" unicode="&#x2113;" horiz-adv-x="415" 
d="M282 70c33 0 55 5 86 14l-7 -79c-26 -10 -58 -15 -93 -15c-104 0 -152 41 -152 141v69c-22 -10 -47 -19 -72 -25v72c26 6 50 15 72 26v251c0 96 39 146 123 146c85 0 118 -45 118 -135c0 -98 -53 -203 -146 -277v-114c0 -40 24 -74 71 -74zM250 600
c-30 0 -39 -23 -39 -67v-190c51 55 76 125 76 197c0 45 -10 60 -37 60z" />
    <glyph glyph-name="asciicircum" unicode="^" horiz-adv-x="576" 
d="M549 355h-101l-160 294l-160 -294h-102l214 373h96z" />
    <glyph glyph-name="dagger" unicode="&#x2020;" horiz-adv-x="538" 
d="M500 454v-88h-179v-466h-104v466h-179v88h179v206h104v-206h179z" />
    <glyph glyph-name="daggerdbl" unicode="&#x2021;" horiz-adv-x="538" 
d="M500 366h-179v-172h179v-88h-179v-206h-104v206h-179v88h179v172h-179v88h179v206h104v-206h179v-88z" />
    <glyph glyph-name="uniF8FF" unicode="&#xf8ff;" horiz-adv-x="1130" 
d="M1030 326l51 -43l-63 -30l41 -51l-69 -12l28 -61l-61 -4c-9 -6 -18 -11 -28 -15v-81c0 -19 -10 -29 -29 -29h-46c-19 0 -29 7 -29 23s10 25 29 25h11v39c-21 -5 -43 -8 -66 -10v-48c0 -19 -10 -29 -29 -29h-46c-19 0 -29 7 -29 23s10 25 29 25h11v27h-226v-46
c0 -19 -10 -29 -29 -29h-46c-19 0 -30 7 -30 23s11 25 30 25h12v27h-88v-46c0 -19 -10 -29 -30 -29h-44c-21 0 -31 7 -31 23s10 25 31 25h10v37c-89 4 -179 35 -231 81h-5c-22 0 -41 19 -41 41s19 41 41 41c4 0 8 -1 11 -2c48 37 95 113 95 172l4 83l56 -28v69l56 -30l-4 62
l67 -26l5 66l65 -33l8 65l67 -36l17 65l57 -50l30 64l49 -50l49 54l37 -59l50 55l26 -64l63 44l7 -69l70 31l-11 -69l76 16l-21 -64l73 3l-40 -56l66 -23l-54 -38l57 -39zM395 247c31 10 51 38 49 73c-2 45 -39 75 -84 73c-14 -1 -28 -9 -37 -17l11 -19c7 6 17 11 27 12
c33 1 54 -18 56 -51c2 -26 -10 -45 -34 -50zM238 232c40 0 65 24 65 64h-24c0 -27 -14 -37 -41 -37s-41 10 -41 37h-24c0 -40 25 -64 65 -64z" />
    <glyph glyph-name="bar.case" horiz-adv-x="266" 
d="M180 752v-849h-94v849h94z" />
    <glyph glyph-name="at.case" horiz-adv-x="973" 
d="M503 756c271 0 406 -171 406 -400c0 -169 -82 -264 -192 -264c-73 0 -109 43 -123 90c-35 -53 -93 -85 -170 -85c-95 0 -168 75 -168 198c0 172 113 267 231 267c84 0 122 -40 139 -85l20 77h73l-41 -303c-7 -54 5 -94 59 -94c66 0 105 67 105 199
c0 202 -118 336 -339 336c-228 0 -370 -144 -370 -373c0 -221 153 -351 343 -351c114 0 167 30 212 62l37 -50c-57 -40 -120 -76 -250 -76c-246 0 -414 162 -414 415c0 259 177 437 442 437zM498 487c-88 0 -148 -67 -148 -183c0 -82 38 -131 107 -131c64 0 126 41 136 125
l8 59c9 74 -16 130 -103 130z" />
    <glyph glyph-name="ampersand.sc" horiz-adv-x="569" 
d="M569 63l-17 -71c-50 0 -83 10 -140 60c-44 -38 -104 -60 -178 -60c-121 0 -197 57 -197 143c0 67 33 117 135 164c-51 60 -67 93 -67 137c0 66 51 132 156 132c88 0 151 -43 151 -123c0 -62 -23 -108 -121 -158l52 -58c28 -30 51 -56 71 -76c23 36 34 85 32 150l70 -13
c2 -73 -18 -135 -54 -184c42 -36 68 -45 107 -43zM262 494c-42 0 -64 -26 -64 -61c0 -28 7 -46 52 -98c68 38 77 67 77 103c0 38 -24 56 -65 56zM238 63c48 0 90 13 123 36l-70 73c-29 29 -53 55 -74 77c-69 -39 -88 -67 -88 -103c0 -50 50 -83 109 -83z" />
    <glyph glyph-name="uni0326" unicode="&#x326;" horiz-adv-x="0" 
d="M-188 -71l-67 -167h-77l40 167h104z" />
    <glyph glyph-name="uni02C9" unicode="&#x2c9;" horiz-adv-x="500" 
d="M428 666v-78h-356v78h356z" />
    <glyph glyph-name="acute" unicode="&#xb4;" horiz-adv-x="500" 
d="M274 746h108l-99 -168h-82z" />
    <glyph glyph-name="breve" unicode="&#x2d8;" horiz-adv-x="500" 
d="M404 723c0 -92 -61 -153 -154 -153s-154 61 -154 153h79c0 -45 31 -82 75 -82s75 37 75 82h79z" />
    <glyph glyph-name="caron" unicode="&#x2c7;" horiz-adv-x="500" 
d="M418 746l-111 -168h-114l-111 168h88l80 -103l80 103h88z" />
    <glyph glyph-name="cedilla" unicode="&#xb8;" horiz-adv-x="500" 
d="M197 3l43 28c91 -22 138 -79 138 -136c0 -63 -48 -110 -124 -110c-52 0 -87 12 -115 37l33 62c16 -17 41 -30 70 -30c32 0 56 22 56 56c0 39 -21 62 -101 93z" />
    <glyph glyph-name="circumflex" unicode="&#x2c6;" horiz-adv-x="500" 
d="M418 571h-88l-80 104l-80 -104h-88l111 169h114z" />
    <glyph glyph-name="dieresis" unicode="&#xa8;" horiz-adv-x="500" 
d="M151 700c40 0 66 -24 66 -63c0 -38 -26 -63 -66 -63c-39 0 -65 25 -65 63c0 39 26 63 65 63zM353 700c40 0 66 -24 66 -63c0 -38 -26 -63 -66 -63s-65 25 -65 63c0 39 25 63 65 63z" />
    <glyph glyph-name="dotaccent" unicode="&#x2d9;" horiz-adv-x="500" 
d="M250 718c43 0 70 -25 70 -66s-27 -66 -70 -66s-69 25 -69 66s26 66 69 66z" />
    <glyph glyph-name="grave" unicode="`" horiz-adv-x="500" 
d="M226 746l73 -168h-82l-99 168h108z" />
    <glyph glyph-name="hungarumlaut" unicode="&#x2dd;" horiz-adv-x="500" 
d="M254 746l-97 -168h-81l74 168h104zM440 746l-97 -168h-80l74 168h103z" />
    <glyph glyph-name="macron" unicode="&#xaf;" horiz-adv-x="500" 
d="M428 666v-78h-356v78h356z" />
    <glyph glyph-name="ogonek" unicode="&#x2db;" horiz-adv-x="509" 
d="M346 15c-95 -39 -128 -75 -128 -111c0 -32 25 -50 61 -50c17 0 38 2 53 11l18 -61c-22 -13 -55 -19 -88 -19c-74 0 -125 40 -125 103c0 75 57 116 157 151z" />
    <glyph glyph-name="ring" unicode="&#x2da;" horiz-adv-x="500" 
d="M251 806c77 0 127 -47 127 -118c0 -73 -50 -120 -127 -120c-78 0 -129 47 -129 120c0 71 51 118 129 118zM251 751c-39 0 -66 -26 -66 -63c0 -38 27 -64 66 -64c38 0 65 26 65 64c0 37 -27 63 -65 63z" />
    <glyph glyph-name="tilde" unicode="&#x2dc;" horiz-adv-x="500" 
d="M436 717c-6 -93 -45 -141 -118 -141c-76 0 -94 65 -136 65c-27 0 -39 -24 -45 -66h-73c6 94 44 142 119 142c74 0 94 -65 134 -65c28 0 40 24 46 65h73z" />
    <glyph glyph-name="spacesuperior" horiz-adv-x="129" 
 />
    <glyph glyph-name="emdashsuperior" horiz-adv-x="666" 
d="M614 561v-62h-561v62h561z" />
    <glyph glyph-name="endashsuperior" horiz-adv-x="444" 
d="M390 561v-62h-337v62h337z" />
    <glyph glyph-name="hyphensuperior" horiz-adv-x="313" 
d="M261 561v-62h-208v62h208z" />
    <glyph glyph-name="bracketleftsuperior" horiz-adv-x="217" 
d="M212 748h-78v-433h78v-62h-151v557h151v-62z" />
    <glyph glyph-name="bracketrightsuperior" horiz-adv-x="217" 
d="M156 810v-557h-151v62h78v433h-78v62h151z" />
    <glyph glyph-name="colonsuperior" horiz-adv-x="198" 
d="M99 670c33 0 54 -20 54 -51c0 -32 -21 -52 -54 -52s-54 20 -54 52c0 31 21 51 54 51zM99 430c33 0 54 -20 54 -52c0 -31 -21 -51 -54 -51s-54 20 -54 51c0 32 21 52 54 52z" />
    <glyph glyph-name="commasuperior" horiz-adv-x="198" 
d="M100 430c39 0 61 -31 61 -76c0 -52 -26 -101 -84 -127l-37 30c38 15 69 46 71 73l-3 1c-3 -2 -6 -4 -14 -4c-23 0 -49 18 -49 52c0 31 20 51 55 51z" />
    <glyph glyph-name="periodsuperior" horiz-adv-x="198" 
d="M99 430c33 0 54 -20 54 -52c0 -31 -21 -51 -54 -51s-54 20 -54 51c0 32 21 52 54 52z" />
    <glyph glyph-name="Hsuperior" horiz-adv-x="466" 
d="M328 730h88v-397h-88v167h-190v-167h-87v397h87v-162h190v162z" />
    </font>
</defs>
</svg>
